<?xml version="1.0" encoding="UTF-8"?>
<svg xmlns="http://www.w3.org/2000/svg" version="1.1" viewBox="0 0 462.17 86.31">
  <defs>
    <style>
      .cls-1 {
        fill: none;
      }

      .cls-2 {
        fill: #4f4730;
      }

      .cls-3 {
        fill: #e1d7be;
      }
    </style>
  </defs>
  <!-- Generator: Adobe Illustrator 28.6.0, SVG Export Plug-In . SVG Version: 1.2.0 Build 709)  -->
  <g>
    <g id="Layer_1">
      <g>
        <path class="cls-1" d="M28.09,31.98c0-.15.02-.31.02-.48,0,.17-.01.32-.02.48Z"/>
        <path class="cls-1" d="M30.05,35.33c2.23-11.68-.87-23.69.09-35.23,0,0-.01,0-.02,0-.94,11.51,2.14,23.59-.08,35.24Z"/>
        <path class="cls-1" d="M27.63,6.8c-.31,7,.56,17.66.51,23.51.06-5.79-.76-16.35-.51-23.51Z"/>
        <path class="cls-1" d="M28.13,31.17c0-.21.01-.43.01-.65,0,.23,0,.44-.01.65Z"/>
        <path class="cls-1" d="M27.92,33.57c.03-.17.06-.36.09-.57-.03.21-.05.4-.09.57Z"/>
        <path class="cls-1" d="M28.03,32.75c.01-.14.03-.28.04-.43-.01.15-.03.29-.04.43Z"/>
        <path class="cls-3" d="M6.39,77.81h.33v-1h-.33v1Z"/>
        <path class="cls-3" d="M10.05,83.48h1v-.33h-1v.33Z"/>
        <path class="cls-3" d="M4.26,70.66c.21-.01.41-.03.62-.04v-3.65l-.86.07c.08,1.21.16,2.41.24,3.62Z"/>
        <path class="cls-3" d="M5.22,73v1.66c.29-.04.58-.07.86-.11-.13-.54-.26-1.08-.39-1.63-.16.03-.32.05-.48.08Z"/>
        <path class="cls-3" d="M18.72,65.81v-1h-.33v1h.33Z"/>
        <path class="cls-3" d="M16.65,77.9h0c-.23.27-.46.54-.7.82l.09.09c-1.47.02-3-.41-3.99,1,1.47-.02,3.01.42,3.99-.99l.1.1c.27-.23.54-.46.82-.7-.11-.11-.21-.21-.32-.32h0Z"/>
        <path class="cls-3" d="M7.51,59.82c.43.05.88.1,1.29.15,1,3.99-1.11,8.45,1.8,11.86,2.98-.08-1.08-2,1.09-2.16.12-1.45.83-3.22.25-4.28-1.74-3.18-.38-6.33-.93-9.29,4.1,1.2,1.69,6.55,2.29,9.54h2.58c.15-1.39.27-2.6.35-3.34,2.7.46,5.15.88,7.29,1.24,2.32-6.04,4.8-12.01,2.88-19.71-.44,5.03-.69,7.51-1.75,11.82-.23-.02-.46-.05-.7-.07v-7.74c-1.26,1.66-.03,3.96-1.85,4.94.11-2.65-.56-5.32.74-7.95-.64.05-1.1.09-1.52.12-.44,2.31-.94,4.45-1.71,6.68-.25-.05-.5-.1-.75-.15v-6.66c-1.2,2.26-.07,5.1-2.53,6.94-1.21-2.37,2.02-4.5.1-7.14-.66,2.56-1.26,4.88-1.85,7.2-.51-2.34-.89-4.65.03-7.06-3.92,1.84-1.57,7.09-4.82,9.75.93-4.12,1.6-8.29,1.97-12.5-.3-.06-.76-.14-1.38-.26-.89,3.71-1.77,7.37-2.65,11.02-.23-.02-.45-.05-.68-.07-.81-4.31,2.21-6.26.12-10.9.11,5.44-1.61,10.11-.36,15.32-2.01,1.92-4.53,2.58-3.76,5.75.79-.43,1.24-.67,1.87-1.01.75,6.79,4.4,13.45,3.01,19.75h5.15c-.42-.73-.73-1.25-1.03-1.77-4.28-4.76-5.7-13.71-4.54-19.99Z"/>
        <path class="cls-3" d="M11.72,38.81h-.33v1h.33v-1Z"/>
        <path class="cls-3" d="M4.89,44.99c-.54,1.56-1.28,3.18,0,5.82v-5.82Z"/>
        <path class="cls-3" d="M8.72,38.81h-.33v1h.33v-1Z"/>
        <path class="cls-3" d="M14.95,42.46c-.03-.16-.05-.32-.08-.48h-1.66c.03.29.07.58.1.87.55-.13,1.09-.26,1.64-.39Z"/>
        <path class="cls-3" d="M7.05,38.15h-1v.33h1v-.33Z"/>
        <path class="cls-3" d="M5.88,43.66v-2.66l-.88.02c.12.89.24,1.78.36,2.68.17-.01.35-.03.52-.04Z"/>
        <path class="cls-3" d="M16.84,73.76c-.89.12-1.78.24-2.68.36.01.17.03.35.04.52h2.66l-.02-.88Z"/>
        <path class="cls-3" d="M19.95,78.72c.07.07.13.13.2.2.27-.23.54-.46.82-.7l-.32-.32c-.23.27-.46.54-.7.82Z"/>
        <path class="cls-3" d="M20.39,81.81h.33v-1h-.33v1Z"/>
        <path class="cls-3" d="M20.39,83.81h.33v-1h-.33v1Z"/>
        <path class="cls-3" d="M19.88,72.51v-4.79c-.77.16-1.32.28-2.15.45.68,1.37,1.22,2.47,2.15,4.34Z"/>
        <path class="cls-3" d="M23.96,78.22l-.32-.32c-.23.27-.46.54-.69.81-.27.23-.54.46-.81.69l.32.32c.44-.56.94-1.06,1.5-1.5Z"/>
        <path class="cls-3" d="M23.59,74.06h-1.63c.12.69.2,1.13.44,2.56.62-1.33.94-2.02,1.18-2.56Z"/>
        <path class="cls-3" d="M21.72,67.9c-.16.02-.33.04-.49.07v1.66c.29-.02.57-.04.86-.06l-.36-1.67Z"/>
        <path class="cls-3" d="M20.05,42.15h-1v.33h1v-.33Z"/>
        <path class="cls-3" d="M18.05,83.48h1v-.33h-1v.33Z"/>
        <path class="cls-3" d="M13.05,74.06h-3v.5h3v-.5Z"/>
        <path class="cls-3" d="M12.05,77.48v-.33h-1v.33h1Z"/>
        <path class="cls-3" d="M16.13,67.71c-1.21.17-2.08.3-3.61.52,1.4.86,2.16,1.32,3.23,1.98.14-.95.23-1.5.38-2.5Z"/>
        <path class="cls-3" d="M17.96,80.71c-.27.23-.54.46-.82.7l.32.32c.23-.27.46-.54.7-.82-.07-.07-.13-.13-.2-.2Z"/>
        <path class="cls-3" d="M14.05,71.56h3v-.5h-3v.5Z"/>
        <path class="cls-3" d="M52.25,79.64h3.65c-.03-.29-.06-.57-.08-.86-1.2.08-2.4.16-3.6.24.01.21.02.41.04.62Z"/>
        <path class="cls-3" d="M25.05,45.15h-1v.33h1v-.33Z"/>
        <path class="cls-3" d="M35.1,71.64c-.09-1.08-.16-1.97-.24-3.01-3.71,2.5-2.84,3.38.24,3.01Z"/>
        <path class="cls-3" d="M28.4,75.87c1.62-.09,3.15-.18,4.66-.26v-1.78l.09.09c.27-.23.54-.46.82-.7l-.32-.32c-.23.27-.46.54-.7.82h.01c-1.66.11-3.3.2-5.11.31.26.87.39,1.3.55,1.84Z"/>
        <path class="cls-3" d="M49.05,68.96c-1.2-.06-2.42-.11-4.21-.2.26,1.42.41,2.27.6,3.34,1.76-1.22,3.98-.9,3.6-3.14Z"/>
        <path class="cls-3" d="M52.04,75.97h-5.9v1.93c2.04-.48,4.39,1,5.9-1.93Z"/>
        <path class="cls-3" d="M39.17,74.75c.64-.05,1.27-.11,1.91-.16-.01-.26-.03-.52-.04-.78l.1.1c.27-.23.54-.46.82-.7-.11-.11-.21-.21-.32-.32-.23.27-.46.54-.7.82l.02.02c-.63.12-1.26.25-1.88.37l.09.65Z"/>
        <path class="cls-3" d="M37.08,74.28c-.18-.21-.36-.41-.54-.62-.87.48-1.73.97-3.58,2,2.72.13,2.79.23,4.12-1.38Z"/>
        <path class="cls-3" d="M58.72,78.81h-.33v1h.33v-1Z"/>
        <path class="cls-3" d="M371.67,73.63c1.6.08,2.84.14,2.97.14,1.66-1.17,2.56-1.81,3.39-2.39-2.77-3.46-5.35-1.2-6.35,2.25Z"/>
        <path class="cls-3" d="M53.19,77.67c1.85-.07,3.63.52,4.81-1.3,1.04-5.47-5.27-2.1-4.81,1.3Z"/>
        <path class="cls-3" d="M47.91,74.17c1.03,1.1,3.4.18,4.91.47-.17-.21-.35-.43-.52-.64.63-.18,1.26-.36,1.89-.55-.1-.16-.19-.31-.29-.47h-4.62c.17.21.35.43.52.64-.63.18-1.26.36-1.89.55Z"/>
        <path class="cls-3" d="M55.51,67.63c-1.85.75-3.67,1.48-5.48,2.21.08.32.17.64.25.96,2.71-.44,6.88,1.65,5.23-3.18Z"/>
        <path class="cls-3" d="M22.21,82.98l.11.86c.54-.13,1.08-.26,1.63-.39-.03-.16-.05-.32-.08-.48h-1.66Z"/>
        <path class="cls-3" d="M50.87,80.65c0-.28.02-.57.03-.85h-6.65c-.2-1.24-.34-2.14-.54-3.41-3.4,1.06-1.6,3.02-4.58,3.37.41-1.14.69-1.91,1.22-3.39-3.79.99-7.75.62-10.23,2.15.97.21,1.92.42,2.97.66-.46.6-.72.92-1.15,1.48h18.94Z"/>
        <path class="cls-3" d="M26.59,74.06h-1.63c.12.69.2,1.13.44,2.56.62-1.33.94-2.02,1.18-2.56Z"/>
        <path class="cls-3" d="M23.46,72.72c.23-.27.46-.54.7-.82-.07-.07-.13-.13-.2-.2-.27.23-.54.46-.82.7l.32.32Z"/>
        <path class="cls-3" d="M43.14,74.52c1.74.69,2.98.29,3.82-1.42-1.74-.69-2.98-.29-3.82,1.42Z"/>
        <path class="cls-3" d="M26.93,66.78c-.39-2.95,1.6-4.17,1.25-7.12q.93-1.15,0-2.81c0,1.13,0,2.05-.12,2.97-1.48,1.06-.9,2.49-1.12,4.15q-.93,1.15,0,2.81Z"/>
        <path class="cls-3" d="M28.74,65.25c2.1-2.02,2.45-4.65,2.43-7.59q.93-1.15,0-2.81c-.07,1.51.3,2.78-.82,3.74-1.58,2.33-1.43,4.37-2.48,8.7,1.35-1.16,1.26-.9.86-2.04Z"/>
        <path class="cls-3" d="M35.88,50.66v-3.66c-.29,0-.58,0-.86-.01.08,1.23.17,2.47.25,3.7.2,0,.41-.02.61-.03Z"/>
        <path class="cls-3" d="M30.87,67.22c-.82,1.22-1.6,2.38-2.52,3.74-.18-1.06-.34-1.98-.52-3.01-2.83-.58-2.95,1.21-4.16,3.7h7.22c1.77-6.6,3.99-12.94,3.74-19.75-.92,4.99-3.97,10.58-3.77,15.33Z"/>
        <path class="cls-3" d="M43.66,71.41c-.91-1.19-1.46-1.91-2.05-2.67-.5.97-.95,1.85-1.62,3.16,1.22-.16,2.16-.29,3.67-.49Z"/>
        <path class="cls-3" d="M42.78,66.36c-.03-.07-.05-.14-.08-.22-.04-.11-.08-.22-.12-.34h0s0,0,0,0c-.17.6-.34,1.21-.69,2.42,1.27-1.07,1.26-.81.89-1.87Z"/>
        <path class="cls-3" d="M43.96,65.22l-.32-.32c-.23.27-.46.54-.7.82l.2.2c.27-.23.54-.46.82-.7Z"/>
        <path class="cls-3" d="M39.11,71.63c-.1-1.08-.18-1.96-.28-3.06-1.78.53-2.98,1.07-2.71,3.06h2.99Z"/>
        <path class="cls-3" d="M34.24,67.94c.77-.15,1.22-.24,1.73-.33v-2.94c-.88.17-1.33.26-1.96.38.08,1.01.15,1.9.23,2.9Z"/>
        <path class="cls-3" d="M40.89,65.12q-2.89-.24-2.33,2.69c1.55.37,1.62-1.65,2.33-2.69Z"/>
        <path class="cls-3" d="M23.05,42.15h-1v.33h1v-.33Z"/>
        <path class="cls-3" d="M447.05,71.56h2v-.5h-2v.5Z"/>
        <path class="cls-3" d="M448.39,74.81h.33v-1h-.33v1Z"/>
        <path class="cls-3" d="M437.03,78.04c.01.25.03.51.04.76-.17-.16-.34-.32-.51-.48-.46.71-.92,1.42-1.52,2.35.67.04,1.21.08,1.91.13.06-.76.1-1.33.14-1.9.65-.13,1.3-.25,1.94-.38-.03-.22-.05-.43-.08-.65-.64.05-1.28.11-1.92.16Z"/>
        <path class="cls-3" d="M447.05,76.48h1v-.33h-1v.33Z"/>
        <path class="cls-3" d="M23.05,81.56h3v-.5h-3v.5Z"/>
        <path class="cls-3" d="M449.41,69.71c.16-.03.32-.05.48-.08v-1.66c-.29.04-.58.07-.86.11.13.54.26,1.08.39,1.63Z"/>
        <path class="cls-3" d="M450.93,62.78v-2.81q-.93,1.15,0,2.81Z"/>
        <path class="cls-3" d="M442.79,77.78c-.54.13-1.08.26-1.63.39.03.16.05.32.08.48h1.66c-.04-.29-.07-.58-.11-.86Z"/>
        <path class="cls-3" d="M439.05,73.56h2v-.5h-2v.5Z"/>
        <path class="cls-3" d="M442.05,81.48h1v-.33h-1v.33Z"/>
        <path class="cls-3" d="M444.39,79.81h.33v-1h-.33v1Z"/>
        <path class="cls-3" d="M443.05,76.56h2v-.5h-2v.5Z"/>
        <path class="cls-3" d="M445.39,74.81h.33v-1h-.33v1Z"/>
        <path class="cls-3" d="M445.05,70.48h1v-.33h-1v.33Z"/>
        <path class="cls-3" d="M453.8,3.81h-.5v2h.5v-2Z"/>
        <path class="cls-3" d="M452.96,2.4c-.27-.23-.54-.46-.82-.7-.07.07-.13.13-.2.2.23.27.46.54.7.82l.32-.32Z"/>
        <path class="cls-3" d="M454.84,6.94c-.21.01-.41.03-.62.04v3.65c.29,0,.58-.01.87-.02-.08-1.23-.17-2.45-.25-3.68Z"/>
        <path class="cls-3" d="M30.15.09c-.96,11.54,2.13,23.56-.09,35.23,0,5.16,0,10.32-.12,15.68q-1.16,1.89,0,4.85c-.38-4.81,2.08-8.49,1.04-13.24-.49-1.23,1.2-1.57.63-2.91-.54-1.28,1.51-3.09-.52-4.45-.16-.11.11-.86.18-1.33h1.79c.87,7.14-1.57,12.94-.12,19.93.58-7.31,1.23-13.66,1.39-21.17.73.16,1.18.27,1.66.37.47,9.21,2.94,18.64-.88,27.75-.24.53.2,1.38.42,2.66,4.78-5.16,3.86-12.32,4.67-18.19.72.35,1.47.71,2.01.97-1.65,5.83-.93,10.65-3.24,16.35h2.66c1.37-3.08,1.39-5.44.62-8.76.62.05,1.19.1,1.9.16-.4,3.04.57,5.92-.93,8.98h6.85c.08.93-.18,1.48.13,2.01h-5.53c.76,1.23,1.29,2.09,1.95,3.16,1.27-1.06,3.2-.8,3.61-3.12,1.51,3.13,4.8,1.73,8.09,2-2.56,2.24-.51,3.9.18,5.79,11.81.28,23.56-.37,35.27-1,.3-.88.5-1.46.84-2.46.68,1.85,1.21,3.29,1.8,4.89-1.24.8-2.27,1.45-3.08,1.97.25.85.48,1.64.92,3.15-1-.91-1.35-1.22-1.7-1.54.31.32.62.65.93.97-.84.14-1.69.28-2.53.42,1.78,1.15,4.87.65,6.22-.92-.78-.38-1.41-.69-2.5-1.21,6.25.24,4.91-6.83,8.6-9.95-.33,2.12-.66,4.25-1.01,6.48h1.64c.16-1.07.29-1.92.41-2.77.18,0,.36.01.54.02.14.92.28,1.83.41,2.68,4.33-.37,8.55-.73,13.53-1.16-2.26-1.08-4.8.35-5.63-2.58,13.34.42,26.97-.46,39.87-.59-16.3,2.34-32.6,3.75-48.95,5.98,23.88,1.51,48.66-4.29,72.89-2.06-15.22,3.18-32.42.48-46.9,3.66-3.59.71-12.08-1.5-14,1,3.63-.71,12.02,1.51,14-1,83.01-4.15,165.5-4.9,248.49.06-.95-.99-1.38-1.45-1.82-1.91-1.3,1.25-2.25.44-3.62-.11-7.39-1.32-14.47.52-21.5-3.04,7.1-.68,12.4,1.37,18.99,1.06,1.22-2.13,1.43-2.75.19-4.85,3.73-.68,7.65,3.35,9.11-1.58,1.24,1.46,2.18,2.56,3.49,4.09,1.28-2.24,2.26-3.95,3.24-5.65,1.66,1.64-1.01,3.1-.44,4.81,5.41,1.25,10.76.48,15.79,2.8-6.34,2.77-21.72-5.56-23.64,1.04,2.41,1.32,3.13-1.25,4.72-1.73,4.88,6.28,19.31,1.88,27.42,4.02,3.18,1.26,5.84,1.37,10.46-.07h-6.89c.07-.81.11-1.26.19-2.07,3.55.44,6.99.87,11.54,1.44.14-.53.39-1.5.76-2.89.49,1.42.69,2,.94,2.73.58-.2,1.04-.37,1.57-.55-.44-.59-.68-.9-.97-1.29,2.69-.36,5.17-.69,7.69-1.03.17.43.41.99.59,1.43,1.85-2.67,3.79-3.06,6.6-2.73,1.14-2.47,3.19-1.98,5.57-2.14-.63-1.12-1-1.78-1.44-2.56,1-.22,2.02-.43,2.61-.56-1.26-11.26,5.62-21.39.63-32.65,5.17,2.24,1.48,12.08,3.29,16.92.76-5.96.09-11.99,1.06-17.94,3.16,10.01-.37,18.28-.5,28.27,3.44-2.78,1.26-8.13,2.84-12.17.45-8.86.12-17.27-1.97-25.86.93-.32,1.5-.52,2.5-.86-1.56-2.86-1.06-8.21-4.32-8.63-.15-1.03-.28-1.9-.48-3.28-.57,1.17-.88,1.8-1.31,2.68-1.77-3.01-2.58-6.02-3.3-9.2.65,0,1.42,0,1.93,0-.7-.88-1.43-1.86-2.19-2.81h2.39s-.06.18-.1.22c.27.23.54.46.82.7.07-.07.13-.13.2-.2-.18-.21-.38-.51-.56-.72,0,0,2.49,0,3.74,0H30.14s0,.06,0,.09c0,0,.01,0,.02,0Z"/>
        <path class="cls-3" d="M451.44,8.67c.16-.04.33-.07.49-.11-.12-1.96.77-5.82-2.15-5.67.55,1.93,1.11,3.85,1.66,5.78Z"/>
        <path class="cls-3" d="M457.37,25.69c.17-.02.35-.03.52-.05v-2.66c-.3.02-.6.03-.89.05.12.88.25,1.77.37,2.65Z"/>
        <path class="cls-3" d="M458.89,30.63v-3.65c-.29.01-.58.03-.87.04.08,1.22.16,2.44.25,3.65.21-.01.41-.03.62-.04Z"/>
        <path class="cls-3" d="M451.39,74.81h.33v-1h-.33v1Z"/>
        <path class="cls-3" d="M454.39,68.81h.33v-1h-.33v1Z"/>
        <path class="cls-3" d="M452.39,69.81h.33v-1h-.33v1Z"/>
        <path class="cls-3" d="M451.29,66.85c1.59-.22,3.26.34,5.54-.85-1.74-1.01-2.94-1.71-4.19-2.44-.74,1.28-2.4,2.02-1.35,3.29Z"/>
        <path class="cls-3" d="M456.39,63.72c.16-.02.33-.04.49-.07v-1.66c-.29.02-.57.04-.86.06.12.56.24,1.11.36,1.67Z"/>
        <path class="cls-3" d="M457.82,59.75c.17-1.58-.1-3.43.64-4.66,1.54-3.43-.44-6.57,1.45-9.96.56-2.56.69-6.69-.69-9.44-.29,8.55-2.97,15.88-1.4,24.06Z"/>
        <path class="cls-3" d="M450.39,71.81h.33v-1h-.33v1Z"/>
        <path class="cls-3" d="M99.22,78.06c.18.21.36.43.54.64-.62.16-1.24.31-1.87.47,3.29.57,6.7-.64,10.03-.41,2.72,0,5.43-.01,8.16-.07,0-.21-.01-.42-.02-.63h-16.84Z"/>
        <path class="cls-3" d="M101.9,75.16c-.67.33-1.33.67-2.22,1.11,2.89,1.15,2.39-.15,2.22-1.11Z"/>
        <path class="cls-3" d="M93.34,73.97h-33.04c-.5,1.24-.93,2.33-1.67,4.18,2.8-2.4,4.29,1.45,8.1-.5,3.57-1.24,7.08-.58,10.61-.83,3.78.09,8.54-2.61,11.83-.25-1.08.17-2,.31-3,.46.98,1.57,1.06,2.25-.18,3.69,2.67.4,2.14-2.92,4.35-3.1,1-.08,1.84-2.16,3-3.65Z"/>
        <path class="cls-3" d="M393.21,77.38c7.82,1.17,15.63,1.99,23.66,1.43,0-.37.02-.74.03-1.1-7.93,1.09-15.74-2.04-23.69-.33Z"/>
        <path class="cls-3" d="M379.29,76.23c2.48.68,4.48,1.95,5.65,1.41,2.32-1.07,4.69-.48,6.95-1.44-3.92-.2-7.84-.72-12.6.04Z"/>
        <path class="cls-3" d="M28.03,78.52c-.03-.22-.06-.43-.09-.65-.64.05-1.27.11-1.91.16.01.26.03.52.04.78l-.1-.1c-.27.23-.54.46-.82.7l.32.32c.23-.27.46-.54.7-.82l-.02-.02c.63-.12,1.26-.25,1.88-.37Z"/>
        <path class="cls-3" d="M77.13,80.5c2.31.16,4.62.58,6.92-.36-2.31.02-4.63-.78-6.92.36Z"/>
        <path class="cls-3" d="M26.21,83.64h8.65c-2.87-.57-5.79-1.22-8.65,0Z"/>
        <path class="cls-3" d="M419.05,79.48h1v-.33h-1v.33Z"/>
        <path class="cls-3" d="M41.23,82.65h17.65c0-.28.01-.56.02-.84-5.89.32-11.92-.85-17.66.84Z"/>
        <path class="cls-3" d="M438.39,81.81h.33v-1h-.33v1Z"/>
        <path class="cls-3" d="M61.05,81.56h15c-5-.82-10-.82-15,0Z"/>
        <path class="cls-3" d="M70.61,78.98h-8.39c0,.28.01.55.02.83,3.08-.3,5.18.82,8.37-.83Z"/>
        <path class="cls-3" d="M84.97,79.76v-1.78h-9.65c3.01,1.32,6.45,0,9.65,1.78Z"/>
        <path class="cls-3" d="M431.05,80.48h1v-.33h-1v.33Z"/>
        <path class="cls-3" d="M422.79,75.78l-1.63.39c.03.16.05.32.08.48h1.66c-.04-.29-.07-.58-.11-.86Z"/>
        <path class="cls-3" d="M432.05,77.48h1v-.33h-1v.33Z"/>
        <path class="cls-3" d="M431.72,74.81h-.33v1h.33v-1Z"/>
        <path class="cls-3" d="M435.05,75.15h-1v.33h1v-.33Z"/>
        <path class="cls-3" d="M434.39,78.81h.33v-1h-.33v1Z"/>
        <path class="cls-3" d="M427.06,78.8l-.1-.1c-.27.23-.54.46-.82.7l.32.32c.23-.27.46-.54.7-.82l-.09-.09h1.99c.11.28.22.55.33.83.38-.56.82-1,1.5-1.16h0s0,0,0,0c-1.59-2.23-2.44-2.19-3.82.32Z"/>
        <path class="cls-3" d="M438.89,75.64c-.04-.29-.07-.58-.11-.86-.54.13-1.08.26-1.63.39.03.16.05.32.08.48h1.66Z"/>
        <path class="cls-3" d="M454.89,62.64c-.04-.29-.07-.58-.11-.86-.54.13-1.08.26-1.63.39.03.16.05.32.08.48h1.66Z"/>
        <path class="cls-3" d="M422.05,79.56h2v-.5h-2v.5Z"/>
        <path class="cls-3" d="M425.39,77.81h.33v-1h-.33v1Z"/>
        <path class="cls-3" d="M452.46,50.31c-.59,3.55-1.09,6.51-1.58,9.47,1.7-2.77,2.93-5.62,1.58-9.47Z"/>
        <path class="cls-3" d="M444.05,73.15h-1v.33h1v-.33Z"/>
        <path class="cls-2" d="M455.03,0s-.16,0-.41,0h.41s0,0,0,0Z"/>
        <path class="cls-2" d="M451.16.72c-.07.07-.13.13-.2.2-.27-.23-.54-.46-.82-.7.04-.04.06-.18.1-.22h-2.39c.76.95,1.49,1.93,2.19,2.81-.51,0-1.28,0-1.93,0,.71,3.18,1.52,6.18,3.3,9.2.43-.89.74-1.51,1.31-2.68.2,1.38.33,2.25.48,3.28,3.26.42,2.76,5.77,4.32,8.63-1,.35-1.57.54-2.5.86,2.09,8.6,2.42,17,1.97,25.86-1.59,4.04.6,9.39-2.84,12.17.14-10,3.66-18.26.5-28.27-.97,5.96-.3,11.98-1.06,17.94-1.81-4.84,1.89-14.68-3.29-16.92,4.99,11.27-1.89,21.4-.63,32.65-.6.13-1.62.35-2.61.56.44.78.81,1.44,1.44,2.56-2.39.15-4.44-.34-5.57,2.14-2.81-.32-4.75.06-6.6,2.73-.18-.44-.41-1.01-.59-1.43-2.52.34-4.99.67-7.69,1.03.29.39.53.7.97,1.29-.53.19-.99.35-1.57.55-.25-.73-.45-1.31-.94-2.73-.37,1.39-.62,2.36-.76,2.89-4.55-.57-7.99-1-11.54-1.44-.07.81-.11,1.26-.19,2.07h6.89c-4.63,1.45-7.28,1.33-10.46.07-8.1-2.14-22.54,2.26-27.42-4.02-1.6.47-2.31,3.05-4.72,1.73,1.93-6.6,17.3,1.73,23.64-1.04-5.03-2.33-10.38-1.56-15.79-2.8-.58-1.71,2.1-3.17.44-4.81-.97,1.7-1.96,3.41-3.24,5.65-1.31-1.53-2.25-2.63-3.49-4.09-1.46,4.93-5.39.9-9.11,1.58,1.24,2.1,1.03,2.72-.19,4.85-6.59.31-11.89-1.74-18.99-1.06,7.03,3.57,14.11,1.72,21.5,3.04,1.36.54,2.32,1.35,3.62.11.44.46.87.92,1.82,1.91-82.98-4.96-165.48-4.21-248.49-.06-1.98,2.51-10.37.29-14,1,1.92-2.5,10.41-.29,14-1,14.48-3.19,31.67-.48,46.9-3.66-24.23-2.23-49.01,3.57-72.89,2.06,16.34-2.23,32.65-3.65,48.95-5.98-12.9.13-26.53,1-39.87.59.83,2.93,3.36,1.5,5.63,2.58-4.98.43-9.2.79-13.53,1.16-.13-.85-.27-1.77-.41-2.68-.18,0-.36-.01-.54-.02-.13.85-.25,1.71-.41,2.77h-1.64c.35-2.23.68-4.36,1.01-6.48-3.69,3.12-2.35,10.19-8.6,9.95,1.09.53,1.73.84,2.5,1.21-1.35,1.57-4.44,2.06-6.22.92.84-.14,1.69-.28,2.53-.42-.31-.32-.62-.65-.93-.97.35.32.7.63,1.7,1.54-.44-1.52-.67-2.3-.92-3.15.81-.52,1.83-1.17,3.08-1.97-.59-1.6-1.12-3.05-1.8-4.89-.34,1-.54,1.58-.84,2.46-11.7.63-23.46,1.28-35.27,1-.69-1.9-2.73-3.56-.18-5.79-3.3-.27-6.59,1.13-8.09-2-.41,2.32-2.34,2.06-3.61,3.12-.65-1.06-1.19-1.92-1.95-3.16h5.53c-.31-.53-.05-1.08-.13-2.01h-6.85c1.51-3.06.53-5.94.93-8.98-.71-.06-1.27-.1-1.9-.16.77,3.32.75,5.68-.62,8.76h-2.66c2.31-5.7,1.59-10.52,3.24-16.35-.54-.26-1.29-.62-2.01-.97-.81,5.87.11,13.03-4.67,18.19-.22-1.28-.66-2.13-.42-2.66,3.83-9.11,1.35-18.55.88-27.75-.48-.11-.93-.21-1.66-.37-.16,7.51-.81,13.85-1.39,21.17-1.46-6.99.99-12.79.12-19.93h-1.79c-.07.46-.34,1.22-.18,1.33,2.02,1.37-.03,3.18.52,4.45.57,1.34-1.11,1.68-.63,2.91,1.05,4.76-1.42,8.43-1.04,13.24q-1.16-2.95,0-4.85c.12-5.36.11-10.52.12-15.68,2.22-11.65-.86-23.72.08-35.24-1.65-.64-2.31,2.31-2.5,6.71-.25,7.17.57,17.73.51,23.51,0,.07,0,.13,0,.2,0,.23,0,.44-.01.65,0,.11,0,.23-.01.34,0,.17-.01.32-.02.48,0,.11-.01.23-.02.33-.01.15-.03.29-.04.43,0,.08-.02.17-.03.25-.03.21-.05.4-.09.57-4.8,2.23-3.43,1.14-7.77.25-4.96,0-9.92,0-14.76,0C2.64,41.69-.1,49.59,1.72,57.84c-2.43.71-1.52,2.98-1.66,4.97,2.14.79.85,2.56.93,3.8.48,6.87,2.35,13.22,6.35,19.2,21.02,1.21,42.08-.06,63.05-1.14,41.62-3.13,84.33-6.41,125.25-6.94,66.93-4.56,136.2-.44,203.62,3.08,13.28,1.05,27.04,1.51,40.43,3.83,6.27,1.51,10.82-6.16,14.6-10.29,9.01-14.62,7.93-30.95,7.77-47.53-2.12-.67-.71-2.49-1.14-3.72-3.55-7.56-2.08-16.33-5.88-23.09h-.69c-1.25,0-3.74,0-3.74,0,.18.21.38.51.56.72ZM374.63,73.78c-.13,0-1.36-.07-2.97-.14,1.01-3.45,3.58-5.71,6.35-2.25-.83.59-1.73,1.22-3.39,2.39ZM58.39,78.81h.33v1h-.33v-1ZM58,76.36c-1.18,1.83-2.97,1.23-4.81,1.3-.45-3.4,5.86-6.77,4.81-1.3ZM55.9,79.64h-3.65c-.01-.21-.02-.41-.04-.62,1.2-.08,2.4-.16,3.6-.24.03.29.06.57.08.86ZM55.51,67.63c1.65,4.83-2.52,2.74-5.23,3.18-.08-.32-.17-.64-.25-.96,1.81-.73,3.62-1.46,5.48-2.21ZM53.9,72.98c.1.16.19.31.29.47-.63.18-1.26.36-1.89.55.17.21.35.43.52.64-1.51-.29-3.88.64-4.91-.47.63-.18,1.26-.36,1.89-.55-.17-.21-.35-.43-.52-.64h4.62ZM30.12,78.51c2.49-1.53,6.44-1.16,10.23-2.15-.53,1.49-.81,2.26-1.22,3.39,2.98-.34,1.18-2.31,4.58-3.37.2,1.27.35,2.17.54,3.41h6.65c0,.28-.02.57-.03.85h-18.94c.44-.56.69-.89,1.15-1.48-1.06-.23-2.01-.44-2.97-.66ZM34.86,68.63c.08,1.04.16,1.93.24,3.01-3.09.37-3.95-.5-.24-3.01ZM36.54,73.66c.18.21.36.41.54.62-1.34,1.61-1.4,1.51-4.12,1.38,1.85-1.03,2.72-1.52,3.58-2ZM32.96,73.73h-.01c.23-.28.46-.56.7-.83l.32.32c-.27.23-.54.46-.82.7l-.09-.09v1.78c-1.5.08-3.04.17-4.66.26-.16-.54-.29-.97-.55-1.84,1.81-.11,3.46-.2,5.11-.3ZM40.95,73.72c.23-.27.46-.54.7-.82.11.11.21.21.32.32-.27.23-.54.46-.82.7l-.1-.1c.01.26.03.52.04.78-.64.05-1.27.11-1.91.16l-.09-.65c.63-.12,1.26-.25,1.88-.37l-.02-.02ZM46.14,77.9v-1.93h5.9c-1.52,2.92-3.86,1.44-5.9,1.93ZM49.05,68.96c.37,2.25-1.84,1.93-3.6,3.14-.19-1.07-.35-1.92-.6-3.34,1.79.08,3,.14,4.21.2ZM46.96,73.1c-.84,1.71-2.07,2.11-3.82,1.42.84-1.71,2.07-2.11,3.82-1.42ZM43.65,64.9l.32.32c-.27.23-.54.46-.82.7l-.2-.2c.23-.27.46-.54.7-.82ZM42.59,65.81s0,0,0,0h0c.04.11.08.22.12.34.03.07.05.14.08.22.38,1.06.38.8-.89,1.87.35-1.22.52-1.82.69-2.42ZM43.66,71.41c-1.51.2-2.45.33-3.67.49.67-1.31,1.12-2.19,1.62-3.16.58.76,1.13,1.48,2.05,2.67ZM40.89,65.12c-.72,1.04-.78,3.06-2.33,2.69q-.55-2.93,2.33-2.69ZM38.83,68.58c.1,1.09.18,1.97.28,3.06h-2.99c-.26-1.99.93-2.52,2.71-3.06ZM35.97,64.66v2.94c-.51.1-.95.19-1.73.33-.08-.99-.15-1.89-.23-2.9.63-.12,1.08-.21,1.96-.38ZM35.88,47.01v3.66c-.2,0-.41.02-.61.03-.08-1.23-.17-2.47-.25-3.7.29,0,.58,0,.86.01ZM34.63,51.89c.25,6.81-1.98,13.15-3.74,19.75h-7.22c1.21-2.49,1.33-4.27,4.16-3.7.18,1.04.34,1.95.52,3.01.92-1.36,1.7-2.52,2.52-3.74-.21-4.75,2.85-10.34,3.77-15.33ZM26.59,74.06c-.25.54-.57,1.22-1.18,2.56-.25-1.42-.32-1.86-.44-2.56h1.63ZM24.16,71.9c-.23.27-.46.54-.7.82l-.32-.32c.27-.23.54-.46.82-.7.07.07.13.13.2.2ZM30.36,58.58c1.12-.96.74-2.23.82-3.74q.93,1.66,0,2.81c.01,2.93-.33,5.57-2.43,7.59.4,1.14.49.88-.86,2.04,1.05-4.34.9-6.37,2.48-8.7ZM28.05,59.81c.12-.92.12-1.83.12-2.97q.93,1.66,0,2.81c.35,2.95-1.63,4.17-1.25,7.12q-.93-1.66,0-2.81c.22-1.66-.36-3.09,1.12-4.15ZM24.05,45.15h1v.33h-1v-.33ZM22.05,42.15h1v.33h-1v-.33ZM19.05,42.15h1v.33h-1v-.33ZM14.87,41.98c.03.16.05.32.08.48-.55.13-1.09.26-1.64.39-.03-.29-.07-.58-.1-.87h1.66ZM11.39,38.81h.33v1h-.33v-1ZM8.39,38.81h.33v1h-.33v-1ZM6.05,38.15h1v.33h-1v-.33ZM5.88,41v2.66c-.17.01-.35.03-.52.04-.12-.89-.24-1.78-.36-2.68l.88-.02ZM4.89,44.99v5.82c-1.28-2.65-.54-4.26,0-5.82ZM4.88,70.62c-.21.01-.41.03-.62.04-.08-1.21-.16-2.41-.24-3.62l.86-.07v3.65ZM5.22,74.65v-1.66c.16-.03.32-.05.48-.08.13.54.26,1.08.39,1.63-.29.04-.58.07-.86.11ZM6.72,77.81h-.33v-1h.33v1ZM11.05,83.48h-1v-.33h1v.33ZM16.14,78.92l-.1-.1c-.98,1.42-2.52.97-3.99.99.3.52.61,1.05,1.03,1.77h-5.15c1.39-6.3-2.26-12.97-3.01-19.75-.63.34-1.08.58-1.87,1.01-.77-3.17,1.74-3.82,3.76-5.75-1.25-5.21.47-9.88.36-15.32,2.1,4.64-.93,6.59-.12,10.9.23.02.45.05.68.07.88-3.65,1.76-7.31,2.65-11.02.62.12,1.07.2,1.38.26-.37,4.21-1.04,8.38-1.97,12.5,3.25-2.66.9-7.91,4.82-9.75-.92,2.41-.54,4.73-.03,7.06.6-2.32,1.2-4.64,1.85-7.2,1.92,2.65-1.31,4.78-.1,7.14,2.47-1.83,1.33-4.68,2.53-6.94v6.66c.25.05.5.1.75.15.77-2.23,1.27-4.37,1.71-6.68.42-.03.87-.07,1.52-.12-1.3,2.62-.63,5.3-.74,7.95,1.82-.98.59-3.28,1.85-4.94v7.74c.23.02.46.05.7.07,1.06-4.3,1.31-6.79,1.75-11.82,1.92,7.7-.56,13.67-2.88,19.71-2.14-.37-4.59-.78-7.29-1.24-.08.74-.21,1.95-.35,3.34h-2.58c-.6-2.99,1.81-8.34-2.29-9.54.55,2.97-.81,6.11.93,9.29.58,1.06-.13,2.83-.25,4.28-2.18.15,1.89,2.08-1.09,2.16-2.92-3.41-.81-7.88-1.8-11.86-.41-.05-.86-.1-1.29-.15-1.15,6.29.26,15.23,4.54,19.99.98-1.41,2.51-.99,3.99-1l-.09-.09c.23-.27.46-.54.7-.82h0s0,0,0,0c.11.11.21.21.32.32-.27.23-.54.46-.82.7ZM18.72,64.81v1h-.33v-1h.33ZM10.05,74.56v-.5h3v.5h-3ZM12.05,77.15v.33h-1v-.33h1ZM12.53,68.23c1.53-.22,2.4-.35,3.61-.52-.15.99-.23,1.55-.38,2.5-1.07-.66-1.83-1.12-3.23-1.98ZM14.17,74.12c.89-.12,1.78-.24,2.68-.36l.02.88h-2.66c-.01-.17-.03-.35-.04-.52ZM17.05,71.56h-3v-.5h3v.5ZM17.15,81.4c.27-.23.54-.46.82-.7.07.07.13.13.2.2-.23.27-.46.54-.7.82l-.32-.32ZM19.05,83.48h-1v-.33h1v.33ZM19.88,72.51c-.92-1.87-1.47-2.97-2.15-4.34.83-.17,1.38-.29,2.15-.45v4.79ZM20.72,83.81h-.33v-1h.33v1ZM20.72,81.81h-.33v-1h.33v1ZM20.14,78.92c-.07-.07-.13-.13-.2-.2.23-.27.46-.54.7-.82l.32.32c-.27.23-.54.46-.82.7ZM21.22,67.97c.16-.02.33-.04.49-.07l.36,1.67c-.29.02-.57.04-.86.06v-1.66ZM23.59,74.06c-.25.54-.57,1.22-1.18,2.56-.25-1.42-.32-1.86-.44-2.56h1.63ZM22.96,78.71c.23-.27.46-.54.69-.81l.32.32c-.56.44-1.06.94-1.5,1.5l-.32-.32c.27-.23.54-.46.81-.69ZM22.32,83.85l-.11-.86h1.66c.03.16.05.32.08.48-.54.13-1.08.26-1.63.39ZM26.05,81.56h-3v-.5h3v.5ZM25.46,79.72l-.32-.32c.27-.23.54-.46.82-.7l.1.1c-.01-.26-.03-.52-.04-.78.64-.05,1.27-.11,1.91-.16.03.22.06.43.09.65-.63.12-1.26.25-1.88.37l.02.02c-.23.27-.46.54-.7.82ZM26.21,83.64c2.86-1.22,5.78-.57,8.65,0h-8.65ZM58.88,82.65h-17.65c5.74-1.69,11.77-.52,17.66-.84,0,.28-.01.56-.02.84ZM61.05,81.56c5-.82,10-.82,15,0h-15ZM62.22,78.98h8.39c-3.2,1.65-5.3.54-8.37.83,0-.28-.01-.55-.02-.83ZM77.13,80.5c2.29-1.15,4.61-.34,6.92-.36-2.3.94-4.61.52-6.92.36ZM84.97,79.76c-3.2-1.78-6.64-.47-9.65-1.78h9.65v1.78ZM85.99,80.72c1.24-1.45,1.16-2.12.18-3.69,1-.15,1.91-.29,3-.46-3.29-2.36-8.05.35-11.83.25-3.52.25-7.04-.41-10.61.83-3.81,1.95-5.3-1.9-8.1.5.74-1.85,1.18-2.94,1.67-4.18h33.04c-1.16,1.49-2,3.57-3,3.65-2.21.18-1.68,3.49-4.35,3.1ZM101.9,75.16c.16.96.66,2.26-2.22,1.11.89-.45,1.56-.78,2.22-1.11ZM107.92,78.76c-3.33-.23-6.74.98-10.03.41.62-.16,1.24-.31,1.87-.47-.18-.21-.36-.43-.54-.64h16.84c0,.21.01.42.02.63-2.72.06-5.44.07-8.16.07ZM384.94,77.64c-1.17.54-3.17-.72-5.65-1.41,4.76-.76,8.68-.24,12.6-.04-2.26.96-4.63.37-6.95,1.44ZM416.87,78.81c-8.03.56-15.84-.27-23.66-1.43,7.95-1.71,15.76,1.42,23.69.33,0,.37-.02.74-.03,1.1ZM420.05,79.48h-1v-.33h1v.33ZM421.16,76.17l1.63-.39c.04.29.07.58.11.86h-1.66c-.03-.16-.05-.32-.08-.48ZM424.05,79.56h-2v-.5h2v.5ZM425.72,77.81h-.33v-1h.33v1ZM454.79,61.78c.04.29.07.58.11.86h-1.66c-.03-.16-.05-.32-.08-.48.54-.13,1.08-.26,1.63-.39ZM452.46,50.31c1.35,3.85.12,6.7-1.58,9.47.49-2.96.99-5.92,1.58-9.47ZM443.05,73.15h1v.33h-1v-.33ZM438.79,74.78c.04.29.07.58.11.86h-1.66c-.03-.16-.05-.32-.08-.48.54-.13,1.08-.26,1.63-.39ZM431.39,74.81h.33v1h-.33v-1ZM430.88,78.48c-.68.16-1.12.59-1.5,1.16-.11-.28-.22-.55-.33-.83h-1.99l.09.09c-.23.27-.46.54-.7.82l-.32-.32c.27-.23.54-.46.82-.7l.1.1c1.38-2.51,2.23-2.55,3.82-.32h0,0ZM432.05,80.48h-1v-.33h1v.33ZM433.05,77.48h-1v-.33h1v.33ZM434.05,75.15h1v.33h-1v-.33ZM434.72,78.81h-.33v-1h.33v1ZM438.72,81.81h-.33v-1h.33v1ZM437.08,78.9c-.04.56-.08,1.13-.14,1.9-.7-.05-1.24-.08-1.91-.13.61-.94,1.06-1.65,1.52-2.35.17.16.34.32.51.48-.01-.25-.03-.51-.04-.76.64-.05,1.28-.11,1.92-.16.03.22.05.43.08.65-.65.13-1.3.25-1.94.38ZM441.05,73.56h-2v-.5h2v.5ZM441.16,78.17c.54-.13,1.08-.26,1.63-.39.04.29.07.58.11.86h-1.66c-.03-.16-.05-.32-.08-.48ZM443.05,81.48h-1v-.33h1v.33ZM444.72,79.81h-.33v-1h.33v1ZM445.05,76.56h-2v-.5h2v.5ZM445.72,74.81h-.33v-1h.33v1ZM446.05,70.48h-1v-.33h1v.33ZM448.05,76.48h-1v-.33h1v.33ZM448.72,74.81h-.33v-1h.33v1ZM449.05,71.56h-2v-.5h2v.5ZM449.88,69.63c-.16.03-.32.05-.48.08-.13-.54-.26-1.08-.39-1.63.29-.04.58-.07.86-.11v1.66ZM450.72,71.81h-.33v-1h.33v1ZM450.93,62.78q-.93-1.66,0-2.81v2.81ZM451.72,74.81h-.33v-1h.33v1ZM452.72,69.81h-.33v-1h.33v1ZM454.72,68.81h-.33v-1h.33v1ZM451.29,66.85c-1.05-1.27.61-2.01,1.35-3.29,1.25.73,2.45,1.42,4.19,2.44-2.29,1.19-3.95.63-5.54.85ZM456.88,63.65c-.16.02-.33.04-.49.07-.12-.56-.24-1.11-.36-1.67.29-.02.57-.04.86-.06v1.66ZM459.91,45.13c-1.88,3.38.09,6.53-1.45,9.96-.74,1.24-.46,3.09-.64,4.66-1.57-8.18,1.1-15.51,1.4-24.06,1.38,2.75,1.24,6.88.69,9.44ZM458.89,26.98v3.65c-.21.01-.41.03-.62.04-.08-1.22-.16-2.44-.25-3.65.29-.01.58-.03.87-.04ZM457.89,25.64c-.17.02-.35.03-.52.05-.12-.88-.25-1.77-.37-2.65.3-.02.6-.03.89-.05v2.66ZM454.22,6.98c.21-.01.41-.03.62-.04.08,1.23.17,2.45.25,3.68-.29,0-.58.01-.87.02v-3.65ZM453.3,3.81h.5v2h-.5v-2ZM452.14,1.71c.27.23.54.46.82.7l-.32.32c-.23-.27-.46-.54-.7-.82.07-.07.13-.13.2-.2ZM451.93,8.57c-.16.04-.33.07-.49.11-.55-1.93-1.11-3.85-1.66-5.78,2.92-.14,2.03,3.72,2.15,5.67Z"/>
        <path class="cls-2" d="M30.13.09s0-.06,0-.09h-1.39c-.69,1.13-1.01,3.63-1.12,6.8.19-4.4.85-7.35,2.5-6.71Z"/>
        <path class="cls-2" d="M28.01,33c0-.08.02-.17.03-.25,0,.08-.02.17-.03.25Z"/>
        <path class="cls-2" d="M28.07,32.31c0-.11.01-.22.02-.33,0,.11-.01.23-.02.33Z"/>
        <path class="cls-2" d="M28.14,30.51c0-.07,0-.13,0-.2,0,.07,0,.13,0,.2Z"/>
        <path class="cls-2" d="M28.12,31.5c0-.11,0-.22.01-.34,0,.11,0,.23-.01.34Z"/>
      </g>
    </g>
  </g>
</svg>