<?xml version="1.0" encoding="UTF-8"?>
<svg xmlns="http://www.w3.org/2000/svg" version="1.1" viewBox="0 0 433.9 71.18">
  <defs>
    <style>
      .cls-1 {
        fill: none;
      }

      .cls-2 {
        fill: #4f4730;
      }

      .cls-3 {
        fill: #e1d7be;
      }
    </style>
  </defs>
  <!-- Generator: Adobe Illustrator 28.6.0, SVG Export Plug-In . SVG Version: 1.2.0 Build 709)  -->
  <g>
    <g id="Layer_1">
      <g>
        <path class="cls-3" d="M429.71,70.59c.3-.79.6-1.59.9-2.38,2.07-3.91-2.32-6.31-3.1-9.99-.21,1.27-.53,2.85.11,3.64.14.17.26.34.38.51,1.62,2.42,1.11,5.11,1.33,7.83-.07-.07-.13-.13-.2-.2-.27.23-.54.46-.82.7.11.11.17.39.28.49.23-.27.5-.72,1.12-.59Z"/>
        <path class="cls-3" d="M378.26,33.59h0c.16.12.12.09,0,0Z"/>
        <path class="cls-3" d="M375.31,28.46v1.68c1.33-.09,2.57-.18,4.07-.28-1.25-1.71-2.43-2.26-4.07-1.4Z"/>
        <path class="cls-3" d="M371.32,33.93h3.81v-1.65h-3.81v1.65Z"/>
        <path class="cls-3" d="M380.32,29.93h3.81v-1.65h-3.81v1.65Z"/>
        <path class="cls-3" d="M376.26,31.55v2.51c.74-.36,1.2-.58,1.61-.77.16.12.3.22.4.29.93-.38,1.52-.62,2.08-.85-1.33-1.49-2.46-2.35-4.08-1.19Z"/>
        <path class="cls-3" d="M367.05,26.2h-3.01c.99,1.56,1.75,2.76,2.37,3.74h2.79c-.79-1.36-1.47-2.54-2.16-3.74Z"/>
        <path class="cls-3" d="M383.23,25.35h-3v.5h3v-.5Z"/>
        <path class="cls-3" d="M339.52,27.27h-35.13c9.35,1.3,31.69,1.07,35.13,0Z"/>
        <path class="cls-3" d="M389.23,25.35h-4v.5h4v-.5Z"/>
        <path class="cls-3" d="M374.25,29.91c.04-.22.08-.45.12-.67-1.21-.48-2.42-.95-3.63-1.43-.17.26-.34.52-.52.78.46.46.91.91,1.52,1.52.74-.06,1.62-.14,2.5-.21Z"/>
        <path class="cls-3" d="M367.47,34.18c.7-.14,1.25-.26,1.75-.37v-1.45h-2.12c.15.72.24,1.17.37,1.82Z"/>
        <path class="cls-3" d="M417.23,23.77h1v-.33h-1v.33Z"/>
        <path class="cls-3" d="M422.38,27.27c.03.29.07.58.1.87.55-.13,1.09-.26,1.64-.39-.03-.16-.05-.32-.08-.48h-1.66Z"/>
        <path class="cls-3" d="M423.23,23.11s.07-.07.1-.1c-.23-.27-.46-.54-.7-.82l-.32.32c.27.23.54.46.82.7l.02-.02c.12.63.25,1.26.37,1.88.22-.03.43-.06.65-.09-.05-.64-.11-1.27-.16-1.91-.26.01-.52.03-.78.04Z"/>
        <path class="cls-3" d="M427.98,26.1h-.5v2h.5v-2Z"/>
        <path class="cls-3" d="M420.56,28.1h.33v-1h-.33v1Z"/>
        <path class="cls-3" d="M415.56,24.1h.33v-1h-.33v1Z"/>
        <path class="cls-3" d="M391.89,25.1h-.33v1h.33v-1Z"/>
        <path class="cls-3" d="M171.58,23.1c-5.25.63-10.36-.84-15.56-.98-.06,0-.13.02-.2.05-.2.09-.4.3-.6.43,0,.17,0,.33,0,.51v.6c2.1.46,4.21,1.11,6.37,1.33,2.31.23,4.65.05,6.98.05h6.99c2.33,0,4.83-.53,6.94.15,2.23.72,3.68-.66,5.54-.71-.48-.33-.95-.4-1.41-.44-5.02-.37-10.15.91-15.06-1Z"/>
        <path class="cls-3" d="M411.1,23.88c-1.34,1.33-1.88,1.86-2.02,2-3.41.78-6.26-.18-9.25.89-2.59.93-5.72.4-8.6.51,7.33,1.88,14.5-.24,21.78-.29v-4.08c-6.69.51-13.14,1.01-19.59,1.5,5.56,1.34,11.12.27,17.68-.53Z"/>
        <path class="cls-3" d="M386.41,29.93h3.73v-2.5q-3.76-.29-3.73,2.5Z"/>
        <path class="cls-3" d="M415.56,27.1h.33v-1h-.33v1Z"/>
        <g>
          <path class="cls-1" d="M371.32,33.93h3.81v-1.65h-3.81v1.65Z"/>
          <path class="cls-1" d="M367.05,26.2h-3.01c.99,1.56,1.75,2.76,2.37,3.74h2.79c-.79-1.36-1.47-2.54-2.16-3.74Z"/>
          <path class="cls-1" d="M375.31,28.46v1.68c1.33-.09,2.57-.18,4.07-.28-1.25-1.71-2.43-2.26-4.07-1.4Z"/>
          <path class="cls-1" d="M380.32,29.93h3.81v-1.65h-3.81v1.65Z"/>
          <path class="cls-1" d="M376.26,31.55v2.51c.74-.36,1.2-.58,1.61-.77.16.12.3.22.4.29.93-.38,1.52-.62,2.08-.85-1.33-1.49-2.46-2.35-4.08-1.19Z"/>
          <path class="cls-1" d="M378.26,33.59h0c.16.12.12.09,0,0Z"/>
          <path class="cls-1" d="M367.47,34.18c.7-.14,1.25-.26,1.75-.37v-1.45h-2.12c.15.72.24,1.17.37,1.82Z"/>
          <path class="cls-1" d="M429.71,70.59c.3-.79.6-1.59.9-2.38,2.07-3.91-2.32-6.31-3.1-9.99-.21,1.27-.53,2.85.11,3.64.14.17.26.34.38.51,1.62,2.42,1.11,5.11,1.33,7.83-.07-.07-.13-.13-.2-.2-.27.23-.54.46-.82.7.11.11.17.39.28.49.23-.27.5-.72,1.12-.59Z"/>
          <path class="cls-1" d="M41.82,59.69c-5.32,2.83-10.64,4.96-15.4,8.11,4.77-3.13,10.16-5.32,15.4-8.11Z"/>
          <path class="cls-1" d="M171.58,23.1c-5.25.63-10.36-.84-15.56-.98-.06,0-.13.02-.2.05-.2.09-.4.3-.6.43,0,.17,0,.33,0,.51v.6c2.1.46,4.21,1.11,6.37,1.33,2.31.23,4.65.05,6.98.05h6.99c2.33,0,4.83-.53,6.94.15,2.23.72,3.68-.66,5.54-.71-.48-.33-.95-.4-1.41-.44-5.02-.37-10.15.91-15.06-1Z"/>
          <path class="cls-1" d="M383.23,25.35h-3v.5h3v-.5Z"/>
          <path class="cls-1" d="M339.52,27.27h-35.13c9.35,1.3,31.69,1.07,35.13,0Z"/>
          <path class="cls-1" d="M374.25,29.91c.04-.22.08-.45.12-.67-1.21-.48-2.42-.95-3.63-1.43-.17.26-.34.52-.52.78.46.46.91.91,1.52,1.52.74-.06,1.62-.14,2.5-.21Z"/>
          <path class="cls-1" d="M422.38,27.27c.03.29.07.58.1.87.55-.13,1.09-.26,1.64-.39-.03-.16-.05-.32-.08-.48h-1.66Z"/>
          <path class="cls-1" d="M420.56,28.1h.33v-1h-.33v1Z"/>
          <path class="cls-1" d="M423.23,23.11s.07-.07.1-.1c-.23-.27-.46-.54-.7-.82l-.32.32c.27.23.54.46.82.7l.02-.02c.12.63.25,1.26.37,1.88.22-.03.43-.06.65-.09-.05-.64-.11-1.27-.16-1.91-.26.01-.52.03-.78.04Z"/>
          <path class="cls-1" d="M427.98,26.1h-.5v2h.5v-2Z"/>
          <path class="cls-1" d="M417.23,23.77h1v-.33h-1v.33Z"/>
          <path class="cls-1" d="M415.56,24.1h.33v-1h-.33v1Z"/>
          <path class="cls-1" d="M391.89,25.1h-.33v1h.33v-1Z"/>
          <path class="cls-1" d="M386.41,29.93h3.73v-2.5q-3.76-.29-3.73,2.5Z"/>
          <path class="cls-1" d="M411.1,23.88c-1.34,1.33-1.88,1.86-2.02,2-3.41.78-6.26-.18-9.25.89-2.59.93-5.72.4-8.6.51,7.33,1.88,14.5-.24,21.78-.29v-4.08c-6.69.51-13.14,1.01-19.59,1.5,5.56,1.34,11.12.27,17.68-.53Z"/>
          <path class="cls-1" d="M415.56,27.1h.33v-1h-.33v1Z"/>
          <path class="cls-1" d="M389.23,25.35h-4v.5h4v-.5Z"/>
          <path class="cls-3" d="M17.56,32.1v1h.33v-1h-.33Z"/>
          <path class="cls-3" d="M16.13,51.51l-.32-.32c-.23.27-.46.54-.7.82l.2.2c.27-.23.54-.46.82-.7Z"/>
          <path class="cls-3" d="M15.28,56.46c-1.92-.78-3.12-.31-3.96,1.29,1.65.79,2.83.29,3.96-1.29Z"/>
          <path class="cls-3" d="M10.09,41.18c.16.87.24,1.31.36,1.94.53-.8.93-1.41,1.28-1.94h-1.64Z"/>
          <path class="cls-3" d="M15.91,47.24c-.17.02-.34.04-.51.05v2.66c.3-.03.59-.06.89-.09-.13-.87-.25-1.75-.38-2.62Z"/>
          <path class="cls-3" d="M18.06,36.94v-1.66c-.29.01-.57.03-.86.04.12.56.25,1.12.37,1.69.16-.02.33-.04.49-.07Z"/>
          <path class="cls-3" d="M10.98,45.1h-.5v2h.5v-2Z"/>
          <path class="cls-3" d="M17.15,28.54c.1.52.18.96.28,1.47h1.78c.09-2.23-.74-2.25-2.06-1.47Z"/>
          <path class="cls-3" d="M12.23,8.43h-1v.33h1v-.33Z"/>
          <path class="cls-3" d="M10.48,51.1h.5v-2h-.5v2Z"/>
          <path class="cls-3" d="M9.07,56.52c.77-.68,1.14-.88,1.12-1.02-.07-.48-.28-.94-.43-1.4-.17.6-.34,1.21-.69,2.42Z"/>
          <path class="cls-3" d="M13.89,5.1h-.33v1h.33v-1Z"/>
          <path class="cls-3" d="M14.89,11.1h-.33v1h.33v-1Z"/>
          <path class="cls-3" d="M17.48,20.83c-.77-.74-1.28-1.25-2.54-2.47.35,1.68.47,2.23.6,2.84.66-.13,1.1-.21,1.94-.37Z"/>
          <path class="cls-3" d="M13.98,14.1h-.5v2h.5v-2Z"/>
          <path class="cls-3" d="M15.89,8.1h-.33v1h.33v-1Z"/>
          <path class="cls-3" d="M18.56,25.1v1h.33v-1h-.33Z"/>
          <path class="cls-3" d="M10.31,23.27v2.52c1.37-1.01,2.14-1.57,3.42-2.52h-3.42Z"/>
          <path class="cls-3" d="M19.32,43.2c.27-.23.54-.46.81-.69l-.32-.32c-.23.27-.46.54-.69.81-.27.23-.54.46-.81.69l.32.32c.23-.27.46-.54.69-.81Z"/>
          <path class="cls-3" d="M19.89,39.1h-.33v1h.33v-1Z"/>
          <path class="cls-3" d="M19.23,36.77h1v-.33h-1v.33Z"/>
          <path class="cls-3" d="M20.03,46.1h-1.55v3.12c.72-.15,1.17-.24,1.79-.36-.09-1.02-.17-1.91-.24-2.76Z"/>
          <path class="cls-3" d="M20.07,22.93c-.04-.29-.07-.58-.11-.86-.54.13-1.08.26-1.63.39.03.16.05.32.08.48h1.66Z"/>
          <path class="cls-3" d="M11.13,53.51l-.32-.32c-.23.27-.46.54-.7.82l.2.2c.27-.23.54-.46.82-.7Z"/>
          <path class="cls-3" d="M24.89,47.1h-.33v1h.33v-1Z"/>
          <path class="cls-3" d="M30.89,56.1h-.33v1h.33v-1Z"/>
          <path class="cls-3" d="M34.23,56.43h-1v.33h1v-.33Z"/>
          <path class="cls-3" d="M16.89,44.1v-1h-.33v1h.33Z"/>
          <path class="cls-3" d="M10.46,28.12c1.02-.6,1.85-1.09,3.15-1.85h-3.42c.11.72.19,1.27.28,1.85Z"/>
          <path class="cls-3" d="M37.07,56.93c-.04-.29-.07-.58-.11-.86-.54.13-1.08.26-1.63.39.03.16.05.32.08.48h1.66Z"/>
          <path class="cls-3" d="M17.23,40.43h-1v.33h1v-.33Z"/>
          <path class="cls-3" d="M427.09,70.51c.36-1.41,1.16-2.96,1.03-4.42-.15-1.56-1.11-3.1-2.92-3.53,1.21-5.81,1.51-18.62.51-19.41-.37.33-.73.65-.82.73-3.49-.62-6.72-1.24-9.97-1.76-.77-.12-1.66-.04-2.4.21-2.53.88-5.04,1.7-7.76,1.8-1.04.04-2.05.65-3.09.94-1.05.3-2.41-.69-3.36.87,2.55.23,4.8.17,7.17-.77,2.19-.87,4.75.63,7.17-.83,1.14-.69,3.04-.12,4.78-.12-.26.92-.38,1.36-.48,1.72-3.31.6-6.48-.15-9.75.97-3.03,1.04-6.62-.42-9.85.79-.16-.57-.31-1.13-.51-1.85-3.29,1.87-6.46,1.15-9.61,1.11v-1.88c5.67-1.83,11.32-3.69,17-5.48,1.9-.6,3.88-.97,5.79-1.53,2.05-.61,4.09-1.26,6.08-2.02.77-.29,1.42-.93,2.95-1.97h-2.82c.47-1.93,2.02-.62,3-1,1.27,1.35,2.73,1.35,4,0h2.5c-.22-.22-.43-.43-.65-.65.85-.85,1.69-1.7,2.31-2.31-2.94-.34-6.53.7-9.75-1.16-.38.91-.6,1.46-1.07,2.59-.32-1.67-.49-2.58-.68-3.62-4.36.39-8.55.78-12.74,1.14-1.58.14-3.1.49-4.62.81-2.93.62-5.88,1.79-9.05,1.26-1.18-.2-2.68-.59-3.63.82-.98-1.11-2.29-.89-3.53-.85-.4.01-.78.33-1.24.54.22.59.38,1.03.53,1.43,3.6,0,7.11.14,10.59-.04,3.3-.17,6.58-.67,9.87-1.02-2.28,1.2-4.67,1.79-7.08,2.01-2.55.23-5.1.65-7.59.87-6.82.61-13.69.35-20.57.99-8.26.77-16.64.19-24.97.17-.57,0-1.13-.21-1.83-.34.25-.76.4-1.2.59-1.77h24.5v-1.67c-.5-.07-.96-.22-1.41-.18-5.69.39-11.35-.28-17.11.79-5.15.95-10.61.2-15.57.2-1.11-.63-1.92-1.08-2.91-1.64.56-.24.71-.35.85-.35,11.33,0,22.65,0,33.98,0,.17,0,.34.02.5,0,.15-.02.3-.08.43-.16.14-.08.25-.21.42-.36-.16-1.92-1.87-2.47-2.95-3.89-.73.62-1.22,1.38-1.67,1.36-3.59-.16-7.09.9-10.58.96-15.32.24-30.64.1-45.97.08-.27,0-.55-.27-.79-.39-.1-.48-.2-.93-.29-1.35h-24.8c2.2,1,4.49.65,6.74.76,2.41.11,4.85-.23,8.26.37-5.83.88-38.44.8-41.95-.16,2.27-.21,4.55-.15,6.83-.23,2.38-.09,4.82.38,7.33-.31-.28-.81-.44-1.24-.61-1.75-3.59.57-7.28-.89-10.14.78-2-.28-3.54-.67-5.09-.67-10.66-.05-21.32-.03-31.98-.03-1.17,0-2.45.32-3.48-.06-4.11-1.51-8.16-1.42-12.25-.11-1.1-1.35-2.63.08-3.41-.28-2.46-1.15-4.76-.18-7.19-.06.61.32,1.22.64,2.88,1.5-7.35,0-13.5-.29-19.62.08-6.14.37-12.15-2.26-18.12-.81.29.97.53,1.76.85,2.82-.97-.13-1.42-.2-1.57-.22-.6-2.47-1.14-4.71-1.62-6.66h-2.95c1.84,2.45,2.71,4.87,1.64,7.91-.28-.42-.46-.9-.59-1.38-.16-.6-.26-1.22-.43-1.78-.24-.8-.62-1.5-1.5-1.94.04-.31.04-.58,0-.83-.11-1.07-.97-1.68-1.75-2.36-.14-.12-.27-.25-.4-.38,0,0,0,0,0,0-.14-.15-.27-.3-.39-.46-5.71.52-11.28-1.77-17.03-.98-.16.02-.39.07-.49,0-2.18-1.66-4.71-.73-7.08-1-2.37-.27-4.73-1-7.08-.91-4.59.16-8.97-1.85-13.57-1.08-.16.03-.39.07-.49,0-2.73-2.19-6.43.1-9.17-1.99-3.29.65-6.31-1.2-9.58-1.06-1.18.05-2.37-.74-3.58-.9-1.3-.18-2.95.42-3.91-.18-2.53-1.57-4.98-.56-7.22-.78-.32.89-.5,1.38-.97,2.69-.27-1.83-.4-2.75-.53-3.67h-2.87v4.81c-1.19-2.1-1.46-4.51-3.32-5.76-2.26-.53-4.41.45-6.41-1.05-.25-.19-.9-.45-1.52-.42-.64.01-1.29.3-1.62,1.16-1.73-.67-3.16-1.35-4.73-2.1-.19.78-.3,1.23-.42,1.73.74.34,1.41.66,2.17,1.02-.77.37-1.45.7-2.04.99v2.06c.85.44,1.69.87,2.47,1.27,1.74.52,3.64-.25,5.31.87-2.61.09-5.22.92-7.76-.59-.05,1.13-.09,1.92-.12,2.7-1.24-1.73-2.11-3.67-4.74-2.53-.16.89-.32,1.81-.68,3.83-.42-2.12-.62-3.14-.78-3.92h-2.56c-.19.73-.34,1.26-.5,1.86-.8-1.14-1.45-2.09-2.16-3.11-.68.73-1.12,1.2-1.56,1.67.21,4.26-.46,8.53,1.02,12.64.06.16-.32.48-.4.61-.85-.43-1.67-.86-2.99-1.54,1.63-2.34,2.05-5.25,1.28-7.75-1.04-3.4-.66-6.74-.87-9.71-.59-1.14-1.01-1.97-1.47-2.87-.43.06-.88.13-1.75.25.48,1,1.15,1.77,1.18,2.56.12,3.66.73,7.49-.14,10.93-.87,3.43-.52,6.68-.86,9.95,4.07.93,3.62,4.52,5.18,7.07v-7.74c1.07,4.28,1.17,8.51-.28,12.81,4.1.51,7.52,2.54,11.43,2.19,1.51,1.81,3.69.61,5.49,1.22,3.95,1.34,7.95,2.49,11.91,3.8,1.84.61,3.62,1.41,5.43,2.12.03.38.05.76.08,1.13-6.96,1.58-13.81,3.38-20.19,6.66-6.37,3.28-13.08,5.92-19.12,9.92.23.36.62.89.84,1.23h398.44c.23-.17.49-.51.71-.67Z"/>
          <path class="cls-3" d="M39.98,55.02c-.7.15-1.25.26-1.75.37v1.45h2.12c-.15-.72-.24-1.17-.37-1.82Z"/>
          <path class="cls-3" d="M42.23,56.43h-1v.33h1v-.33Z"/>
          <path class="cls-3" d="M46.13,56.27h-3.72c1.79.81,2.7,1.22,3.72,1.68v-1.68Z"/>
          <path class="cls-3" d="M16.37,27.02c-.16-.87-.24-1.31-.36-1.94-.53.8-.93,1.41-1.28,1.94h1.64Z"/>
          <path class="cls-3" d="M13.48,44.1v2h.5v-2h-.5Z"/>
          <path class="cls-3" d="M12.96,32.81c-1.68.35-2.23.47-2.84.6.13.66.21,1.1.37,1.94.76-.78,1.25-1.28,2.47-2.54Z"/>
          <path class="cls-3" d="M10.4,36.12v2.89h1.65c-.09-1.23,1.14-2.98-1.65-2.89Z"/>
          <path class="cls-3" d="M14.56,34.01c.16-.02.33-.04.49-.07v-1.66c-.29.01-.57.03-.86.04.12.56.25,1.12.37,1.69Z"/>
          <path class="cls-3" d="M17.23,23.35h-2v.5h2v-.5Z"/>
          <path class="cls-3" d="M15.14,38.2v-3.67c-1.02,1.24-1.59,1.93-2.51,3.05,1.11.28,1.72.43,2.51.62Z"/>
          <path class="cls-3" d="M13.64,41.81c.49-.31,1.11-.69,2.11-1.32q-2.43-.19-2.11,1.32Z"/>
          <path class="cls-3" d="M14.64,31.63c.86-1.4,1.32-2.16,1.98-3.23-.95-.14-1.5-.23-2.5-.38.17,1.21.3,2.08.52,3.61Z"/>
          <path class="cls-3" d="M14.05,46.6c-.94,1.28-1.51,2.04-2.31,3.12.99.2,1.54.31,2.31.46v-3.58Z"/>
          <path class="cls-3" d="M12.4,54.91c.29,0,.59-.01.88-.02-.12-.89-.24-1.78-.36-2.68-.17.01-.35.03-.52.04v2.66Z"/>
          <path class="cls-3" d="M15.19,53.5c-.07-.48-.28-.94-.43-1.4-.17.6-.34,1.21-.69,2.42.77-.68,1.14-.88,1.12-1.02Z"/>
          <path class="cls-3" d="M13.56,29.17c-2.51-.18-3.12.9-3.61,3.24,1.33-1.02,2.46-2.02,3.61-3.24Z"/>
          <path class="cls-3" d="M6.39,45.01h1.59c.6-1.71.31-2.98-1.59-3.87v3.87Z"/>
          <path class="cls-3" d="M14.93,59.3c-4.2.2-5.53.88-6.61,3.39q4.98-1.56,6.61-3.39Z"/>
          <path class="cls-3" d="M8.66,58.73c-1.21-.55-1.87-.85-3.02-1.38,1.19-.95,2-1.59,3.18-2.53-.29-.13-.55-.24-.78-.35-.7-.31-1.2-.53-1.69-.75.71-.96,1.41-1.93,2.19-3-1.87-1.34-2.47.16-3.27.89-.34,2.82.57,5.67-1.22,9.14,1.91-.84,3.07-1.35,4.6-2.02Z"/>
          <path class="cls-3" d="M3.17,65.26c.12.74.22,1.3.26,1.57,1.33-.39,2.48-.73,3.62-1.06,0-.17,0-.34,0-.51h-3.89Z"/>
          <path class="cls-3" d="M5.68,62.08c-.46.25-1.02.3-1.67.48.3.75.47,1.17.67,1.68,1.56-.37,2.7-.95,2.45-3.44-.64.59-.99,1.03-1.45,1.28Z"/>
          <path class="cls-3" d="M42.42,10.16c-.54-.31-1.47.07-2.19.13v2.33c.88.43,1.78.87,2.87,1.4-.09-1.42.94-2.93-.68-3.87Z"/>
          <path class="cls-3" d="M6.49,45.19v3.03c.72-.15,1.17-.24,2.12-.43-.68-.84-1.13-1.39-2.12-2.6Z"/>
          <path class="cls-3" d="M14.93,20.27h-3.79c.15.76.26,1.31.35,1.77.99-.51,1.78-.92,3.44-1.77Z"/>
          <path class="cls-3" d="M7.91,30.6c-.37.3-.92.76-1.34,1.1q1.46.3,1.34-1.1Z"/>
          <path class="cls-3" d="M10.12,16.96c.05-.63.09-1.2.14-1.81l.06.06c.27-.23.54-.46.82-.7l-.32-.32c-.23.27-.46.54-.7.82l.06.06c-.61.05-1.19.09-1.97.15.08.73.14,1.28.21,1.88.67-.06,1.1-.09,1.7-.14Z"/>
          <path class="cls-3" d="M6.48,40.22c.72-.14,1.17-.23,1.67-.33v-5.94c-.89.17-1.34.26-1.67.33v5.94Z"/>
          <path class="cls-3" d="M9.23,27.66c0-.97.07-1.81-.02-2.63-.07-.64-.5-1.27-.48-1.89.03-.93.4-1.84.48-2.77.06-.76-.09-1.53-.18-2.58l-1.58,1.58c-.48,3.25-.94,6.35-1.39,9.45.36.17.73.35,1.09.52.72-.58,1.43-1.17,2.08-1.7Z"/>
          <path class="cls-3" d="M11.89,13.1v-1h-.33v1h.33Z"/>
          <path class="cls-3" d="M39.06,13.51v-4.45c-1.06.07-1.95.14-2.86.2q.32,2.48,2.86,4.25Z"/>
          <path class="cls-3" d="M28.63,5.13c-.48.07-.94.28-1.4.43.6.17,1.21.34,2.42.69-.68-.77-.88-1.14-1.02-1.12Z"/>
          <path class="cls-3" d="M32.58,13.01h2.47v-4.68h-3.89c.51,1.69.96,3.14,1.42,4.68Z"/>
          <path class="cls-3" d="M41.23,7.43h-1v.33h1v-.33Z"/>
          <path class="cls-3" d="M43.23,8.43h-1v.33h1v-.33Z"/>
          <path class="cls-3" d="M11.16,63.8c2.68,1.09,4.66-1.43,7.81-.75-.95-1.39-1.39-2.02-1.91-2.78-2.04,1.22-3.9,2.33-5.9,3.53Z"/>
          <path class="cls-3" d="M26.63,4.19l-.32.32c.27.23.54.46.82.7.07-.07.13-.13.2-.2-.23-.27-.46-.54-.7-.82Z"/>
          <path class="cls-3" d="M22.56,54.1h.33v-1h-.33v1Z"/>
          <path class="cls-3" d="M20.12,54.01l.1.1c-1.55,0-3.21-.35-3.79,1.69,1.79.67-2.14,3,1.25,3.33.82-1.59,1.69-3.28,2.58-4.98l.06.06c.27-.23.54-.46.82-.7l-.32-.32c-.23.27-.46.54-.7.82Z"/>
          <path class="cls-3" d="M23.51,49.9c-1.69.51-3.16.2-4.9.2.17.21.34.42.51.63-.8.29-1.59.59-2.39.88.22.48.44.97.67,1.45,2.07-.75,4.14-1.36,6.27-1.92,2.41,1.21,4.2.95,4.39-.52-.47-.58-.88-1.07-1.31-1.6-.71,1.24-2.12.53-3.24.87Z"/>
          <path class="cls-3" d="M29.07,59.03v-5.84h-2.03c.66,1.89,1.17,3.35,2.03,5.84Z"/>
          <path class="cls-2" d="M431.84,60.38c-1.39-2.26-1.62-4.44-1.62-6.85.01-3.99,0-7.98,0-12.15-.89-.56-1.81-1.14-2.91-1.83v-5.05c1.02-1.02,1.97-1.96,2.91-2.89v-9.67c-.58-1.11-1-1.93-1.51-2.92-1.61.35-3.27.88-4.96,1.05-4.35.43-8.69-.21-13.13.85-4.01.95-8.34.15-12.57,1.05-3.74.8-7.68.22-11.59.95-4.35.81-8.99.48-13.46.1-4.48-.38-8.68,1.19-13.09,1.12-8.66-.13-17.33-.04-26-.04h-51.5c-8.67,0-17.34-.27-26,.08-8.58.34-17.05-.93-25.59-1.14-8.86-.22-17.7.57-26.61-.76-7.57-1.13-15.38.36-23.07-1.09-4.11-.77-8.35.06-12.61-.9-4.02-.91-8.36-.08-12.57-1.08-2.92-.7-6.04.16-9.11-.97-1.91-.7-4.3,0-6.45-.17-2.04-.16-4.05-.77-6.09-.93-5.19-.42-10.39-.69-15.58-1.03-.17-.01-.38.07-.49-.01-2.53-1.73-5.38-.88-8.09-.95-2.75-.07-5.22-1.39-8.09-1.16-3,.25-5.95-1.47-9.08-.89-1.8-1.72-4.28-.28-6.02-1.14-1.61-.8-3.09-.67-4.65-.89-1.55-.21-3.05-.75-4.59-.95-3.19-.41-6.58-.15-9.52-1.19-2.46-.87-4.94-.17-7.09-.98-1.59-.6-3.07-.68-4.64-.88-1.71-.21-3.38-.74-5.09-.95-2.05-.24-4.05.04-6.14-.88-1.77-.77-3.99-.45-6.07-.95-2.72-.65-5.5-1.18-8.23-1.91-2.7-.73-5.45-1.18-8.14-2.06-2.04-.67-4.29-.23-6.55.67-4.09,1.62-5.88,5.13-7.98,8.38-3.71,5.72-4.06,12.44-4.96,18.91-.47,3.43-.21,6.99-.06,10.49.32,7.23-.43,14.4-1.04,21.58-.05.6-.39,1.18-.51,1.78-.56,2.9-1.09,5.8-1.7,9.05,6.57-3.4,13.31-4.53,19.41-6.65,1.88-3.01,1.43-7.11,5.31-8.57.71,1.5,1.3,2.76,1.93,4.1,4.79.57,9.58-2.18,15.18-.37-5.24,2.79-10.62,4.99-15.4,8.11-1.44.96-2.84,2.01-4.16,3.21h5.51c-.22-.35-.45-.7-.69-1.06,6.04-3.99,12.74-6.64,19.12-9.92,6.37-3.28,13.22-5.08,20.19-6.66-.03-.38-.05-.76-.08-1.13-1.81-.71-3.59-1.51-5.43-2.12-3.96-1.31-7.96-2.46-11.91-3.8-1.8-.61-3.98.6-5.49-1.22-3.91.36-7.33-1.68-11.43-2.19,1.45-4.3,1.35-8.54.28-12.81v7.74c-1.55-2.54-1.11-6.13-5.18-7.07.35-3.27,0-6.52.86-9.95.87-3.44.26-7.28.14-10.93-.02-.79-.7-1.56-1.18-2.56.87-.12,1.32-.19,1.75-.25.46.9.89,1.72,1.47,2.87.2,2.98-.18,6.32.87,9.71.77,2.5.35,5.42-1.28,7.75,1.32.68,2.14,1.1,2.99,1.54.09-.12.46-.44.4-.61-1.48-4.11-.81-8.38-1.02-12.64.44-.47.88-.94,1.56-1.67.71,1.02,1.37,1.96,2.16,3.11.16-.6.3-1.13.5-1.86h2.56c.16.78.36,1.81.78,3.92.36-2.02.52-2.94.68-3.83,2.63-1.14,3.5.81,4.74,2.53.04-.79.07-1.58.12-2.7,2.54,1.5,5.15.67,7.76.59-1.67-1.12-3.57-.35-5.31-.87-.78-.4-1.62-.83-2.47-1.27v-2.06c.59-.29,1.27-.61,2.04-.99-.76-.36-1.44-.67-2.17-1.02.12-.5.23-.95.42-1.73,1.57.75,2.99,1.43,4.73,2.1.33-.87.99-1.15,1.62-1.16.62-.03,1.27.24,1.52.42,2,1.5,4.14.52,6.41,1.05,1.86,1.25,2.13,3.66,3.32,5.76v-4.81h2.87c.13.92.27,1.84.53,3.67.47-1.31.65-1.8.97-2.69,2.24.22,4.69-.79,7.22.78.96.6,2.61,0,3.91.18,1.22.16,2.41.95,3.58.9,3.27-.14,6.28,1.71,9.58,1.06,2.74,2.09,6.44-.2,9.17,1.99.1.08.33.03.49,0,4.61-.77,8.99,1.24,13.57,1.08,2.34-.08,4.71.64,7.08.91,2.37.27,4.9-.66,7.08,1,.11.08.33.03.49,0,5.75-.78,11.32,1.51,17.03.98.11.16.25.32.39.46,0,0,0,0,0,0,.13.13.26.25.4.38.77.68,1.63,1.29,1.75,2.36.04.25.05.53,0,.83.88.43,1.26,1.14,1.5,1.94.17.56.27,1.17.43,1.78.13.48.3.95.59,1.38,1.07-3.04.21-5.46-1.64-7.91h2.95c.47,1.95,1.02,4.2,1.62,6.66.14.02.6.08,1.57.22-.32-1.06-.56-1.85-.85-2.82,5.97-1.45,11.98,1.18,18.12.81,6.11-.37,12.26-.08,19.62-.08-1.65-.87-2.27-1.18-2.88-1.5,2.42-.12,4.73-1.09,7.19.06.78.36,2.31-1.07,3.41.28,4.1-1.31,8.15-1.41,12.25.11,1.03.38,2.31.06,3.48.06,10.66,0,21.32-.03,31.98.03,1.54,0,3.09.4,5.09.67,2.87-1.68,6.55-.21,10.14-.78.18.5.33.94.61,1.75-2.51.69-4.95.23-7.33.31-2.28.08-4.56.02-6.83.23,3.52.96,36.12,1.05,41.95.16-3.4-.6-5.85-.26-8.26-.37-2.25-.11-4.53.24-6.74-.76h24.8c.09.42.18.87.29,1.35.24.13.52.39.79.39,15.32.02,30.65.15,45.97-.08,3.5-.05,7-1.12,10.58-.96.45.02.94-.74,1.67-1.36,1.09,1.42,2.8,1.97,2.95,3.89-.17.15-.28.28-.42.36-.13.08-.28.13-.43.16-.16.03-.33,0-.5,0-11.33,0-22.65,0-33.98,0-.14,0-.28.11-.85.35.99.56,1.8,1.01,2.91,1.64,4.96,0,10.42.75,15.57-.2,5.76-1.07,11.42-.39,17.11-.79.45-.03.91.11,1.41.18v1.67h-24.5c-.19.57-.34,1.01-.59,1.77.69.14,1.26.34,1.83.34,8.33.02,16.71.6,24.97-.17,6.88-.64,13.75-.38,20.57-.99,2.5-.22,5.04-.64,7.59-.87,2.42-.22,4.8-.81,7.08-2.01-3.29.35-6.57.85-9.87,1.02-3.49.18-6.99.04-10.59.04-.15-.41-.31-.84-.53-1.43.46-.21.84-.53,1.24-.54,1.24-.04,2.55-.26,3.53.85.94-1.41,2.44-1.02,3.63-.82,3.17.54,6.12-.64,9.05-1.26,1.52-.32,3.05-.67,4.62-.81,4.19-.36,8.38-.75,12.74-1.14.19,1.03.37,1.95.68,3.62.47-1.13.69-1.68,1.07-2.59,3.21,1.86,6.81.82,9.75,1.16-.62.62-1.46,1.47-2.31,2.31.22.22.43.43.65.65h-2.5c-1.27,1.35-2.73,1.35-4,0-.98.38-2.53-.93-3,1h2.82c-1.53,1.04-2.17,1.68-2.95,1.97-2,.76-4.03,1.41-6.08,2.02-1.91.57-3.89.93-5.79,1.53-5.68,1.79-11.34,3.65-17,5.48v1.88c3.16.04,6.33.76,9.61-1.11.2.72.36,1.28.51,1.85,3.24-1.21,6.82.26,9.85-.79,3.27-1.13,6.44-.38,9.75-.97.1-.35.22-.8.48-1.72-1.74,0-3.64-.57-4.78.12-2.42,1.46-4.98-.04-7.17.83-2.37.94-4.62,1.01-7.17.77.95-1.56,2.31-.57,3.36-.87,1.04-.3,2.05-.91,3.09-.94,2.73-.1,5.24-.92,7.76-1.8.74-.26,1.62-.34,2.4-.21,3.25.51,6.48,1.13,9.97,1.76.09-.08.46-.41.82-.73,1.01.79.7,13.6-.51,19.41,1.81.44,2.77,1.97,2.92,3.53.14,1.46-.66,3.01-1.03,4.42-.23.17-.49.51-.71.67h2.22c-.11-.11-.17-.39-.28-.49.27-.23.54-.46.82-.7.07.07.13.13.2.2-.21-2.71.3-5.41-1.33-7.83-.11-.17-.24-.34-.38-.51-.64-.79-.32-2.37-.11-3.64.77,3.68,5.17,6.08,3.1,9.99-.3.79-.6,1.59-.9,2.38-.62-.13-.88.32-1.12.59h4.28s.03-.02.04-.03c1.33-6.08,1.61-6.4-1.07-10.78ZM46.13,56.27v1.68c-1.02-.46-1.93-.87-3.72-1.68h3.72ZM41.23,56.43h1v.33h-1v-.33ZM38.23,55.39c.51-.11,1.06-.22,1.75-.37.13.65.22,1.09.37,1.82h-2.12v-1.45ZM36.96,56.07c.04.29.07.58.11.86h-1.66c-.03-.16-.05-.32-.08-.48.54-.13,1.08-.26,1.63-.39ZM33.23,56.43h1v.33h-1v-.33ZM30.56,56.1h.33v1h-.33v-1ZM24.56,47.1h.33v1h-.33v-1ZM16.23,40.77v-.33h1v.33h-1ZM16.89,43.1v1h-.33v-1h.33ZM16.01,25.08c.12.63.2,1.07.36,1.94h-1.64c.35-.53.76-1.14,1.28-1.94ZM15.23,23.85v-.5h2v.5h-2ZM16.62,28.39c-.66,1.07-1.12,1.83-1.98,3.23-.22-1.53-.35-2.4-.52-3.61.99.15,1.55.23,2.5.38ZM13.64,41.81q-.32-1.51,2.11-1.32c-1,.62-1.62,1.01-2.11,1.32ZM14.76,52.1c.16.47.36.92.43,1.4.02.14-.36.34-1.12,1.02.35-1.22.52-1.82.69-2.42ZM11.75,49.72c.8-1.08,1.36-1.85,2.31-3.12v3.58c-.77-.15-1.32-.26-2.31-.46ZM13.28,54.89c-.29,0-.59.01-.88.02v-2.66c.17-.01.35-.03.52-.04.12.89.24,1.78.36,2.68ZM10.4,36.12c2.8-.09,1.57,1.66,1.65,2.89h-1.65v-2.89ZM10.12,33.41c.61-.13,1.16-.24,2.84-.6-1.22,1.26-1.71,1.76-2.47,2.54-.16-.84-.24-1.28-.37-1.94ZM13.48,46.1v-2h.5v2h-.5ZM15.06,32.28v1.66c-.16.02-.33.04-.49.07-.12-.56-.25-1.12-.37-1.69.29-.01.57-.03.86-.04ZM15.14,34.53v3.67c-.79-.19-1.39-.34-2.51-.62.92-1.12,1.49-1.81,2.51-3.05ZM13.61,26.27c-1.3.76-2.12,1.25-3.15,1.85-.09-.58-.17-1.13-.28-1.85h3.42ZM10.31,25.79v-2.52h3.42c-1.29.95-2.06,1.51-3.42,2.52ZM13.56,29.17c-1.15,1.22-2.28,2.22-3.61,3.24.49-2.34,1.1-3.43,3.61-3.24ZM10.12,54.01c.23-.27.46-.54.7-.82l.32.32c-.27.23-.54.46-.82.7l-.2-.2ZM10.19,55.5c.02.14-.36.34-1.12,1.02.35-1.22.52-1.82.69-2.42.16.47.36.92.43,1.4ZM10.98,49.1v2h-.5v-2h.5ZM10.48,47.1v-2h.5v2h-.5ZM10.44,43.12c-.12-.63-.2-1.07-.36-1.94h1.64c-.35.53-.76,1.14-1.28,1.94ZM15.28,56.46c-1.13,1.59-2.31,2.08-3.96,1.29.84-1.6,2.04-2.07,3.96-1.29ZM15.12,52.01c.23-.27.46-.54.7-.82l.32.32c-.27.23-.54.46-.82.7l-.2-.2ZM15.4,49.94v-2.66c.17-.02.34-.04.51-.05.13.87.25,1.75.38,2.62-.3.03-.59.06-.89.09ZM17.2,35.32c.29-.01.57-.03.86-.04v1.66c-.16.02-.33.04-.49.07-.12-.56-.25-1.12-.37-1.69ZM17.56,33.1v-1h.33v1h-.33ZM17.43,30.01c-.1-.51-.18-.95-.28-1.47,1.33-.77,2.15-.76,2.06,1.47h-1.78ZM18.56,26.1v-1h.33v1h-.33ZM19.13,43c.23-.27.46-.54.69-.81l.32.32c-.27.23-.54.46-.81.69-.23.27-.46.54-.69.81l-.32-.32c.27-.23.54-.46.81-.69ZM19.56,40.1v-1h.33v1h-.33ZM18.49,46.1h1.55c.07.85.15,1.74.24,2.76-.62.13-1.07.22-1.79.36v-3.12ZM20.23,36.77h-1v-.33h1v.33ZM19.96,22.07c.04.29.07.58.11.86h-1.66c-.03-.16-.05-.32-.08-.48.54-.13,1.08-.26,1.63-.39ZM15.56,8.1h.33v1h-.33v-1ZM17.48,20.83c-.84.16-1.28.24-1.94.37-.13-.61-.24-1.16-.6-2.84,1.26,1.22,1.78,1.73,2.54,2.47ZM14.56,11.1h.33v1h-.33v-1ZM13.56,5.1h.33v1h-.33v-1ZM13.48,14.1h.5v2h-.5v-2ZM11.23,8.43h1v.33h-1v-.33ZM11.89,12.1v1h-.33v-1h.33ZM14.93,20.27c-1.66.85-2.45,1.26-3.44,1.77-.09-.46-.2-1.01-.35-1.77h3.79ZM10.18,15.07l-.06-.06c.23-.27.46-.54.7-.82l.32.32c-.27.23-.54.46-.82.7l-.06-.06c-.05.61-.09,1.18-.14,1.81-.6.05-1.03.09-1.7.14-.07-.61-.13-1.15-.21-1.88.78-.06,1.36-.11,1.97-.15ZM7.44,19.38l1.58-1.58c.08,1.04.24,1.82.18,2.58-.08.93-.45,1.84-.48,2.77-.02.62.41,1.25.48,1.89.09.82.02,1.66.02,2.63-.65.53-1.36,1.11-2.08,1.7-.36-.17-.73-.35-1.09-.52.46-3.1.91-6.19,1.39-9.45ZM8.15,33.95v5.94c-.5.1-.96.19-1.67.33v-5.94c.33-.07.78-.15,1.67-.33ZM6.57,31.7c.42-.35.98-.8,1.34-1.1q.11,1.41-1.34,1.1ZM7.98,45.01h-1.59v-3.87c1.89.88,2.19,2.16,1.59,3.87ZM6.49,45.19c.99,1.21,1.44,1.76,2.12,2.6-.96.19-1.4.28-2.12.43v-3.03ZM5.28,51.62c.8-.73,1.4-2.24,3.27-.89-.78,1.07-1.49,2.04-2.19,3,.49.22.99.44,1.69.75.23.1.49.22.78.35-1.18.94-1.99,1.58-3.18,2.53,1.15.53,1.81.83,3.02,1.38-1.53.67-2.69,1.18-4.6,2.02,1.79-3.47.88-6.32,1.22-9.14ZM3.43,66.83c-.05-.27-.14-.83-.26-1.57h3.89c0,.17,0,.34,0,.51-1.14.34-2.29.67-3.62,1.06ZM4.68,64.23c-.2-.51-.37-.93-.67-1.68.65-.17,1.21-.23,1.67-.48.46-.25.8-.7,1.45-1.28.25,2.5-.88,3.07-2.45,3.44ZM14.93,59.3q-1.62,1.83-6.61,3.39c1.08-2.51,2.41-3.2,6.61-3.39ZM11.16,63.8c2-1.2,3.87-2.31,5.9-3.53.52.76.96,1.39,1.91,2.78-3.15-.68-5.13,1.84-7.81.75ZM20.32,54.2l-.06-.06c-.88,1.71-1.76,3.4-2.58,4.98-3.39-.32.53-2.65-1.25-3.33.59-2.05,2.24-1.7,3.79-1.69l-.1-.1c.23-.27.46-.54.7-.82l.32.32c-.27.23-.54.46-.82.7ZM22.89,54.1h-.33v-1h.33v1ZM29.07,59.03c-.87-2.49-1.37-3.95-2.03-5.84h2.03v5.84ZM28.05,50.63c-.19,1.47-1.98,1.73-4.39.52-2.13.56-4.2,1.17-6.27,1.92-.22-.48-.44-.97-.67-1.45.8-.29,1.59-.59,2.39-.88-.17-.21-.34-.42-.51-.63,1.74,0,3.21.32,4.9-.2,1.11-.34,2.53.37,3.24-.87.43.52.83,1.02,1.31,1.6ZM26.32,4.51l.32-.32c.23.27.46.54.7.82-.07.07-.13.13-.2.2-.27-.23-.54-.46-.82-.7ZM27.23,5.57c.47-.16.92-.36,1.4-.43.14-.02.34.36,1.02,1.12-1.22-.35-1.82-.52-2.42-.69ZM35.05,13.01h-2.47c-.47-1.54-.91-2.99-1.42-4.68h3.89v4.68ZM39.06,13.51q-2.53-1.76-2.86-4.25c.91-.06,1.8-.13,2.86-.2v4.45ZM42.23,8.43h1v.33h-1v-.33ZM40.23,7.43h1v.33h-1v-.33ZM43.09,14.03c-1.09-.53-1.99-.97-2.87-1.4v-2.33c.72-.06,1.66-.44,2.19-.13,1.62.94.58,2.45.68,3.87ZM182.52,25.25c-2.11-.68-4.61-.15-6.94-.15h-6.99c-2.33,0-4.68.18-6.98-.05-2.16-.22-4.27-.87-6.37-1.33v-.6c0-.18,0-.35,0-.51.2-.13.4-.33.6-.43.07-.03.13-.05.2-.05,5.2.14,10.31,1.61,15.56.98,4.92,1.91,10.04.63,15.06,1,.47.03.93.11,1.41.44-1.86.05-3.3,1.42-5.54.71ZM304.39,27.27h35.13c-3.44,1.07-25.78,1.3-35.13,0ZM380.23,25.35h3v.5h-3v-.5ZM366.42,29.94c-.62-.98-1.38-2.17-2.37-3.74h3.01c.69,1.2,1.37,2.37,2.16,3.74h-2.79ZM369.23,33.81c-.51.11-1.06.22-1.75.37-.13-.65-.22-1.09-.37-1.82h2.12v1.45ZM370.23,28.6c.17-.26.34-.52.52-.78,1.21.48,2.42.95,3.63,1.43-.04.22-.08.45-.12.67-.88.07-1.76.15-2.5.21-.61-.61-1.07-1.07-1.52-1.52ZM375.13,33.93h-3.81v-1.65h3.81v1.65ZM375.31,28.46c1.64-.86,2.82-.31,4.07,1.4-1.5.1-2.73.19-4.07.28v-1.68ZM378.26,33.59h0c-.09-.07-.23-.17-.4-.29-.41.2-.87.42-1.61.77v-2.51c1.62-1.16,2.74-.3,4.08,1.19-.56.23-1.14.47-2.08.85.12.09.16.12,0,0ZM384.13,29.93h-3.81v-1.65h3.81v1.65ZM385.23,25.85v-.5h4v.5h-4ZM390.14,29.93h-3.73q-.03-2.79,3.73-2.5v2.5ZM391.56,25.1h.33v1h-.33v-1ZM413.01,26.98c-7.28.05-14.46,2.17-21.78.29,2.89-.11,6.01.42,8.6-.51,2.99-1.07,5.84-.11,9.25-.89.14-.14.68-.67,2.02-2-6.56.8-12.12,1.87-17.68.53,6.45-.49,12.9-.99,19.59-1.5v4.08ZM415.89,27.1h-.33v-1h.33v1ZM415.89,24.1h-.33v-1h.33v1ZM418.23,23.77h-1v-.33h1v.33ZM420.89,28.1h-.33v-1h.33v1ZM422.48,28.14c-.03-.29-.07-.58-.1-.87h1.66c.03.16.05.32.08.48-.55.13-1.09.26-1.64.39ZM423.52,25.07c-.12-.63-.25-1.26-.37-1.88l-.02.02c-.27-.23-.54-.46-.82-.7l.32-.32c.23.27.46.54.7.82-.03.03-.07.07-.1.1.26-.01.52-.03.78-.04.05.64.11,1.27.16,1.91-.22.03-.43.06-.65.09ZM427.48,26.1h.5v2h-.5v-2Z"/>
          <path class="cls-2" d="M27.78,71.01h-5.51c1.32-1.2,2.72-2.25,4.16-3.21-1.55,1.01-3.03,2.12-4.42,3.38h5.93c-.22-.35-.61-.87-.84-1.23.23.36.46.71.69,1.06Z"/>
        </g>
      </g>
    </g>
  </g>
</svg>