<?xml version="1.0" encoding="UTF-8" standalone="no"?>
<!DOCTYPE svg PUBLIC "-//W3C//DTD SVG 1.1//EN" "http://www.w3.org/Graphics/SVG/1.1/DTD/svg11.dtd">
<svg width="100%" height="100%" viewBox="0 0 2000 2000" version="1.1" xmlns="http://www.w3.org/2000/svg" xmlns:xlink="http://www.w3.org/1999/xlink" xml:space="preserve" xmlns:serif="http://www.serif.com/" style="fill-rule:evenodd;clip-rule:evenodd;stroke-linejoin:round;stroke-miterlimit:2;">
    <rect id="Artboard1" x="0" y="0" width="2000" height="2000" style="fill:none;"/>
    <g id="Artboard11" serif:id="Artboard1">
        <g transform="matrix(1,0,0,1,-18.7974,157.771)">
            <g transform="matrix(1.26991,0,0,0.991144,531.538,522.146)">
                <path d="M328.471,-241.445C332.321,-239.541 334.246,-235.293 334.246,-228.702L334.246,-212.445C334.246,-204.975 332.046,-200.874 327.646,-200.142C323.797,-200.142 321.597,-204.975 321.047,-214.642L321.047,-226.945C321.047,-236.611 323.522,-241.445 328.471,-241.445ZM328.471,-163.014C332.321,-160.963 334.246,-156.862 334.246,-150.711L334.246,-121.052C333.476,-115.633 330.396,-112.923 325.007,-112.923C322.367,-115.999 321.047,-120.612 321.047,-126.764L321.047,-147.196C321.047,-157.741 323.522,-163.014 328.471,-163.014ZM265.615,-119.294L266.935,-119.294C271.334,-119.294 274.084,-110.946 275.183,-94.249C278.153,-76.527 279.638,-65.835 279.638,-62.174L279.638,-59.977C279.638,-58.073 278.868,-56.095 277.328,-54.045C270.399,-55.07 266.935,-58.219 266.935,-63.492C263.085,-88.244 260.885,-103.769 260.335,-110.067C261.105,-116.219 262.865,-119.294 265.615,-119.294ZM394.463,-108.749C397.652,-108.749 399.577,-105.893 400.237,-100.181L400.237,-98.863C399.907,-94.469 397.102,-76.234 391.823,-44.159C388.743,-39.911 385.829,-37.788 383.079,-37.788C380.439,-39.545 379.12,-42.108 379.12,-45.477C384.949,-86.194 388.633,-106.552 390.173,-106.552C392.153,-108.017 393.583,-108.749 394.463,-108.749ZM325.502,-75.136L325.832,-75.136C331.441,-74.11 334.246,-71.401 334.246,-67.007L334.246,69.204C334.246,73.451 331.606,75.575 326.327,75.575L324.182,75.575C322.092,73.525 321.047,68.325 321.047,59.977L321.047,-59.977C321.047,-68.032 322.532,-73.085 325.502,-75.136ZM221.896,-30.318C226.295,-30.318 230.529,-20.798 234.599,-1.758L234.599,-1.098C233.499,4.614 231.299,7.47 228,7.47L227.175,7.47C224.315,7.47 221.236,0.513 217.936,-13.401C217.496,-13.401 216.946,-15.305 216.286,-19.113L216.286,-23.288C216.286,-27.389 218.156,-29.732 221.896,-30.318ZM434.222,-30.318C437.742,-29.293 439.502,-26.363 439.502,-21.53C439.502,-18.015 435.982,-6.591 428.943,12.742C427.403,13.914 426.083,14.5 424.984,14.5C423.334,14.5 421.299,12.742 418.879,9.227C418.659,7.177 418.549,5.639 418.549,4.614C424.599,-18.235 428.943,-29.659 431.583,-29.659L434.222,-30.318ZM283.102,-17.576C286.072,-17.576 288.547,-7.103 290.526,13.841C290.746,14.134 292.066,22.921 294.486,40.204C293.826,45.623 292.671,48.333 291.021,48.333C285.192,48.333 281.838,44.598 280.958,37.128L274.853,-7.689C276.833,-14.28 279.583,-17.576 283.102,-17.576ZM376.15,-1.758C379.34,-1.758 381.649,1.758 383.079,8.788L383.079,9.227C378.13,44.525 375.105,62.174 374.005,62.174L372.191,62.174C369.331,62.174 366.691,58.732 364.272,51.848L364.272,49.431C368.561,15.305 371.806,-1.758 374.005,-1.758L376.15,-1.758ZM183.951,16.257C187.91,16.257 193.134,24.386 199.623,40.644C210.732,61.441 216.286,73.671 216.286,77.333C215.076,84.363 212.877,87.878 209.687,87.878C207.597,87.878 202.648,78.944 194.839,61.075C184.061,40.277 178.671,28.634 178.671,26.144L178.671,22.629C179.331,18.381 181.091,16.257 183.951,16.257ZM479.591,16.257C482.781,16.257 484.541,18.967 484.871,24.386C484.871,27.901 479.811,38.959 469.693,57.56C454.405,87.585 446.211,103.11 445.111,104.135C444.121,105.307 443.131,105.893 442.141,105.893L441.646,105.893C437.027,104.868 434.717,102.158 434.717,97.764C434.717,95.567 438.787,86.853 446.926,71.621C464.743,37.055 473.927,19.406 474.477,18.674C476.677,17.063 478.381,16.257 479.591,16.257ZM114,22.189L114.495,22.189C118.564,22.189 123.514,27.608 129.343,38.447C129.563,39.032 129.673,39.765 129.673,40.644C129.673,44.452 127.638,47.015 123.569,48.333L122.249,48.333C118.949,48.333 114.605,43.28 109.215,33.174C109.215,32.002 109.051,30.611 108.721,29C109.6,24.459 111.36,22.189 114,22.189ZM544.263,22.189C548.112,22.629 550.037,25.118 550.037,29.659C550.037,33.906 545.527,41.303 536.509,51.848C509.232,88.61 495.099,107.211 494.109,107.65L492.789,107.65C490.7,107.65 489.215,104.135 488.335,97.105C488.335,91.832 493.449,83.338 503.678,71.621C526.995,39.545 539.643,23.214 541.623,22.629L544.263,22.189ZM20.127,30.318L21.777,30.318C23.977,30.318 29.696,34.712 38.935,43.5C54.333,57.267 62.747,65.469 64.176,68.105L64.671,70.961L64.671,71.621C64.011,77.333 62.252,80.189 59.392,80.189L57.742,80.189C56.423,80.189 49.108,74.037 35.8,61.734C24.032,51.189 17.488,44.745 16.168,42.401C15.618,39.911 15.343,38.154 15.343,37.128L15.343,36.689C15.783,32.442 17.378,30.318 20.127,30.318ZM650.509,31.416C654.028,32.442 655.788,34.785 655.788,38.447C655.788,44.598 651.388,49.651 642.59,53.606L640.445,53.606C636.925,52.434 635.166,50.237 635.166,47.015L635.166,45.916C635.166,41.229 639.235,36.616 647.374,32.075C647.814,31.636 648.859,31.416 650.509,31.416ZM244.168,40.644L244.662,40.644C248.072,40.644 251.427,47.674 254.726,61.734C260.555,78.87 263.47,88.537 263.47,90.734C263.47,94.542 261.27,97.471 256.871,99.522L256.046,99.522C253.076,99.522 249.722,91.906 245.982,76.674C241.253,62.76 238.448,53.898 237.568,50.09C238.888,43.793 241.088,40.644 244.168,40.644ZM408.486,47.674C413.105,48.845 415.415,52.141 415.415,57.56C408.486,81.726 404.141,94.688 402.382,96.446L401.062,96.446C397.982,96.446 395.617,93.004 393.968,86.12L393.968,84.363C393.968,81.58 397.487,70.156 404.526,50.09C406.066,48.479 407.386,47.674 408.486,47.674ZM608.604,66.787C610.364,67.959 612.399,70.888 614.708,75.575C614.708,79.53 607.119,87.292 591.941,98.863C580.943,109.408 574.509,114.681 572.639,114.681L571.484,114.681C568.624,114.681 566.865,111.532 566.205,105.234C566.205,101.279 572.584,94.469 585.342,84.802C598.101,72.792 605.854,66.787 608.604,66.787ZM151.12,69.204C153.21,69.204 157.719,74.403 164.648,84.802C190.605,118.928 203.583,136.797 203.583,138.408L203.583,139.506C202.373,144.193 200.063,146.536 196.654,146.536L195.664,146.536C192.914,146.536 189.285,142.875 184.775,135.552C158.819,101.865 145.841,84.216 145.841,82.605L145.511,78.431C145.511,73.598 147.38,70.522 151.12,69.204ZM297.126,84.802C300.315,84.802 302.46,91.979 303.56,106.332C305.649,118.196 306.694,126.178 306.694,130.279C305.814,134.234 303.615,136.211 300.095,136.211C295.476,133.574 293.166,128.888 293.166,122.15C292.836,122.15 291.516,113.07 289.207,94.908C291.406,88.171 294.046,84.802 297.126,84.802ZM91.233,93.59C93.543,93.59 99.372,98.277 108.721,107.65C133.357,129.766 147.49,142.728 151.12,146.536C151.67,147.855 151.945,149.026 151.945,150.052C149.965,154.738 147.215,157.082 143.696,157.082L142.046,157.082C140.506,157.082 130.168,148.148 111.03,130.279C96.182,116.804 88.318,109.408 87.438,108.09C86.229,106.039 85.624,104.135 85.624,102.378C86.504,96.519 88.373,93.59 91.233,93.59ZM362.127,95.348C366.526,96.226 368.726,98.204 368.726,101.279C365.536,122.37 363.337,135.332 362.127,140.165C360.917,141.776 359.762,142.582 358.662,142.582C353.713,140.092 351.238,136.577 351.238,132.037L351.238,131.378C353.768,110.433 355.638,99.961 356.848,99.961C358.497,96.885 360.257,95.348 362.127,95.348ZM324.182,113.363C330.891,113.363 334.246,115.706 334.246,120.393L334.246,147.635C333.366,156.569 331.001,161.036 327.152,161.036C323.522,161.036 321.487,156.423 321.047,147.196L321.047,129.62C321.047,121.418 322.092,115.999 324.182,113.363ZM231.464,115.12L232.784,115.12C236.194,115.12 240.593,121.931 245.982,135.552C251.482,145.365 254.231,151.736 254.231,154.665C254.231,158.473 251.757,161.036 246.807,162.355C243.948,162.355 239.713,155.324 234.104,141.264C228.605,131.451 225.855,125.446 225.855,123.249L225.855,122.809C226.845,117.683 228.715,115.12 231.464,115.12ZM465.733,126.764L466.063,126.764C470.792,127.496 473.157,129.62 473.157,133.135L473.157,134.453C473.157,136.65 468.483,143.388 459.134,154.665C452.645,164.771 447.97,169.824 445.111,169.824L444.781,169.824C439.832,169.824 437.357,167.92 437.357,164.112L437.357,163.453C437.357,159.645 441.096,153.42 448.575,144.779C456.494,132.769 462.214,126.764 465.733,126.764ZM538.158,126.764L539.148,126.764C541.898,126.764 543.768,129.474 544.758,134.893L544.758,136.211C544.758,140.165 538.763,146.536 526.775,155.324C509.507,171.142 499.939,179.051 498.069,179.051L497.079,179.051C494.769,177.733 493.614,175.243 493.614,171.582L493.614,169.824C493.614,164.698 497.244,159.645 504.503,154.665C525.29,136.064 536.509,126.764 538.158,126.764ZM383.574,127.423C388.853,127.423 391.493,129.766 391.493,134.453C385.444,157.302 381.044,168.726 378.295,168.726C378.295,169.458 377.305,169.824 375.325,169.824L374.005,169.824C371.696,169.824 370.211,167.481 369.551,162.794C369.551,160.158 372.905,149.319 379.615,130.279C381.374,128.375 382.694,127.423 383.574,127.423ZM273.864,132.037C276.613,132.037 279.858,139.433 283.597,154.226C285.027,157.594 285.742,160.45 285.742,162.794L285.742,164.551C285.742,168.945 283.542,171.655 279.143,172.68C275.513,172.68 271.279,162.208 266.44,141.264C266.44,136.577 268.914,133.501 273.864,132.037ZM7.919,133.794L9.239,133.794C11.109,133.794 20.402,138.847 37.12,148.953C38.88,151.297 39.76,153.42 39.76,155.324L39.76,157.521C39.43,162.208 37.945,164.551 35.305,164.551L34.48,164.551C32.831,164.551 22.932,159.352 4.784,148.953C2.805,145.877 1.815,143.314 1.815,141.264L1.815,140.824C1.815,136.723 3.849,134.38 7.919,133.794ZM417.23,133.794L417.559,133.794C420.969,133.794 423.169,136.284 424.159,141.264L424.159,143.68C424.159,146.61 418.329,158.254 406.671,178.612C403.591,180.077 401.722,180.809 401.062,180.809C397.542,179.784 395.782,177.513 395.782,173.998C395.782,170.63 400.457,160.743 409.806,144.34C412.445,137.309 414.92,133.794 417.23,133.794ZM647.869,133.794L649.519,133.794C653.368,134.819 655.293,137.163 655.293,140.824C655.293,146.244 651.333,150.491 643.414,153.567C634.946,158.693 628.127,162.355 622.957,164.551L619.823,164.551C617.293,162.794 616.028,159.938 616.028,155.983C616.028,150.857 620.648,146.536 629.886,143.021C640.005,136.87 645.999,133.794 647.869,133.794ZM224.04,166.968C226.35,166.968 232.949,175.097 243.838,191.354C243.838,192.087 244.113,193.478 244.662,195.528C244.662,200.069 242.628,202.559 238.558,202.998C234.599,202.998 228.33,196.041 219.751,182.127C219.201,179.198 218.926,177.44 218.926,176.854C218.926,172.168 220.631,168.872 224.04,166.968ZM70.776,168.067L71.271,168.067C84.561,172.032 93.706,181.665 90.557,189.14C87.786,195.719 80.994,190.118 65.702,181.78C64.272,179.583 64.066,175.164 64.066,173.553C64.066,168.426 66.706,169.238 70.776,168.067ZM585.837,168.067C589.357,169.092 591.116,171.801 591.116,176.195L591.116,177.953C591.116,182.2 586.277,186.301 576.598,190.256C550.767,196.631 580.723,169.678 585.012,168.067L585.837,168.067ZM174.712,168.726C178.231,170.63 189.615,180.882 208.862,199.483C209.412,201.533 209.687,202.705 209.687,202.998C209.687,207.685 207.615,206.996 202.335,208.168C200.576,208.168 191.007,199.819 173.629,183.123C172.089,179.315 170.752,180.003 170.752,177.953L170.752,176.195C170.752,171.508 172.072,169.019 174.712,168.726ZM459.756,193.876L461.076,193.876C465.476,195.488 467.675,198.197 467.675,202.005L467.675,202.664C467.675,205.886 466.998,208.564 455.669,217.059C450.94,222.038 446.981,224.748 443.791,225.187C440.381,225.187 438.677,222.844 438.677,218.157L438.677,217.498C438.677,212.079 442.581,206.879 450.39,201.9C457.759,194.43 457.557,193.876 459.756,193.876ZM608.109,240.127L609.924,240.127C612.124,240.127 613.993,241.884 615.533,245.399L615.533,248.914C615.533,254.626 604.5,256.744 602.893,255.984C593.259,251.428 606.019,240.127 608.109,240.127ZM51.473,387.525C80.119,378.259 81.994,397.704 47.679,406.199C43.169,406.199 40.53,403.709 39.76,398.73L39.76,397.411C39.76,392.432 43.664,389.136 51.473,387.525ZM597.221,397.411C612.619,400.048 620.318,404.368 620.318,410.373L620.318,412.131C620.318,415.939 617.843,418.209 612.894,418.942C597.496,415.426 589.797,412.351 589.797,409.714L589.302,406.858C590.621,400.56 593.261,397.411 597.221,397.411ZM471.342,399.828L473.157,399.828C478.546,401.732 500.983,413.962 540.468,436.517C571.044,452.482 588.477,462.368 592.766,466.176C593.976,468.226 594.581,470.13 594.581,471.888C594.581,475.842 592.216,478.406 587.487,479.577C585.617,479.577 568.899,470.643 537.334,452.775C494.769,429.487 472.332,417.111 470.023,415.646C467.383,412.717 466.063,409.788 466.063,406.858C466.943,402.171 468.703,399.828 471.342,399.828ZM170.752,406.199C172.842,406.932 173.887,408.469 173.887,410.813L173.887,413.889C173.887,420.772 170.092,425.386 162.503,427.729C129.618,446.33 112.295,455.631 110.535,455.631L110.04,455.631C107.731,455.631 106.576,453.507 106.576,449.259L106.576,448.6C106.576,441.277 111.8,435.712 122.249,431.904C152.275,414.767 168.333,406.199 170.422,406.199L170.752,406.199ZM201.768,429.487C205.288,430.512 207.047,432.856 207.047,436.517L207.047,437.616C207.047,442.888 200.778,449.699 188.24,458.047L186.095,458.047C182.686,458.047 180.046,455.484 178.176,450.358C178.176,447.136 183.896,441.35 195.334,433.002C196.984,430.659 199.129,429.487 201.768,429.487ZM76.055,458.487C81.004,460.537 83.479,463.466 83.479,467.274L83.479,467.933C83.479,471.302 79.849,474.378 72.59,477.161C34.535,498.544 13.088,510.188 8.249,512.092L6.104,512.092C3.025,512.092 1.155,510.188 0.495,506.38L0.495,503.963C0.495,498.984 5.884,494.297 16.663,489.903C48.889,471.595 68.081,461.123 74.24,458.487L76.055,458.487ZM480.911,460.903L481.901,460.903C484.651,460.903 491.03,466.176 501.038,476.721C502.468,479.504 503.183,481.994 503.183,484.191C502.633,490.049 501.038,492.979 498.399,492.979C496.859,492.979 488.28,485.582 472.662,470.79L472.167,467.933C472.167,464.858 475.082,462.514 480.911,460.903ZM154.584,469.032C157.004,470.057 158.214,472.401 158.214,476.062L158.214,478.918C158.214,484.191 154.859,489.024 148.15,493.418C89.968,544.387 59.062,570.97 55.433,573.167L54.608,573.167C52.408,573.167 50.813,570.238 49.823,564.38C49.823,558.96 54.333,553.175 63.352,547.024C119.334,497.958 149.47,471.961 153.76,469.032L154.584,469.032ZM441.646,471.449L442.141,471.449C445.331,471.449 450.995,477.6 459.134,489.903C468.373,502.059 473.047,509.09 473.157,510.994L473.157,514.948C473.157,521.978 471.672,525.494 468.703,525.494C467.603,525.494 458.749,514.069 442.141,491.221C438.622,487.56 436.862,483.678 436.862,479.577L436.862,478.918C436.862,474.671 438.457,472.181 441.646,471.449ZM204.903,482.433C206.992,482.433 208.587,485.143 209.687,490.562L209.687,493.418C209.687,497.226 206.058,503.231 198.799,511.433C193.849,519.196 190.33,523.077 188.24,523.077L186.59,523.077C183.621,520.88 182.136,517.804 182.136,513.85C182.136,509.602 186.81,502.059 196.159,491.221C199.788,485.363 202.703,482.433 204.903,482.433ZM626.422,484.85C628.841,484.85 637.42,489.317 652.158,498.251C654.248,500.888 655.293,503.158 655.293,505.062L655.293,506.819C655.293,510.481 653.258,512.605 649.189,513.191L648.364,513.191C646.164,513.191 637.255,508.357 621.637,498.691C620.208,495.762 619.493,493.418 619.493,491.661C619.493,488.438 621.802,486.168 626.422,484.85ZM241.198,487.706L242.023,487.706C245.212,488.292 246.807,490.416 246.807,494.077L246.807,496.933C246.807,500.302 242.738,509.016 234.599,523.077C233.609,526.299 231.739,527.91 228.99,527.91L228.495,527.91C224.425,526.885 222.39,524.102 222.39,519.562L222.39,519.122C223.16,515.9 226.955,507.918 233.774,495.176C236.304,490.196 238.778,487.706 241.198,487.706ZM529.91,505.721L531.229,505.721C533.649,505.721 540.193,511.14 550.862,521.978C559.331,528.13 563.565,533.403 563.565,537.796C562.245,543.216 560.321,545.925 557.791,545.925L556.966,545.925C554.766,545.925 548.497,540.872 538.158,530.766C529.58,523.443 524.63,518.39 523.31,515.607L523.31,513.85C523.31,510.042 525.51,507.332 529.91,505.721ZM295.311,523.736C298.17,523.736 300.04,526.812 300.92,532.963L300.92,534.281C300.92,538.089 297.016,563.281 289.207,609.856C287.997,611.467 286.842,612.273 285.742,612.273C282.003,612.273 279.363,608.538 277.823,601.069C284.202,558.301 288.272,533.695 290.031,527.251C292.011,524.908 293.771,523.736 295.311,523.736ZM326.822,532.963L327.646,532.963C331.386,532.963 333.586,537.43 334.246,546.365L334.246,594.697C334.246,600.263 333.366,603.778 331.606,605.243L327.152,604.584L322.862,604.584C321.652,601.362 321.047,596.162 321.047,588.985L321.047,546.365C321.047,537.43 322.972,532.963 326.822,532.963ZM263.47,536.039L263.8,536.039C266.44,536.039 267.759,537.723 267.759,541.092C266,549.001 259.181,571.337 247.302,608.099C245.652,609.71 244.498,610.515 243.838,610.515C240.098,610.515 237.733,607.22 236.744,600.629L236.744,599.97C237.623,595.137 243.618,575.364 254.726,540.652C257.036,537.577 259.95,536.039 263.47,536.039ZM159.864,544.168C163.933,545.779 165.968,548.488 165.968,552.296C165.968,555.519 161.898,561.89 153.76,571.41C128.463,605.975 115.21,623.258 114,623.258L111.36,623.697L111.03,623.697C107.511,623.404 105.751,621.5 105.751,617.985L105.751,615.129C105.751,611.467 112.02,601.947 124.558,586.569C144.466,559.034 155.354,545.046 157.224,544.607C157.664,544.314 158.544,544.168 159.864,544.168ZM496.254,544.168C499.444,544.168 504.393,549.367 511.102,559.766C536.179,593.16 548.717,610.223 548.717,610.955C549.597,612.859 550.037,614.983 550.037,617.326C549.267,621.573 547.672,623.697 545.253,623.697L544.263,623.697C540.523,623.697 534.419,616.96 525.95,603.485C500.983,570.824 488.445,553.907 488.335,552.736L488.335,549.44C489.655,545.925 492.295,544.168 496.254,544.168ZM204.903,555.811L206.223,555.811C209.082,555.811 210.952,558.887 211.832,565.039L211.832,565.698C211.832,567.748 206.443,578.953 195.664,599.311C187.195,616.447 181.971,625.967 179.991,627.871C178.451,629.043 176.966,629.629 175.537,629.629C172.567,629.629 170.862,626.919 170.422,621.5C170.422,618.571 174.327,609.856 182.136,595.357C193.464,573.241 200.173,560.425 202.263,556.91C203.253,556.178 204.133,555.811 204.903,555.811ZM589.302,559.327L589.797,559.327C592.216,559.327 598.76,564.746 609.429,575.584C625.817,589.644 635.716,598.945 639.125,603.485L639.95,607.44L639.95,609.856C639.4,613.664 637.97,615.568 635.661,615.568L633.516,615.568C630.986,615.568 624.552,610.369 614.213,599.97C597.276,585.324 587.652,576.17 585.342,572.508C584.792,571.337 584.517,570.238 584.517,569.213L584.517,566.796C585.287,561.816 586.882,559.327 589.302,559.327ZM365.017,586.822C369.087,586.822 371.726,595.537 372.936,612.966C381.405,670.086 383.574,681.184 383.574,684.992C382.034,688.8 379.999,690.704 377.47,690.704C372.191,688.068 369.551,682.429 369.551,673.788C360.532,613.152 358.088,599.784 358.088,594.951C358.088,590.41 360.398,587.701 365.017,586.822ZM20.952,584.811L22.767,584.811C26.836,586.422 28.871,589.132 28.871,592.94L28.871,593.599C28.871,597.114 24.197,602.167 14.848,608.758C11.548,612.566 8.634,614.47 6.104,614.47L5.609,614.47C1.87,614.47 0,612.346 0,608.099L0,606.341C0,601.654 5.994,595.064 17.983,586.569C17.983,585.836 18.972,585.251 20.952,584.811ZM414.601,603.316L414.931,603.316C418.451,603.316 420.936,604.579 423.905,617.322C433.474,646.614 437.742,659.068 439.502,667.416C438.952,673.275 437.192,676.204 434.222,676.204L433.397,676.204C429.658,676.204 426.138,669.394 422.839,655.773C411.51,620.328 408.002,613.202 408.002,611.445C409.762,606.026 411.962,603.316 414.601,603.316ZM452.685,583.139C455.309,582.773 472.387,607 477.117,619.743C477.117,621.061 477.227,622.013 477.447,622.599C476.787,627.725 474.917,630.288 471.837,630.288C467.658,630.288 450.485,607.306 447.076,596.321C446.746,595.003 446.616,594.263 446.581,594.124C445.46,589.762 443.567,584.412 452.685,583.139ZM327.152,642.371C331.881,644.129 334.246,647.278 334.246,651.818L334.246,752.438C334.246,756.832 332.321,759.908 328.471,761.666L326.822,762.325C322.972,760.128 321.047,756.027 321.047,750.022L321.047,655.773C321.597,646.838 323.632,642.371 327.152,642.371ZM226.35,643.03L227.175,643.03C231.244,644.641 233.279,647.351 233.279,651.159L233.279,652.917C229.759,668.442 225.965,676.204 221.896,676.204L221.071,676.204C218.651,676.204 217.056,673.861 216.286,669.174L216.286,665C219.586,650.353 222.94,643.03 226.35,643.03ZM277.328,648.303L278.318,648.303C279.748,648.303 281.068,650.793 282.277,655.773L267.759,744.749C265.56,748.704 263.525,750.681 261.655,750.681C258.356,750.681 256.321,747.385 255.551,740.795C264.24,684.846 268.914,655.919 269.574,654.015C272.214,650.207 274.798,648.303 277.328,648.303ZM385.719,726.295L386.544,726.295C389.073,726.295 390.723,729.737 391.493,736.62C393.143,749.656 393.968,757.052 393.968,758.81C393.088,764.668 391.053,767.597 387.863,767.597C383.904,767.597 381.319,761.739 380.109,750.022C379.23,742.259 378.625,738.378 378.295,738.378C379.944,730.322 382.419,726.295 385.719,726.295ZM327.152,800.112C330.891,800.112 333.256,803.408 334.246,809.998L334.246,875.028C334.246,883.23 331.771,887.331 326.822,887.331C322.972,886.013 321.047,880.813 321.047,871.733L321.047,813.514C321.597,804.579 323.632,800.112 327.152,800.112Z" style="fill-rule:nonzero;"/>
            </g>
            <g transform="matrix(1.16051,0,0,0.343371,-141.691,419.466)">
                <g transform="matrix(1.76759,0,0,1.76759,-224.716,-650.406)">
                    <path d="M444.874,1322.35C444.874,1342.03 443.189,1359.11 439.819,1373.61C435.377,1392.77 429.096,1402.34 420.977,1402.34L325.156,1402.34C323.624,1402.34 321.939,1401.31 320.101,1399.24C318.263,1397.17 317.344,1393.28 317.344,1387.59C317.344,1383.45 318.646,1373.09 321.25,1356.52C323.854,1339.96 325.156,1316.66 325.156,1286.63C325.156,1265.92 324.927,1218.29 324.467,1143.73C324.007,1069.18 323.778,1021.29 323.778,1000.06C323.778,964.852 322.782,938.447 320.79,920.844C318.493,906.347 316.195,891.591 313.897,876.577C313.897,869.846 314.816,865.186 316.654,862.598C318.493,860.009 320.944,858.715 324.007,858.715L368.126,858.715C370.577,858.715 372.033,858.973 372.492,859.491C374.943,862.08 376.169,867.775 376.169,876.577C376.169,880.201 374.56,889.002 371.343,902.982C368.126,916.961 366.518,933.528 366.518,952.685L366.518,1166.25C366.518,1172.47 366.479,1179.07 366.403,1186.06C366.326,1193.05 366.288,1200.16 366.288,1207.41C366.288,1252.46 367.284,1285.85 369.275,1307.6C372.492,1342.8 378.39,1360.41 386.969,1360.41C392.024,1360.41 396.16,1354.45 399.377,1342.55C402.594,1330.64 404.202,1317.95 404.202,1304.49C404.202,1289.99 402.517,1277.57 399.147,1267.21C395.164,1256.34 391.258,1245.21 387.428,1233.82C387.428,1224.5 389.688,1216.21 394.207,1208.97C398.726,1201.72 403.13,1198.09 407.419,1198.09C415.692,1198.09 423.734,1209.23 431.547,1231.49C440.432,1256.86 444.874,1287.15 444.874,1322.35Z" style="fill-rule:nonzero;"/>
                </g>
                <g transform="matrix(1,0,0,1,0,11.6492)">
                    <path d="M517.946,1385.26C517.946,1389.92 517.065,1393.93 515.303,1397.3C513.542,1400.66 512.048,1402.34 510.823,1402.34L463.027,1402.34C461.955,1402.34 460.423,1400.4 458.432,1396.52C456.44,1392.64 455.444,1388.37 455.444,1383.7C457.896,1370.24 460.117,1355.1 462.108,1338.27C464.1,1321.45 465.095,1298.02 465.095,1267.99L465.095,965.887C465.095,945.177 464.1,928.351 462.108,915.407C460.117,902.464 458.049,889.261 455.904,875.8C455.904,870.105 456.402,865.834 457.398,862.986C458.393,860.138 460.806,858.715 464.636,858.715L509.214,858.715C511.665,858.715 513.657,860.397 515.189,863.763C516.72,867.128 517.486,872.176 517.486,878.907C517.486,884.084 515.916,893.921 512.776,908.418C509.635,922.915 508.065,942.071 508.065,965.887L507.835,1269.54C507.835,1308.89 510.133,1339.18 514.729,1360.41C516.874,1370.24 517.946,1378.53 517.946,1385.26Z" style="fill-rule:nonzero;"/>
                </g>
                <path d="M652.6,954.238C652.6,965.628 651.911,973.136 650.532,976.76C649.766,978.831 648.464,979.866 646.626,979.866C642.03,963.298 636.821,948.802 631,936.376C624.413,922.397 616.064,915.407 605.954,915.407C598.294,915.407 592.55,921.102 588.72,932.493C583.971,946.99 581.596,971.841 581.596,1007.05L581.596,1035.78C581.596,1052.35 582.056,1060.63 582.975,1060.63C586.805,1041.48 591.133,1024.52 595.958,1009.77C600.783,995.01 606.72,987.632 613.766,987.632C622.192,987.632 628.856,998.505 633.758,1020.25C637.587,1037.34 639.502,1055.71 639.502,1075.39C639.502,1099.21 636.668,1120.69 631,1139.85C625.945,1156.93 621.119,1165.48 616.524,1165.48C615.758,1165.48 614.685,1164.05 613.307,1161.2C611.928,1158.36 611.239,1155.38 611.239,1152.27C611.239,1149.69 611.66,1145.8 612.503,1140.62C613.345,1135.45 613.766,1129.24 613.766,1121.99C613.766,1112.67 612.579,1105.03 610.205,1099.08C607.83,1093.12 605.417,1090.14 602.966,1090.14C594.081,1090.14 587.954,1105.68 584.584,1136.74C582.439,1156.42 581.367,1181.79 581.367,1212.85L581.367,1303.71C581.367,1329.08 582.899,1347.72 585.962,1359.63C589.026,1371.54 590.558,1380.08 590.558,1385.26C590.558,1388.88 589.792,1392.77 588.26,1396.91C586.728,1401.05 585.35,1402.86 584.124,1402.34L539.086,1402.34C536.482,1402.34 534.261,1400.79 532.422,1397.68C530.584,1394.58 529.665,1390.44 529.665,1385.26C529.665,1379.56 531.235,1369.86 534.376,1356.13C537.516,1342.41 539.086,1324.94 539.086,1303.71L539.086,994.622C539.086,955.273 537.516,928.998 534.376,915.796C531.235,902.593 529.665,892.886 529.665,886.673C529.665,874.247 533.418,868.034 540.924,868.034L599.749,868.811C610.626,868.811 618.936,868.034 624.681,866.481C630.426,864.927 635.979,863.115 641.341,861.044C645.017,861.044 647.928,872.176 650.072,894.439C651.757,912.042 652.6,931.975 652.6,954.238Z" style="fill-rule:nonzero;"/>
                <path d="M790.471,1259.45C790.471,1277.05 789.245,1298.02 786.794,1322.35C784.343,1346.69 781.433,1368.43 778.063,1387.59C776.531,1392.25 775.037,1395.87 773.582,1398.46C772.126,1401.05 770.48,1402.34 768.641,1402.34L672.591,1402.34C670.14,1402.86 667.957,1400.79 666.042,1396.13C664.128,1391.47 663.17,1386.29 663.17,1380.6C663.17,1375.94 665.008,1365.84 668.685,1350.31C672.362,1334.78 674.2,1312.52 674.2,1283.52L673.97,974.43C673.97,952.167 672.898,934.823 670.753,922.397C668.302,910.489 665.928,898.322 663.63,885.896C663.63,878.13 664.396,872.952 665.928,870.364C667.459,867.775 669.374,866.481 671.672,866.481L744.514,866.481C753.705,866.481 760.407,865.834 764.62,864.539C768.833,863.245 773.161,861.562 777.603,859.491C780.667,859.491 782.965,871.917 784.497,896.769C785.569,913.336 786.105,929.386 786.105,944.919C786.105,956.309 785.799,964.334 785.186,968.994C784.573,973.653 783.194,975.983 781.05,975.983C780.284,975.983 776.186,964.981 768.756,942.977C761.327,920.973 752.097,909.971 741.067,909.971C732.182,909.971 725.672,918.514 721.535,935.599C718.625,947.507 717.17,961.745 717.17,978.313C717.17,984.008 717.093,992.81 716.94,1004.72C716.787,1016.63 716.71,1024.91 716.71,1029.57C716.71,1037.85 716.787,1043.29 716.94,1045.88C717.246,1050.02 717.782,1052.09 718.548,1052.09C720.846,1035.52 724.523,1021.03 729.578,1008.6C735.399,994.104 742.293,986.856 750.259,986.856C757.152,986.856 762.82,998.246 767.263,1021.03C770.786,1039.15 772.548,1054.94 772.548,1068.4C772.548,1102.05 768.641,1126.9 760.829,1142.95C754.701,1155.38 749.799,1159.78 746.122,1156.16C745.51,1154.6 745.203,1152.53 745.203,1149.94C745.203,1147.87 745.625,1143.73 746.467,1137.52C747.31,1131.31 747.654,1126.39 747.501,1122.76C747.501,1113.44 745.893,1104.12 742.676,1094.81C740.531,1088.59 738.693,1085.49 737.161,1085.49C728.735,1085.49 722.761,1102.31 719.238,1135.96C716.787,1159.78 715.561,1191.88 715.561,1232.27L715.561,1259.06C715.561,1267.08 715.638,1274.46 715.791,1281.19C715.791,1301.38 716.863,1316.92 719.008,1327.79C721.918,1342.29 726.667,1349.53 733.255,1349.53C743.825,1349.53 753.476,1337.63 762.207,1313.81C769.867,1287.92 777.526,1262.04 785.186,1236.15C786.718,1236.15 787.982,1238.74 788.977,1243.91C789.973,1249.09 790.471,1254.27 790.471,1259.45Z" style="fill-rule:nonzero;"/>
                <g transform="matrix(1.75138,0,0,1.75138,-595.762,-667.204)">
                    <path d="M954.997,1074.61C954.997,1138.81 952.01,1194.73 946.035,1242.36C941.593,1278.09 935.542,1308.89 927.882,1334.78C925.738,1342.03 921.065,1354.71 913.866,1372.83C913.712,1380.08 914.44,1387.46 916.049,1394.97C917.657,1402.47 919.304,1409.85 920.989,1417.1C923.287,1424.35 925.317,1429.65 927.078,1433.02C928.84,1436.38 930.87,1438.07 933.167,1438.07C934.393,1438.07 935.619,1437.29 936.844,1435.74C937.457,1434.7 938.606,1430.3 940.291,1422.54C941.516,1416.84 943.048,1415.03 944.887,1417.1C946.418,1422.28 947.414,1427.58 947.874,1433.02C948.333,1438.46 948.563,1445.83 948.563,1455.15C948.104,1469.65 945.729,1482.59 941.44,1493.98C937.916,1503.3 933.78,1510.03 929.031,1514.18C927.806,1514.69 926.389,1515.08 924.78,1515.34C923.172,1515.6 921.985,1515.73 921.219,1515.73C916.623,1515.73 912.41,1513.53 908.58,1509.13C904.751,1504.73 901.266,1497.48 898.125,1487.38C894.985,1477.29 892.496,1464.73 890.657,1449.72C889.738,1441.43 888.513,1427.45 886.981,1407.78C886.368,1405.71 885.525,1402.86 885.372,1402.34C884.453,1402.86 883.534,1403.12 882.615,1403.12L879.857,1403.12C868.368,1403.12 857.415,1394.84 846.998,1378.27C833.517,1357.04 822.871,1325.2 815.058,1282.75C805.56,1230.97 800.811,1165.74 800.811,1087.04C800.811,1019.22 804.335,967.44 811.381,931.716C817.509,900.652 826.7,879.942 838.956,869.587C847.381,862.339 860.326,858.715 877.789,858.715C905.517,858.715 924.895,872.435 935.925,899.875C948.64,931.457 954.997,989.703 954.997,1074.61ZM900.768,968.217C898.93,944.401 896.019,927.186 892.036,916.572C888.053,905.959 883.611,900.652 878.708,900.652C876.87,900.652 874.879,901.428 872.734,902.982C866.147,906.606 861.015,918.773 857.338,939.482C854.428,955.532 852.398,975.983 851.249,1000.84C850.1,1025.69 849.334,1046.53 848.951,1063.35C848.568,1080.18 848.377,1099.72 848.377,1121.99C848.377,1155.64 849.181,1187.61 850.79,1217.9C852.398,1248.19 855.041,1276.53 858.717,1302.94C859.789,1302.42 860.824,1299.05 861.819,1292.84C862.815,1286.63 863.619,1282.75 864.232,1281.19C865.917,1275.5 867.717,1271.61 869.632,1269.54C871.547,1267.47 873.806,1266.44 876.411,1266.44C878.708,1266.44 880.738,1267.34 882.5,1269.15C884.262,1270.97 886.674,1275.24 889.738,1281.97C892.802,1288.7 895.1,1292.84 896.632,1294.39C897.091,1291.29 897.704,1285.59 898.47,1277.31C899.236,1269.03 899.925,1262.55 900.538,1257.89C904.061,1206.12 905.823,1155.64 905.823,1106.45C905.823,1058.3 904.138,1012.23 900.768,968.217ZM882.615,1336.33C882.308,1333.23 881.159,1328.57 879.168,1322.35C877.177,1316.14 875.262,1312.77 873.423,1312.26C871.126,1314.33 869.67,1316.4 869.057,1318.47C867.679,1325.2 867.296,1331.15 867.909,1336.33C868.828,1342.03 870.015,1345.91 871.47,1347.98C872.926,1350.05 874.649,1351.09 876.64,1351.09C877.713,1351.09 879.13,1350.31 880.891,1348.76C882.653,1347.2 883.228,1343.06 882.615,1336.33Z" style="fill-rule:nonzero;"/>
                </g>
                <g transform="matrix(1,0,0,1,123.613,0)">
                    <path d="M1121.36,1369.73C1122.59,1379.56 1121.67,1385.52 1118.6,1387.59C1112.17,1387.59 1094.17,1390.95 1064.61,1397.68C1050.97,1400.79 1039.86,1402.34 1031.29,1402.34C1019.03,1402.34 1008.54,1395.87 999.805,1382.93C989.541,1367.91 981.652,1344.1 976.137,1311.48C972.308,1289.74 969.588,1269.41 967.98,1250.52C966.371,1231.62 965.567,1212.85 965.567,1194.21C965.567,1180.75 965.95,1163.66 966.716,1142.95C968.248,1103.61 969.014,1082.64 969.014,1080.05C969.627,1065.04 970.929,1044.84 972.92,1019.47C974.912,994.104 977.056,967.699 979.354,940.259C979.354,921.62 977.363,904.794 973.38,889.779C972.767,885.119 972.882,880.201 973.725,875.023C974.567,869.846 975.678,866.74 977.056,865.704C982.112,863.115 988.584,861.562 996.473,861.044C1004.36,860.527 1008.84,860.268 1009.92,860.268L1021.18,860.268C1023.17,862.339 1024.55,864.41 1025.31,866.481C1026.23,868.552 1026.77,871.399 1026.92,875.023C1026.92,888.485 1026.38,902.723 1025.31,917.737C1023.47,941.553 1021.71,965.369 1020.03,989.186C1018.8,1010.41 1017.73,1034.62 1016.81,1061.8C1015.89,1088.98 1015.43,1113.44 1015.43,1135.19C1015.43,1164.18 1016.08,1191.88 1017.38,1218.29C1018.69,1244.69 1020.79,1269.8 1023.7,1293.62C1030.14,1336.07 1040.17,1357.3 1053.81,1357.3C1056.41,1356.27 1058.59,1355.36 1060.35,1354.58C1062.12,1353.81 1063.53,1351.09 1064.61,1346.43C1065.98,1337.63 1066.94,1326.88 1067.48,1314.2C1068.01,1301.51 1068.28,1287.92 1068.28,1273.43L1068.28,1255.56C1068.28,1193.95 1068.01,1139.85 1067.48,1093.25C1066.94,1046.65 1065.75,999.282 1063.91,951.132C1063.91,941.812 1063.23,932.881 1061.85,924.338C1060.47,915.796 1057.4,904.276 1052.66,889.779C1052.35,884.084 1052.58,878.259 1053.35,872.305C1054.11,866.351 1055.8,862.857 1058.4,861.821C1061.01,860.786 1064.61,860.009 1069.2,859.491C1073.8,858.973 1078.93,858.715 1084.6,858.715L1101.6,858.715C1104.36,864.41 1105.97,869.069 1106.42,872.694C1108.57,888.226 1109.64,917.996 1109.64,962.004C1109.64,1011.71 1109.91,1068.27 1110.45,1131.69C1110.98,1195.12 1111.25,1243.66 1111.25,1277.31C1112.02,1306.3 1113.13,1326.75 1114.58,1338.66C1116.04,1350.57 1118.3,1360.92 1121.36,1369.73Z" style="fill-rule:nonzero;"/>
                </g>
                <g transform="matrix(1,0,0,1,123.613,0)">
                    <path d="M1260.61,1259.45C1260.61,1277.05 1259.39,1298.02 1256.93,1322.35C1254.48,1346.69 1251.57,1368.43 1248.2,1387.59C1246.67,1392.25 1245.18,1395.87 1243.72,1398.46C1242.27,1401.05 1240.62,1402.34 1238.78,1402.34L1142.73,1402.34C1140.28,1402.86 1138.1,1400.79 1136.18,1396.13C1134.27,1391.47 1133.31,1386.29 1133.31,1380.6C1133.31,1375.94 1135.15,1365.84 1138.83,1350.31C1142.5,1334.78 1144.34,1312.52 1144.34,1283.52L1144.11,974.43C1144.11,952.167 1143.04,934.823 1140.89,922.397C1138.44,910.489 1136.07,898.322 1133.77,885.896C1133.77,878.13 1134.54,872.952 1136.07,870.364C1137.6,867.775 1139.51,866.481 1141.81,866.481L1214.65,866.481C1223.85,866.481 1230.55,865.834 1234.76,864.539C1238.97,863.245 1243.3,861.562 1247.74,859.491C1250.81,859.491 1253.11,871.917 1254.64,896.769C1255.71,913.336 1256.25,929.386 1256.25,944.919C1256.25,956.309 1255.94,964.334 1255.33,968.994C1254.71,973.653 1253.34,975.983 1251.19,975.983C1250.42,975.983 1246.33,964.981 1238.9,942.977C1231.47,920.973 1222.24,909.971 1211.21,909.971C1202.32,909.971 1195.81,918.514 1191.68,935.599C1188.77,947.507 1187.31,961.745 1187.31,978.313C1187.31,984.008 1187.23,992.81 1187.08,1004.72C1186.93,1016.63 1186.85,1024.91 1186.85,1029.57C1186.85,1037.85 1186.93,1043.29 1187.08,1045.88C1187.39,1050.02 1187.92,1052.09 1188.69,1052.09C1190.99,1035.52 1194.66,1021.03 1199.72,1008.6C1205.54,994.104 1212.43,986.856 1220.4,986.856C1227.29,986.856 1232.96,998.246 1237.4,1021.03C1240.93,1039.15 1242.69,1054.94 1242.69,1068.4C1242.69,1102.05 1238.78,1126.9 1230.97,1142.95C1224.84,1155.38 1219.94,1159.78 1216.26,1156.16C1215.65,1154.6 1215.34,1152.53 1215.34,1149.94C1215.34,1147.87 1215.77,1143.73 1216.61,1137.52C1217.45,1131.31 1217.8,1126.39 1217.64,1122.76C1217.64,1113.44 1216.03,1104.12 1212.82,1094.81C1210.67,1088.59 1208.83,1085.49 1207.3,1085.49C1198.88,1085.49 1192.9,1102.31 1189.38,1135.96C1186.93,1159.78 1185.7,1191.88 1185.7,1232.27L1185.7,1259.06C1185.7,1267.08 1185.78,1274.46 1185.93,1281.19C1185.93,1301.38 1187,1316.92 1189.15,1327.79C1192.06,1342.29 1196.81,1349.53 1203.39,1349.53C1213.96,1349.53 1223.62,1337.63 1232.35,1313.81C1240.01,1287.92 1247.67,1262.04 1255.33,1236.15C1256.86,1236.15 1258.12,1238.74 1259.12,1243.91C1260.11,1249.09 1260.61,1254.27 1260.61,1259.45Z" style="fill-rule:nonzero;"/>
                </g>
                <g transform="matrix(1,0,0,1,123.613,0)">
                    <path d="M1395.73,1286.63C1394.5,1308.37 1391.7,1328.44 1387.34,1346.82C1382.97,1365.2 1377.73,1377.75 1371.6,1384.48C1359.8,1396.91 1347.16,1403.12 1333.68,1403.12C1316.53,1403.12 1301.28,1392.77 1287.96,1372.06C1283.67,1362.74 1280.22,1351.48 1277.62,1338.27C1275.01,1325.07 1273.71,1310.44 1273.71,1294.39C1273.71,1290.77 1273.86,1285.85 1274.17,1279.64C1274.17,1264.11 1275.89,1249.22 1279.34,1234.98C1282.79,1220.75 1286.81,1210.26 1291.4,1203.53C1294.31,1200.42 1296.99,1198.22 1299.44,1196.93C1301.9,1195.63 1304.65,1194.99 1307.72,1194.99C1311.09,1194.99 1314.19,1196.67 1317.02,1200.04C1319.86,1203.4 1322.19,1208.71 1324.03,1215.96C1324.03,1223.2 1322.19,1229.42 1318.52,1234.6C1314.84,1239.77 1312.62,1244.17 1311.85,1247.8C1310.47,1251.94 1309.4,1259.71 1308.64,1271.1C1307.87,1282.49 1307.41,1288.7 1307.26,1289.74C1307.26,1315.1 1311.32,1333.48 1319.44,1344.87C1320.97,1346.43 1322.81,1347.98 1324.95,1349.53C1327.1,1351.09 1328.78,1351.86 1330.01,1351.86C1332,1351.86 1333.8,1350.96 1335.41,1349.15C1337.02,1347.33 1338.74,1344.1 1340.58,1339.44C1344.1,1331.67 1346.74,1321.45 1348.5,1308.76C1350.27,1296.08 1351.15,1282.75 1351.15,1268.77C1351.15,1262.55 1351.07,1257.89 1350.92,1254.79C1348.62,1223.2 1342.34,1195.25 1332.07,1170.91C1323.04,1151.24 1314,1131.31 1304.96,1111.11C1296.84,1094.55 1290.25,1076.68 1285.2,1057.53C1278.76,1033.71 1275.09,1009.12 1274.17,983.749C1274.02,981.161 1273.94,977.278 1273.94,972.1C1273.94,937.411 1278.23,909.712 1286.81,889.002C1291.25,878.648 1296.23,871.399 1301.74,867.257C1307.26,863.115 1313.38,861.044 1320.12,861.044C1323.95,861.044 1330.01,861.95 1338.28,863.763C1346.55,865.575 1352.14,866.481 1355.05,866.481C1360.11,866.481 1363.52,866.092 1365.28,865.316C1367.04,864.539 1369.26,863.245 1371.94,861.433C1374.62,859.621 1376.35,858.715 1377.11,858.715C1378.8,858.715 1380.14,860.138 1381.13,862.986C1382.13,865.834 1382.93,871.788 1383.55,880.848C1384.16,889.909 1384.69,897.545 1385.15,903.758C1386.53,922.915 1387.22,937.411 1387.22,947.248C1387.07,950.873 1386.99,953.72 1386.99,955.791C1386.69,964.593 1385.54,970.547 1383.55,973.653C1380.48,975.724 1377.57,970.806 1374.81,958.898C1371.14,942.848 1368.61,933.528 1367.23,930.94C1364.17,922.138 1360.76,915.666 1357.01,911.524C1353.25,907.382 1349.15,905.311 1344.71,905.311C1339.35,905.311 1334.45,909.194 1330.01,916.961C1327.56,923.691 1325.95,929.516 1325.18,934.434C1324.41,939.353 1324.03,944.66 1324.03,950.355C1324.49,968.476 1327.02,983.749 1331.62,996.175C1345.56,1031.38 1359.57,1066.33 1373.66,1101.02C1389.14,1148.65 1396.87,1198.35 1396.87,1250.13C1396.87,1257.38 1396.8,1262.94 1396.64,1266.83C1396.49,1270.71 1396.18,1277.31 1395.73,1286.63Z" style="fill-rule:nonzero;"/>
                </g>
                <g transform="matrix(1,0,0,1,123.613,0)">
                    <path d="M1546.23,976.76L1546.23,986.856C1546.23,996.175 1545.93,1004.07 1545.32,1010.54C1544.7,1017.01 1543.48,1020.25 1541.64,1020.25C1537.04,995.916 1532.22,974.948 1527.16,957.344C1521.65,937.67 1514.83,927.833 1506.71,927.833C1503.95,927.833 1501.88,931.587 1500.51,939.094C1499.13,946.601 1498.44,956.05 1498.44,967.44L1498.44,1285.85C1498.44,1306.04 1499.59,1323.91 1501.88,1339.44C1504.18,1354.97 1506.63,1370.24 1509.24,1385.26C1509.24,1390.44 1508.24,1394.58 1506.25,1397.68C1504.26,1400.79 1502.73,1402.34 1501.66,1402.34L1454.55,1402.34C1449.95,1402.34 1447.66,1398.46 1447.66,1390.69C1447.66,1383.96 1449.27,1372.57 1452.48,1356.52C1455.7,1340.47 1457.31,1316.4 1457.31,1284.3L1457.08,967.44C1457.08,958.121 1455.74,949.449 1453.06,941.424C1450.38,933.399 1448.19,929.386 1446.51,929.386C1437.01,929.386 1429.46,944.53 1423.87,974.818C1418.28,1005.11 1414.18,1020.25 1411.58,1020.25C1409.43,1020.25 1408.1,1016.5 1407.56,1008.99C1407.02,1001.48 1406.75,990.739 1406.75,976.76C1406.75,954.497 1408.13,931.975 1410.89,909.194C1414.41,880.201 1418.93,865.704 1424.45,865.704L1531.3,865.704C1535.43,865.704 1538.96,878 1541.87,902.593C1544.78,927.186 1546.23,951.908 1546.23,976.76Z" style="fill-rule:nonzero;"/>
                </g>
            </g>
        </g>
    </g>
</svg>
