<?xml version="1.0" encoding="UTF-8" standalone="no"?>
<!DOCTYPE svg PUBLIC "-//W3C//DTD SVG 1.1//EN" "http://www.w3.org/Graphics/SVG/1.1/DTD/svg11.dtd">
<svg width="100%" height="100%" viewBox="0 0 2000 2000" version="1.1" xmlns="http://www.w3.org/2000/svg" xmlns:xlink="http://www.w3.org/1999/xlink" xml:space="preserve" xmlns:serif="http://www.serif.com/" style="fill-rule:evenodd;clip-rule:evenodd;stroke-linejoin:round;stroke-miterlimit:2;">
    <rect id="Artboard1" x="0" y="0" width="2000" height="2000" style="fill:none;"/>
    <g id="Artboard11" serif:id="Artboard1">
        <g transform="matrix(1.63788,0,0,3.83608,-473.247,-5883)">
            <path d="M852.391,1629.51C855.462,1630.02 856.998,1631.15 856.998,1632.9L856.998,1637.23C856.998,1639.22 855.243,1640.31 851.732,1640.51C848.661,1640.51 846.906,1639.22 846.467,1636.64L846.467,1633.37C846.467,1630.8 848.441,1629.51 852.391,1629.51ZM852.391,1650.39C855.462,1650.94 856.998,1652.03 856.998,1653.67L856.998,1661.56C856.384,1663.01 853.926,1663.73 849.626,1663.73C847.52,1662.91 846.467,1661.68 846.467,1660.04L846.467,1654.6C846.467,1651.79 848.441,1650.39 852.391,1650.39ZM802.236,1662.03L803.289,1662.03C806.8,1662.03 808.994,1664.25 809.871,1668.7C812.241,1673.42 813.426,1676.26 813.426,1677.24L813.426,1677.82C813.426,1678.33 812.811,1678.86 811.583,1679.4C806.054,1679.13 803.289,1678.29 803.289,1676.89C800.218,1670.3 798.463,1666.16 798.024,1664.49C798.638,1662.85 800.042,1662.03 802.236,1662.03ZM905.046,1664.84C907.591,1664.84 909.127,1665.6 909.653,1667.12L909.653,1667.47C909.39,1668.64 907.152,1673.49 902.94,1682.03C900.483,1683.16 898.157,1683.73 895.963,1683.73C893.857,1683.26 892.804,1682.58 892.804,1681.68C897.455,1670.84 900.395,1665.42 901.623,1665.42C903.203,1665.03 904.344,1664.84 905.046,1664.84ZM850.021,1673.79L850.284,1673.79C854.76,1674.06 856.998,1674.78 856.998,1675.95L856.998,1712.22C856.998,1713.35 854.892,1713.91 850.679,1713.91L848.968,1713.91C847.301,1713.37 846.467,1711.98 846.467,1709.76L846.467,1677.82C846.467,1675.68 847.652,1674.33 850.021,1673.79ZM767.352,1685.72C770.862,1685.72 774.241,1688.25 777.488,1693.32L777.488,1693.5C776.611,1695.02 774.855,1695.78 772.223,1695.78L771.564,1695.78C769.283,1695.78 766.825,1693.93 764.193,1690.22C763.842,1690.22 763.403,1689.72 762.876,1688.7L762.876,1687.59C762.876,1686.5 764.368,1685.88 767.352,1685.72ZM936.771,1685.72C939.579,1685.99 940.983,1686.77 940.983,1688.06C940.983,1688.99 938.175,1692.04 932.559,1697.18C931.33,1697.5 930.277,1697.65 929.399,1697.65C928.083,1697.65 926.459,1697.18 924.529,1696.25C924.353,1695.7 924.265,1695.29 924.265,1695.02C929.092,1688.94 932.559,1685.89 934.665,1685.89L936.771,1685.72ZM816.19,1689.11C818.559,1689.11 820.534,1691.9 822.114,1697.48C822.289,1697.55 823.342,1699.89 825.273,1704.49C824.746,1705.94 823.825,1706.66 822.509,1706.66C817.857,1706.66 815.181,1705.66 814.479,1703.67L809.608,1691.74C811.188,1689.99 813.382,1689.11 816.19,1689.11ZM890.434,1693.32C892.979,1693.32 894.822,1694.26 895.963,1696.13L895.963,1696.25C892.014,1705.64 889.6,1710.34 888.723,1710.34L887.275,1710.34C884.993,1710.34 882.887,1709.43 880.956,1707.59L880.956,1706.95C884.379,1697.87 886.968,1693.32 888.723,1693.32L890.434,1693.32ZM737.075,1698.12C740.234,1698.12 744.403,1700.28 749.581,1704.61C758.444,1710.15 762.876,1713.4 762.876,1714.38C761.911,1716.25 760.156,1717.19 757.611,1717.19C755.943,1717.19 751.994,1714.81 745.763,1710.05C737.163,1704.51 732.863,1701.41 732.863,1700.75L732.863,1699.82C733.389,1698.68 734.793,1698.12 737.075,1698.12ZM972.972,1698.12C975.517,1698.12 976.921,1698.84 977.184,1700.28C977.184,1701.22 973.147,1704.16 965.073,1709.12C952.875,1717.11 946.337,1721.24 945.459,1721.52C944.669,1721.83 943.879,1721.98 943.09,1721.98L942.695,1721.98C939.009,1721.71 937.166,1720.99 937.166,1719.82C937.166,1719.23 940.413,1716.91 946.907,1712.86C961.124,1703.66 968.452,1698.96 968.891,1698.76C970.646,1698.33 972.006,1698.12 972.972,1698.12ZM681.26,1699.7L681.655,1699.7C684.902,1699.7 688.851,1701.14 693.503,1704.03C693.678,1704.18 693.766,1704.38 693.766,1704.61C693.766,1705.62 692.142,1706.31 688.895,1706.66L687.842,1706.66C685.209,1706.66 681.743,1705.31 677.443,1702.62C677.443,1702.31 677.311,1701.94 677.048,1701.51C677.75,1700.3 679.154,1699.7 681.26,1699.7ZM1024.57,1699.7C1027.65,1699.82 1029.18,1700.48 1029.18,1701.69C1029.18,1702.82 1025.58,1704.79 1018.39,1707.59C996.623,1717.38 985.346,1722.33 984.556,1722.45L983.503,1722.45C981.835,1722.45 980.651,1721.52 979.948,1719.64C979.948,1718.24 984.029,1715.98 992.191,1712.86C1010.8,1704.32 1020.89,1699.97 1022.47,1699.82L1024.57,1699.7ZM606.358,1701.86L607.674,1701.86C609.429,1701.86 613.993,1703.03 621.365,1705.37C633.651,1709.04 640.365,1711.22 641.505,1711.92L641.9,1712.68L641.9,1712.86C641.374,1714.38 639.97,1715.14 637.688,1715.14L636.371,1715.14C635.318,1715.14 629.482,1713.5 618.864,1710.23C609.473,1707.42 604.252,1705.7 603.199,1705.08C602.76,1704.42 602.54,1703.95 602.54,1703.67L602.54,1703.56C602.891,1702.43 604.164,1701.86 606.358,1701.86ZM1109.35,1702.15C1112.16,1702.43 1113.56,1703.05 1113.56,1704.03C1113.56,1705.66 1110.05,1707.01 1103.03,1708.06L1101.32,1708.06C1098.51,1707.75 1097.11,1707.16 1097.11,1706.31L1097.11,1706.02C1097.11,1704.77 1100.35,1703.54 1106.85,1702.33C1107.2,1702.21 1108.03,1702.15 1109.35,1702.15ZM785.123,1704.61L785.518,1704.61C788.239,1704.61 790.915,1706.48 793.548,1710.23C798.199,1714.79 800.525,1717.36 800.525,1717.95C800.525,1718.96 798.77,1719.74 795.259,1720.29L794.601,1720.29C792.232,1720.29 789.555,1718.26 786.571,1714.2C782.798,1710.5 780.56,1708.14 779.858,1707.13C780.911,1705.45 782.666,1704.61 785.123,1704.61ZM916.235,1706.48C919.921,1706.8 921.764,1707.67 921.764,1709.12C916.235,1715.55 912.769,1719 911.365,1719.47L910.312,1719.47C907.854,1719.47 905.968,1718.55 904.651,1716.72L904.651,1716.25C904.651,1715.51 907.459,1712.47 913.076,1707.13C914.305,1706.7 915.358,1706.48 916.235,1706.48ZM1075.91,1711.57C1077.32,1711.88 1078.94,1712.66 1080.78,1713.91C1080.78,1714.96 1074.73,1717.03 1062.62,1720.11C1053.84,1722.92 1048.71,1724.32 1047.22,1724.32L1046.29,1724.32C1044.01,1724.32 1042.61,1723.48 1042.08,1721.81C1042.08,1720.76 1047.17,1718.94 1057.35,1716.37C1067.53,1713.17 1073.72,1711.57 1075.91,1711.57ZM710.879,1712.22C712.546,1712.22 716.145,1713.6 721.673,1716.37C742.385,1725.45 752.74,1730.21 752.74,1730.64L752.74,1730.93C751.775,1732.18 749.932,1732.8 747.211,1732.8L746.421,1732.8C744.227,1732.8 741.331,1731.83 737.733,1729.88C717.022,1720.91 706.667,1716.21 706.667,1715.78L706.403,1714.67C706.403,1713.38 707.895,1712.57 710.879,1712.22ZM827.379,1716.37C829.924,1716.37 831.636,1718.28 832.513,1722.1C834.181,1725.26 835.014,1727.38 835.014,1728.48C834.312,1729.53 832.557,1730.06 829.749,1730.06C826.063,1729.35 824.22,1728.11 824.22,1726.31C823.957,1726.31 822.904,1723.89 821.061,1719.06C822.816,1717.27 824.922,1716.37 827.379,1716.37ZM663.094,1718.71C664.937,1718.71 669.588,1719.95 677.048,1722.45C696.706,1728.34 707.983,1731.79 710.879,1732.8C711.318,1733.15 711.537,1733.47 711.537,1733.74C709.958,1734.99 707.764,1735.61 704.955,1735.61L703.639,1735.61C702.41,1735.61 694.161,1733.23 678.891,1728.48C667.043,1724.89 660.769,1722.92 660.066,1722.57C659.101,1722.02 658.618,1721.52 658.618,1721.05C659.321,1719.49 660.812,1718.71 663.094,1718.71ZM879.245,1719.18C882.755,1719.41 884.51,1719.94 884.51,1720.76C881.965,1726.37 880.21,1729.82 879.245,1731.11C878.28,1731.54 877.358,1731.75 876.48,1731.75C872.531,1731.09 870.557,1730.15 870.557,1728.94L870.557,1728.77C872.575,1723.19 874.067,1720.4 875.032,1720.4C876.349,1719.59 877.753,1719.18 879.245,1719.18ZM848.968,1723.97C854.321,1723.97 856.998,1724.6 856.998,1725.84L856.998,1733.1C856.296,1735.48 854.409,1736.66 851.337,1736.66C848.441,1736.66 846.818,1735.44 846.467,1732.98L846.467,1728.3C846.467,1726.12 847.301,1724.67 848.968,1723.97ZM774.987,1724.44L776.04,1724.44C778.761,1724.44 782.271,1726.25 786.571,1729.88C790.959,1732.49 793.153,1734.19 793.153,1734.97C793.153,1735.98 791.179,1736.66 787.229,1737.02C784.948,1737.02 781.569,1735.14 777.093,1731.4C772.705,1728.79 770.511,1727.19 770.511,1726.6L770.511,1726.49C771.301,1725.12 772.793,1724.44 774.987,1724.44ZM961.914,1727.54L962.177,1727.54C965.951,1727.74 967.838,1728.3 967.838,1729.24L967.838,1729.59C967.838,1730.17 964.108,1731.97 956.648,1734.97C951.471,1737.66 947.741,1739 945.459,1739L945.196,1739C941.247,1739 939.272,1738.5 939.272,1737.48L939.272,1737.31C939.272,1736.29 942.256,1734.64 948.224,1732.34C954.542,1729.14 959.106,1727.54 961.914,1727.54ZM1019.7,1727.54L1020.49,1727.54C1022.69,1727.54 1024.18,1728.26 1024.97,1729.7L1024.97,1730.06C1024.97,1731.11 1020.19,1732.8 1010.62,1735.14C996.842,1739.36 989.207,1741.46 987.715,1741.46L986.925,1741.46C985.082,1741.11 984.161,1740.45 984.161,1739.47L984.161,1739C984.161,1737.64 987.057,1736.29 992.849,1734.97C1009.44,1730.02 1018.39,1727.54 1019.7,1727.54ZM896.358,1727.72C900.57,1727.72 902.677,1728.34 902.677,1729.59C897.85,1735.67 894.339,1738.71 892.145,1738.71C892.145,1738.91 891.356,1739 889.776,1739L888.723,1739C886.88,1739 885.695,1738.38 885.169,1737.13C885.169,1736.43 887.845,1733.55 893.199,1728.48C894.603,1727.97 895.656,1727.72 896.358,1727.72ZM808.818,1728.94C811.012,1728.94 813.601,1730.91 816.585,1734.85C817.726,1735.75 818.296,1736.51 818.296,1737.13L818.296,1737.6C818.296,1738.77 816.541,1739.49 813.031,1739.76C810.135,1739.76 806.756,1736.98 802.894,1731.4C802.894,1730.15 804.869,1729.33 808.818,1728.94ZM596.617,1729.41L597.67,1729.41C599.162,1729.41 606.577,1730.76 619.917,1733.45C621.321,1734.07 622.023,1734.64 622.023,1735.14L622.023,1735.73C621.76,1736.98 620.575,1737.6 618.469,1737.6L617.81,1737.6C616.494,1737.6 608.596,1736.22 594.115,1733.45C592.536,1732.63 591.746,1731.95 591.746,1731.4L591.746,1731.28C591.746,1730.19 593.37,1729.57 596.617,1729.41ZM923.212,1729.41L923.475,1729.41C926.196,1729.41 927.951,1730.07 928.741,1731.4L928.741,1732.04C928.741,1732.82 924.09,1735.92 914.787,1741.34C912.33,1741.73 910.838,1741.93 910.312,1741.93C907.503,1741.66 906.099,1741.05 906.099,1740.12C906.099,1739.22 909.829,1736.59 917.288,1732.22C919.395,1730.35 921.369,1729.41 923.212,1729.41ZM1107.24,1729.41L1108.56,1729.41C1111.63,1729.68 1113.17,1730.31 1113.17,1731.28C1113.17,1732.73 1110.01,1733.86 1103.69,1734.68C1096.93,1736.04 1091.49,1737.02 1087.37,1737.6L1084.87,1737.6C1082.85,1737.13 1081.84,1736.37 1081.84,1735.32C1081.84,1733.95 1085.52,1732.8 1092.89,1731.87C1100.97,1730.23 1105.75,1729.41 1107.24,1729.41ZM769.063,1738.24C770.906,1738.24 776.172,1740.41 784.86,1744.74C784.86,1744.93 785.079,1745.3 785.518,1745.85C785.518,1747.06 783.895,1747.72 780.648,1747.84C777.488,1747.84 772.486,1745.98 765.641,1742.28C765.202,1741.5 764.982,1741.03 764.982,1740.88C764.982,1739.63 766.343,1738.75 769.063,1738.24ZM646.771,1738.54L647.166,1738.54C649.535,1738.73 663.928,1741.32 690.343,1746.32C701.928,1748.19 707.72,1749.51 707.72,1750.29C707.983,1750.49 708.115,1750.7 708.115,1750.94L708.115,1751.23C707.764,1752.67 706.359,1753.39 703.902,1753.39L703.639,1753.39C702.498,1753.39 682.489,1749.79 643.612,1742.57C642.471,1741.99 641.9,1741.48 641.9,1741.05C641.9,1739.69 643.524,1738.85 646.771,1738.54ZM1057.75,1738.54C1060.56,1738.81 1061.96,1739.53 1061.96,1740.7L1061.96,1741.17C1061.96,1742.3 1058.1,1743.39 1050.38,1744.44C1015.01,1751.03 996.886,1754.33 996.008,1754.33L995.35,1754.33C992.63,1754.33 990.874,1753.61 990.085,1752.16L990.085,1752.05C990.085,1750.76 994.165,1749.57 1002.33,1748.48C1035.41,1742.28 1053.67,1738.97 1057.09,1738.54L1057.75,1738.54ZM729.703,1738.71C732.512,1739.22 741.595,1741.95 756.953,1746.9C757.391,1747.45 757.611,1747.76 757.611,1747.84C757.611,1749.08 755.505,1749.86 751.292,1750.18C749.888,1750.18 742.253,1747.95 728.387,1743.51C727.158,1742.49 726.544,1741.71 726.544,1741.17L726.544,1740.7C726.544,1739.45 727.597,1738.79 729.703,1738.71ZM961.124,1744.56L962.177,1744.56C965.688,1744.99 967.443,1745.71 967.443,1746.73L967.443,1746.9C967.443,1747.76 962.923,1749.32 953.884,1751.58C950.11,1752.9 946.951,1753.63 944.406,1753.74C941.685,1753.74 940.325,1753.12 940.325,1751.87L940.325,1751.7C940.325,1750.25 943.441,1748.87 949.672,1747.54C955.551,1745.56 959.369,1744.56 961.124,1744.56ZM734.957,1754.17C736.624,1754.17 744.171,1755.51 757.598,1758.2C759.003,1758.87 759.705,1759.43 759.705,1759.9L759.705,1760.07C759.09,1761.4 757.116,1762.06 753.781,1762.06C752.026,1762.06 744.61,1760.72 731.534,1758.03C730.569,1757.48 730.086,1757.03 730.086,1756.68L730.086,1756.51C730.437,1754.95 732.061,1754.17 734.957,1754.17ZM965.995,1755.27C969.066,1755.27 970.602,1756.04 970.602,1757.6C970.602,1759.16 966.302,1760.35 957.702,1761.17L957.307,1761.17C953.621,1760.94 951.778,1760.31 951.778,1759.3L951.778,1759.01C951.778,1757.6 956.517,1756.36 965.995,1755.27ZM660.707,1791.83C663.866,1791.83 665.753,1792.8 666.367,1794.75C666.367,1795.8 661.716,1796.52 652.414,1796.91C649.605,1797.23 655.722,1796.99 628.342,1799.25C624.743,1799.25 622.637,1798.59 622.023,1797.26L622.023,1796.91C622.023,1795.58 625.138,1794.71 631.369,1794.28C664.103,1791.63 659.741,1791.83 660.707,1791.83ZM1034.97,1810.42L1036.42,1810.42C1040.72,1810.93 1059.85,1814.2 1063.28,1815.22C1064.24,1815.76 1064.72,1816.27 1064.72,1816.74C1064.72,1817.79 1062.84,1818.47 1059.06,1818.79C1057.57,1818.79 1035.76,1815.02 1033.92,1814.63C1031.81,1813.85 1030.76,1813.07 1030.76,1812.29C1031.46,1811.05 1032.87,1810.42 1034.97,1810.42ZM751.823,1807.14C754.631,1807.41 756.035,1808.03 756.035,1809.01L756.035,1809.3C756.035,1810.13 754.284,1811.11 750.783,1812.22C748.366,1812.99 745.114,1813.83 741.028,1814.74L739.317,1814.74C736.597,1814.74 734.49,1814.06 732.998,1812.69C732.998,1811.84 737.562,1810.3 746.689,1808.07C748.005,1807.45 749.717,1807.14 751.823,1807.14ZM650.983,1813.17C654.933,1813.72 656.907,1814.5 656.907,1815.51L656.907,1815.69C656.907,1816.58 654.011,1817.4 648.219,1818.14C617.854,1823.84 600.741,1826.94 596.88,1827.44L595.169,1827.44C592.711,1827.44 591.219,1826.94 590.693,1825.92L590.693,1825.28C590.693,1823.95 594.993,1822.7 603.593,1821.54C629.307,1816.66 644.621,1813.87 649.535,1813.17L650.983,1813.17ZM974.025,1813.81L974.815,1813.81C977.009,1813.81 982.099,1815.22 990.085,1818.03C991.226,1818.77 991.796,1819.43 991.796,1820.01C991.357,1821.57 990.085,1822.35 987.978,1822.35C986.75,1822.35 979.905,1820.38 967.443,1816.45L967.048,1815.69C967.048,1814.87 969.374,1814.24 974.025,1813.81ZM713.643,1815.98C715.574,1816.25 716.539,1816.88 716.539,1817.85L716.539,1818.61C716.539,1820.01 713.863,1821.3 708.509,1822.47C662.085,1836.04 637.425,1843.12 634.529,1843.7L633.87,1843.7C632.115,1843.7 630.843,1842.92 630.053,1841.36C630.053,1839.92 633.651,1838.38 640.847,1836.74C685.517,1823.68 709.563,1816.76 712.985,1815.98L713.643,1815.98ZM942.695,1816.62L943.09,1816.62C945.635,1816.62 950.154,1818.26 956.648,1821.54C964.02,1824.77 967.75,1826.64 967.838,1827.15L967.838,1828.2C967.838,1830.08 966.653,1831.01 964.283,1831.01C963.406,1831.01 956.341,1827.97 943.09,1821.89C940.281,1820.91 938.877,1819.88 938.877,1818.79L938.877,1818.61C938.877,1817.48 940.15,1816.82 942.695,1816.62ZM753.793,1819.55C755.461,1819.55 756.733,1820.27 757.611,1821.71L757.611,1822.47C757.611,1823.49 754.715,1825.08 748.923,1827.27C744.973,1829.33 742.165,1830.37 740.498,1830.37L739.181,1830.37C736.812,1829.78 735.627,1828.96 735.627,1827.91C735.627,1826.78 739.357,1824.77 746.816,1821.89C749.712,1820.33 752.038,1819.55 753.793,1819.55ZM1090.13,1820.19C1092.06,1820.19 1098.91,1821.38 1110.67,1823.76C1112.33,1824.46 1113.17,1825.06 1113.17,1825.57L1113.17,1826.04C1113.17,1827.01 1111.54,1827.58 1108.3,1827.74L1107.64,1827.74C1105.88,1827.74 1098.77,1826.45 1086.31,1823.88C1085.17,1823.1 1084.6,1822.47 1084.6,1822C1084.6,1821.14 1086.44,1820.54 1090.13,1820.19ZM782.754,1820.95L783.412,1820.95C785.957,1821.11 787.229,1821.67 787.229,1822.65L787.229,1823.41C787.229,1824.3 783.982,1826.62 777.488,1830.37C776.698,1831.23 775.206,1831.65 773.012,1831.65L772.618,1831.65C769.37,1831.38 767.747,1830.64 767.747,1829.43L767.747,1829.31C768.361,1828.46 771.389,1826.33 776.83,1822.94C778.848,1821.61 780.823,1820.95 782.754,1820.95ZM1013.12,1825.75L1014.18,1825.75C1016.11,1825.75 1021.33,1827.19 1029.84,1830.08C1036.6,1831.71 1039.98,1833.12 1039.98,1834.29C1038.92,1835.73 1037.39,1836.45 1035.37,1836.45L1034.71,1836.45C1032.95,1836.45 1027.95,1835.11 1019.7,1832.41C1012.86,1830.47 1008.91,1829.12 1007.86,1828.38L1007.86,1827.91C1007.86,1826.9 1009.61,1826.17 1013.12,1825.75ZM825.931,1830.54C828.213,1830.54 829.705,1831.36 830.407,1833L830.407,1833.35C830.407,1834.36 827.291,1841.07 821.061,1853.47C820.095,1853.9 819.174,1854.11 818.296,1854.11C815.312,1854.11 813.206,1853.12 811.978,1851.13C817.068,1839.75 820.315,1833.19 821.719,1831.48C823.298,1830.86 824.703,1830.54 825.931,1830.54ZM851.074,1833L851.732,1833C854.716,1833 856.471,1834.19 856.998,1836.57L856.998,1849.43C856.998,1850.92 856.296,1851.85 854.892,1852.24L851.337,1852.07L847.915,1852.07C846.95,1851.21 846.467,1849.83 846.467,1847.91L846.467,1836.57C846.467,1834.19 848.003,1833 851.074,1833ZM800.525,1833.82L800.788,1833.82C802.894,1833.82 803.948,1834.27 803.948,1835.16C802.543,1837.27 797.102,1843.22 787.624,1853C786.308,1853.43 785.386,1853.65 784.86,1853.65C781.876,1853.65 779.989,1852.77 779.199,1851.01L779.199,1850.84C779.902,1849.55 784.684,1844.29 793.548,1835.05C795.391,1834.23 797.717,1833.82 800.525,1833.82ZM717.856,1835.98C721.103,1836.41 722.726,1837.13 722.726,1838.15C722.726,1839 719.479,1840.7 712.985,1843.24C692.801,1852.44 682.226,1857.04 681.26,1857.04L679.154,1857.16L678.891,1857.16C676.083,1857.08 674.678,1856.57 674.678,1855.63L674.678,1854.88C674.678,1853.9 679.681,1851.37 689.685,1847.27C705.57,1839.94 714.258,1836.22 715.75,1836.1C716.101,1836.02 716.803,1835.98 717.856,1835.98ZM986.267,1835.98C988.812,1835.98 992.761,1837.37 998.115,1840.13C1018.12,1849.03 1028.13,1853.57 1028.13,1853.76C1028.83,1854.27 1029.18,1854.84 1029.18,1855.46C1028.57,1856.59 1027.3,1857.16 1025.36,1857.16L1024.57,1857.16C1021.59,1857.16 1016.72,1855.36 1009.96,1851.78C990.041,1843.08 980.036,1838.58 979.948,1838.26L979.948,1837.39C981.002,1836.45 983.108,1835.98 986.267,1835.98ZM753.793,1839.08L754.846,1839.08C757.128,1839.08 758.62,1839.9 759.322,1841.54L759.322,1841.71C759.322,1842.26 755.022,1845.24 746.421,1850.66C739.664,1855.23 735.495,1857.76 733.916,1858.27C732.687,1858.58 731.502,1858.74 730.362,1858.74C727.992,1858.74 726.632,1858.01 726.281,1856.57C726.281,1855.79 729.396,1853.47 735.627,1849.61C744.666,1843.72 750.02,1840.31 751.687,1839.38C752.477,1839.18 753.179,1839.08 753.793,1839.08ZM1060.51,1840.02L1060.91,1840.02C1062.84,1840.02 1068.06,1841.46 1076.57,1844.35C1089.65,1848.09 1097.55,1850.57 1100.27,1851.78L1100.92,1852.83L1100.92,1853.47C1100.49,1854.49 1099.35,1854.99 1097.5,1854.99L1095.79,1854.99C1093.77,1854.99 1088.64,1853.61 1080.39,1850.84C1066.87,1846.94 1059.19,1844.5 1057.35,1843.53C1056.91,1843.22 1056.69,1842.92 1056.69,1842.65L1056.69,1842.01C1057.31,1840.68 1058.58,1840.02 1060.51,1840.02ZM881.909,1846.02C885.156,1846.02 887.262,1848.34 888.227,1852.98C894.985,1868.18 896.358,1872.46 896.358,1873.48C895.129,1874.49 893.506,1875 891.487,1875C887.275,1874.29 885.169,1872.79 885.169,1870.49C877.972,1854.35 876.38,1849.47 876.38,1848.18C876.38,1846.97 878.223,1846.25 881.909,1846.02ZM607.016,1846.8L608.464,1846.8C611.711,1847.23 613.335,1847.95 613.335,1848.97L613.335,1849.14C613.335,1850.08 609.605,1851.42 602.145,1853.18C599.513,1854.19 597.187,1854.7 595.169,1854.7L594.774,1854.7C591.79,1854.7 590.298,1854.13 590.298,1853L590.298,1852.54C590.298,1851.29 595.081,1849.53 604.647,1847.27C604.647,1847.08 605.436,1846.92 607.016,1846.8ZM919.395,1848.67L919.658,1848.67C922.466,1848.67 925.055,1850.37 927.425,1853.76C935.06,1861.56 939.579,1866.57 940.983,1868.8C940.545,1870.36 939.14,1871.13 936.771,1871.13L936.113,1871.13C933.129,1871.13 930.321,1869.32 927.688,1865.7C918.649,1856.26 914.129,1851.31 914.129,1850.84C915.533,1849.4 917.288,1848.67 919.395,1848.67ZM962.177,1851.01C964.283,1851.01 967.223,1852.71 970.997,1856.1C970.997,1856.45 971.085,1856.71 971.26,1856.86C970.734,1858.23 969.242,1858.91 966.785,1858.91C963.45,1858.91 960.422,1857.45 957.702,1854.52C957.438,1854.17 957.307,1853.98 957.307,1853.94C958.272,1851.99 959.896,1851.01 962.177,1851.01ZM851.337,1862.13C855.111,1862.6 856.998,1863.43 856.998,1864.64L856.998,1891.43C856.998,1892.6 855.462,1893.42 852.391,1893.89L851.074,1894.06C848.003,1893.48 846.467,1892.39 846.467,1890.79L846.467,1865.7C846.906,1863.32 848.529,1862.13 851.337,1862.13ZM770.906,1862.3L771.564,1862.3C774.812,1862.73 776.435,1863.45 776.435,1864.47L776.435,1864.93C773.627,1869.07 770.599,1871.13 767.352,1871.13L766.694,1871.13C764.763,1871.13 763.491,1870.51 762.876,1869.26L762.876,1868.15C765.509,1864.25 768.186,1862.3 770.906,1862.3ZM811.583,1863.71L812.372,1863.71C813.513,1863.71 814.566,1864.37 815.532,1865.7L803.948,1889.38C802.192,1890.44 800.569,1890.96 799.077,1890.96C796.444,1890.96 794.821,1890.09 794.206,1888.33C801.139,1873.44 804.869,1865.74 805.396,1865.23C807.502,1864.21 809.564,1863.71 811.583,1863.71ZM898.069,1884.47L898.727,1884.47C900.746,1884.47 902.062,1885.39 902.677,1887.22C903.993,1890.69 904.651,1892.66 904.651,1893.13C903.949,1894.69 902.326,1895.47 899.781,1895.47C896.621,1895.47 894.559,1893.91 893.593,1890.79C892.891,1888.72 892.409,1887.69 892.145,1887.69C893.462,1885.54 895.436,1884.47 898.069,1884.47ZM851.337,1904.12C854.321,1904.12 856.208,1905 856.998,1906.76L856.998,1924.07C856.998,1926.25 855.023,1927.35 851.074,1927.35C848.003,1926.99 846.467,1925.61 846.467,1923.19L846.467,1907.69C846.906,1905.31 848.529,1904.12 851.337,1904.12Z" style="fill-rule:nonzero;"/>
        </g>
        <g transform="matrix(1.16051,0,0,0.343371,-160.489,577.237)">
            <g transform="matrix(1.76759,0,0,1.76759,-224.716,-650.406)">
                <path d="M444.874,1322.35C444.874,1342.03 443.189,1359.11 439.819,1373.61C435.377,1392.77 429.096,1402.34 420.977,1402.34L325.156,1402.34C323.624,1402.34 321.939,1401.31 320.101,1399.24C318.263,1397.17 317.344,1393.28 317.344,1387.59C317.344,1383.45 318.646,1373.09 321.25,1356.52C323.854,1339.96 325.156,1316.66 325.156,1286.63C325.156,1265.92 324.927,1218.29 324.467,1143.73C324.007,1069.18 323.778,1021.29 323.778,1000.06C323.778,964.852 322.782,938.447 320.79,920.844C318.493,906.347 316.195,891.591 313.897,876.577C313.897,869.846 314.816,865.186 316.654,862.598C318.493,860.009 320.944,858.715 324.007,858.715L368.126,858.715C370.577,858.715 372.033,858.973 372.492,859.491C374.943,862.08 376.169,867.775 376.169,876.577C376.169,880.201 374.56,889.002 371.343,902.982C368.126,916.961 366.518,933.528 366.518,952.685L366.518,1166.25C366.518,1172.47 366.479,1179.07 366.403,1186.06C366.326,1193.05 366.288,1200.16 366.288,1207.41C366.288,1252.46 367.284,1285.85 369.275,1307.6C372.492,1342.8 378.39,1360.41 386.969,1360.41C392.024,1360.41 396.16,1354.45 399.377,1342.55C402.594,1330.64 404.202,1317.95 404.202,1304.49C404.202,1289.99 402.517,1277.57 399.147,1267.21C395.164,1256.34 391.258,1245.21 387.428,1233.82C387.428,1224.5 389.688,1216.21 394.207,1208.97C398.726,1201.72 403.13,1198.09 407.419,1198.09C415.692,1198.09 423.734,1209.23 431.547,1231.49C440.432,1256.86 444.874,1287.15 444.874,1322.35Z" style="fill-rule:nonzero;"/>
            </g>
            <g transform="matrix(1,0,0,1,0,11.6492)">
                <path d="M517.946,1385.26C517.946,1389.92 517.065,1393.93 515.303,1397.3C513.542,1400.66 512.048,1402.34 510.823,1402.34L463.027,1402.34C461.955,1402.34 460.423,1400.4 458.432,1396.52C456.44,1392.64 455.444,1388.37 455.444,1383.7C457.896,1370.24 460.117,1355.1 462.108,1338.27C464.1,1321.45 465.095,1298.02 465.095,1267.99L465.095,965.887C465.095,945.177 464.1,928.351 462.108,915.407C460.117,902.464 458.049,889.261 455.904,875.8C455.904,870.105 456.402,865.834 457.398,862.986C458.393,860.138 460.806,858.715 464.636,858.715L509.214,858.715C511.665,858.715 513.657,860.397 515.189,863.763C516.72,867.128 517.486,872.176 517.486,878.907C517.486,884.084 515.916,893.921 512.776,908.418C509.635,922.915 508.065,942.071 508.065,965.887L507.835,1269.54C507.835,1308.89 510.133,1339.18 514.729,1360.41C516.874,1370.24 517.946,1378.53 517.946,1385.26Z" style="fill-rule:nonzero;"/>
            </g>
            <path d="M652.6,954.238C652.6,965.628 651.911,973.136 650.532,976.76C649.766,978.831 648.464,979.866 646.626,979.866C642.03,963.298 636.821,948.802 631,936.376C624.413,922.397 616.064,915.407 605.954,915.407C598.294,915.407 592.55,921.102 588.72,932.493C583.971,946.99 581.596,971.841 581.596,1007.05L581.596,1035.78C581.596,1052.35 582.056,1060.63 582.975,1060.63C586.805,1041.48 591.133,1024.52 595.958,1009.77C600.783,995.01 606.72,987.632 613.766,987.632C622.192,987.632 628.856,998.505 633.758,1020.25C637.587,1037.34 639.502,1055.71 639.502,1075.39C639.502,1099.21 636.668,1120.69 631,1139.85C625.945,1156.93 621.119,1165.48 616.524,1165.48C615.758,1165.48 614.685,1164.05 613.307,1161.2C611.928,1158.36 611.239,1155.38 611.239,1152.27C611.239,1149.69 611.66,1145.8 612.503,1140.62C613.345,1135.45 613.766,1129.24 613.766,1121.99C613.766,1112.67 612.579,1105.03 610.205,1099.08C607.83,1093.12 605.417,1090.14 602.966,1090.14C594.081,1090.14 587.954,1105.68 584.584,1136.74C582.439,1156.42 581.367,1181.79 581.367,1212.85L581.367,1303.71C581.367,1329.08 582.899,1347.72 585.962,1359.63C589.026,1371.54 590.558,1380.08 590.558,1385.26C590.558,1388.88 589.792,1392.77 588.26,1396.91C586.728,1401.05 585.35,1402.86 584.124,1402.34L539.086,1402.34C536.482,1402.34 534.261,1400.79 532.422,1397.68C530.584,1394.58 529.665,1390.44 529.665,1385.26C529.665,1379.56 531.235,1369.86 534.376,1356.13C537.516,1342.41 539.086,1324.94 539.086,1303.71L539.086,994.622C539.086,955.273 537.516,928.998 534.376,915.796C531.235,902.593 529.665,892.886 529.665,886.673C529.665,874.247 533.418,868.034 540.924,868.034L599.749,868.811C610.626,868.811 618.936,868.034 624.681,866.481C630.426,864.927 635.979,863.115 641.341,861.044C645.017,861.044 647.928,872.176 650.072,894.439C651.757,912.042 652.6,931.975 652.6,954.238Z" style="fill-rule:nonzero;"/>
            <path d="M790.471,1259.45C790.471,1277.05 789.245,1298.02 786.794,1322.35C784.343,1346.69 781.433,1368.43 778.063,1387.59C776.531,1392.25 775.037,1395.87 773.582,1398.46C772.126,1401.05 770.48,1402.34 768.641,1402.34L672.591,1402.34C670.14,1402.86 667.957,1400.79 666.042,1396.13C664.128,1391.47 663.17,1386.29 663.17,1380.6C663.17,1375.94 665.008,1365.84 668.685,1350.31C672.362,1334.78 674.2,1312.52 674.2,1283.52L673.97,974.43C673.97,952.167 672.898,934.823 670.753,922.397C668.302,910.489 665.928,898.322 663.63,885.896C663.63,878.13 664.396,872.952 665.928,870.364C667.459,867.775 669.374,866.481 671.672,866.481L744.514,866.481C753.705,866.481 760.407,865.834 764.62,864.539C768.833,863.245 773.161,861.562 777.603,859.491C780.667,859.491 782.965,871.917 784.497,896.769C785.569,913.336 786.105,929.386 786.105,944.919C786.105,956.309 785.799,964.334 785.186,968.994C784.573,973.653 783.194,975.983 781.05,975.983C780.284,975.983 776.186,964.981 768.756,942.977C761.327,920.973 752.097,909.971 741.067,909.971C732.182,909.971 725.672,918.514 721.535,935.599C718.625,947.507 717.17,961.745 717.17,978.313C717.17,984.008 717.093,992.81 716.94,1004.72C716.787,1016.63 716.71,1024.91 716.71,1029.57C716.71,1037.85 716.787,1043.29 716.94,1045.88C717.246,1050.02 717.782,1052.09 718.548,1052.09C720.846,1035.52 724.523,1021.03 729.578,1008.6C735.399,994.104 742.293,986.856 750.259,986.856C757.152,986.856 762.82,998.246 767.263,1021.03C770.786,1039.15 772.548,1054.94 772.548,1068.4C772.548,1102.05 768.641,1126.9 760.829,1142.95C754.701,1155.38 749.799,1159.78 746.122,1156.16C745.51,1154.6 745.203,1152.53 745.203,1149.94C745.203,1147.87 745.625,1143.73 746.467,1137.52C747.31,1131.31 747.654,1126.39 747.501,1122.76C747.501,1113.44 745.893,1104.12 742.676,1094.81C740.531,1088.59 738.693,1085.49 737.161,1085.49C728.735,1085.49 722.761,1102.31 719.238,1135.96C716.787,1159.78 715.561,1191.88 715.561,1232.27L715.561,1259.06C715.561,1267.08 715.638,1274.46 715.791,1281.19C715.791,1301.38 716.863,1316.92 719.008,1327.79C721.918,1342.29 726.667,1349.53 733.255,1349.53C743.825,1349.53 753.476,1337.63 762.207,1313.81C769.867,1287.92 777.526,1262.04 785.186,1236.15C786.718,1236.15 787.982,1238.74 788.977,1243.91C789.973,1249.09 790.471,1254.27 790.471,1259.45Z" style="fill-rule:nonzero;"/>
            <g transform="matrix(1.75138,0,0,1.75138,-598.131,-827.562)">
                <path d="M954.997,1074.61C954.997,1138.81 952.01,1194.73 946.035,1242.36C941.593,1278.09 935.542,1308.89 927.882,1334.78C925.738,1342.03 921.065,1354.71 913.866,1372.83C913.712,1380.08 914.44,1387.46 916.049,1394.97C917.657,1402.47 919.304,1409.85 920.989,1417.1C923.287,1424.35 925.317,1429.65 927.078,1433.02C928.84,1436.38 930.87,1438.07 933.167,1438.07C934.393,1438.07 935.619,1437.29 936.844,1435.74C937.457,1434.7 938.606,1430.3 940.291,1422.54C941.516,1416.84 943.048,1415.03 944.887,1417.1C946.418,1422.28 947.414,1427.58 947.874,1433.02C948.333,1438.46 948.563,1445.83 948.563,1455.15C948.104,1469.65 945.729,1482.59 941.44,1493.98C937.916,1503.3 933.78,1510.03 929.031,1514.18C927.806,1514.69 926.389,1515.08 924.78,1515.34C923.172,1515.6 921.985,1515.73 921.219,1515.73C916.623,1515.73 912.41,1513.53 908.58,1509.13C904.751,1504.73 901.266,1497.48 898.125,1487.38C894.985,1477.29 892.496,1464.73 890.657,1449.72C889.738,1441.43 888.513,1427.45 886.981,1407.78C886.368,1405.71 885.525,1402.86 885.372,1402.34C884.453,1402.86 883.534,1403.12 882.615,1403.12L879.857,1403.12C868.368,1403.12 857.415,1394.84 846.998,1378.27C833.517,1357.04 822.871,1325.2 815.058,1282.75C805.56,1230.97 800.811,1165.74 800.811,1087.04C800.811,1019.22 804.335,967.44 811.381,931.716C817.509,900.652 826.7,879.942 838.956,869.587C847.381,862.339 860.326,858.715 877.789,858.715C905.517,858.715 924.895,872.435 935.925,899.875C948.64,931.457 954.997,989.703 954.997,1074.61ZM900.768,968.217C898.93,944.401 896.019,927.186 892.036,916.572C888.053,905.959 883.611,900.652 878.708,900.652C876.87,900.652 874.879,901.428 872.734,902.982C866.147,906.606 861.015,918.773 857.338,939.482C854.428,955.532 852.398,975.983 851.249,1000.84C850.1,1025.69 849.334,1046.53 848.951,1063.35C848.568,1080.18 848.377,1099.72 848.377,1121.99C848.377,1155.64 849.181,1187.61 850.79,1217.9C852.398,1248.19 855.041,1276.53 858.717,1302.94C859.789,1302.42 860.824,1299.05 861.819,1292.84C862.815,1286.63 863.619,1282.75 864.232,1281.19C865.917,1275.5 867.717,1271.61 869.632,1269.54C871.547,1267.47 873.806,1266.44 876.411,1266.44C878.708,1266.44 880.738,1267.34 882.5,1269.15C884.262,1270.97 886.674,1275.24 889.738,1281.97C892.802,1288.7 895.1,1292.84 896.632,1294.39C897.091,1291.29 897.704,1285.59 898.47,1277.31C899.236,1269.03 899.925,1262.55 900.538,1257.89C904.061,1206.12 905.823,1155.64 905.823,1106.45C905.823,1058.3 904.138,1012.23 900.768,968.217ZM882.615,1336.33C882.308,1333.23 881.159,1328.57 879.168,1322.35C877.177,1316.14 875.262,1312.77 873.423,1312.26C871.126,1314.33 869.67,1316.4 869.057,1318.47C867.679,1325.2 867.296,1331.15 867.909,1336.33C868.828,1342.03 870.015,1345.91 871.47,1347.98C872.926,1350.05 874.649,1351.09 876.64,1351.09C877.713,1351.09 879.13,1350.31 880.891,1348.76C882.653,1347.2 883.228,1343.06 882.615,1336.33Z" style="fill-rule:nonzero;"/>
            </g>
            <g transform="matrix(1,0,0,1,123.613,0)">
                <path d="M1121.36,1369.73C1122.59,1379.56 1121.67,1385.52 1118.6,1387.59C1112.17,1387.59 1094.17,1390.95 1064.61,1397.68C1050.97,1400.79 1039.86,1402.34 1031.29,1402.34C1019.03,1402.34 1008.54,1395.87 999.805,1382.93C989.541,1367.91 981.652,1344.1 976.137,1311.48C972.308,1289.74 969.588,1269.41 967.98,1250.52C966.371,1231.62 965.567,1212.85 965.567,1194.21C965.567,1180.75 965.95,1163.66 966.716,1142.95C968.248,1103.61 969.014,1082.64 969.014,1080.05C969.627,1065.04 970.929,1044.84 972.92,1019.47C974.912,994.104 977.056,967.699 979.354,940.259C979.354,921.62 977.363,904.794 973.38,889.779C972.767,885.119 972.882,880.201 973.725,875.023C974.567,869.846 975.678,866.74 977.056,865.704C982.112,863.115 988.584,861.562 996.473,861.044C1004.36,860.527 1008.84,860.268 1009.92,860.268L1021.18,860.268C1023.17,862.339 1024.55,864.41 1025.31,866.481C1026.23,868.552 1026.77,871.399 1026.92,875.023C1026.92,888.485 1026.38,902.723 1025.31,917.737C1023.47,941.553 1021.71,965.369 1020.03,989.186C1018.8,1010.41 1017.73,1034.62 1016.81,1061.8C1015.89,1088.98 1015.43,1113.44 1015.43,1135.19C1015.43,1164.18 1016.08,1191.88 1017.38,1218.29C1018.69,1244.69 1020.79,1269.8 1023.7,1293.62C1030.14,1336.07 1040.17,1357.3 1053.81,1357.3C1056.41,1356.27 1058.59,1355.36 1060.35,1354.58C1062.12,1353.81 1063.53,1351.09 1064.61,1346.43C1065.98,1337.63 1066.94,1326.88 1067.48,1314.2C1068.01,1301.51 1068.28,1287.92 1068.28,1273.43L1068.28,1255.56C1068.28,1193.95 1068.01,1139.85 1067.48,1093.25C1066.94,1046.65 1065.75,999.282 1063.91,951.132C1063.91,941.812 1063.23,932.881 1061.85,924.338C1060.47,915.796 1057.4,904.276 1052.66,889.779C1052.35,884.084 1052.58,878.259 1053.35,872.305C1054.11,866.351 1055.8,862.857 1058.4,861.821C1061.01,860.786 1064.61,860.009 1069.2,859.491C1073.8,858.973 1078.93,858.715 1084.6,858.715L1101.6,858.715C1104.36,864.41 1105.97,869.069 1106.42,872.694C1108.57,888.226 1109.64,917.996 1109.64,962.004C1109.64,1011.71 1109.91,1068.27 1110.45,1131.69C1110.98,1195.12 1111.25,1243.66 1111.25,1277.31C1112.02,1306.3 1113.13,1326.75 1114.58,1338.66C1116.04,1350.57 1118.3,1360.92 1121.36,1369.73Z" style="fill-rule:nonzero;"/>
            </g>
            <g transform="matrix(1,0,0,1,123.613,0)">
                <path d="M1260.61,1259.45C1260.61,1277.05 1259.39,1298.02 1256.93,1322.35C1254.48,1346.69 1251.57,1368.43 1248.2,1387.59C1246.67,1392.25 1245.18,1395.87 1243.72,1398.46C1242.27,1401.05 1240.62,1402.34 1238.78,1402.34L1142.73,1402.34C1140.28,1402.86 1138.1,1400.79 1136.18,1396.13C1134.27,1391.47 1133.31,1386.29 1133.31,1380.6C1133.31,1375.94 1135.15,1365.84 1138.83,1350.31C1142.5,1334.78 1144.34,1312.52 1144.34,1283.52L1144.11,974.43C1144.11,952.167 1143.04,934.823 1140.89,922.397C1138.44,910.489 1136.07,898.322 1133.77,885.896C1133.77,878.13 1134.54,872.952 1136.07,870.364C1137.6,867.775 1139.51,866.481 1141.81,866.481L1214.65,866.481C1223.85,866.481 1230.55,865.834 1234.76,864.539C1238.97,863.245 1243.3,861.562 1247.74,859.491C1250.81,859.491 1253.11,871.917 1254.64,896.769C1255.71,913.336 1256.25,929.386 1256.25,944.919C1256.25,956.309 1255.94,964.334 1255.33,968.994C1254.71,973.653 1253.34,975.983 1251.19,975.983C1250.42,975.983 1246.33,964.981 1238.9,942.977C1231.47,920.973 1222.24,909.971 1211.21,909.971C1202.32,909.971 1195.81,918.514 1191.68,935.599C1188.77,947.507 1187.31,961.745 1187.31,978.313C1187.31,984.008 1187.23,992.81 1187.08,1004.72C1186.93,1016.63 1186.85,1024.91 1186.85,1029.57C1186.85,1037.85 1186.93,1043.29 1187.08,1045.88C1187.39,1050.02 1187.92,1052.09 1188.69,1052.09C1190.99,1035.52 1194.66,1021.03 1199.72,1008.6C1205.54,994.104 1212.43,986.856 1220.4,986.856C1227.29,986.856 1232.96,998.246 1237.4,1021.03C1240.93,1039.15 1242.69,1054.94 1242.69,1068.4C1242.69,1102.05 1238.78,1126.9 1230.97,1142.95C1224.84,1155.38 1219.94,1159.78 1216.26,1156.16C1215.65,1154.6 1215.34,1152.53 1215.34,1149.94C1215.34,1147.87 1215.77,1143.73 1216.61,1137.52C1217.45,1131.31 1217.8,1126.39 1217.64,1122.76C1217.64,1113.44 1216.03,1104.12 1212.82,1094.81C1210.67,1088.59 1208.83,1085.49 1207.3,1085.49C1198.88,1085.49 1192.9,1102.31 1189.38,1135.96C1186.93,1159.78 1185.7,1191.88 1185.7,1232.27L1185.7,1259.06C1185.7,1267.08 1185.78,1274.46 1185.93,1281.19C1185.93,1301.38 1187,1316.92 1189.15,1327.79C1192.06,1342.29 1196.81,1349.53 1203.39,1349.53C1213.96,1349.53 1223.62,1337.63 1232.35,1313.81C1240.01,1287.92 1247.67,1262.04 1255.33,1236.15C1256.86,1236.15 1258.12,1238.74 1259.12,1243.91C1260.11,1249.09 1260.61,1254.27 1260.61,1259.45Z" style="fill-rule:nonzero;"/>
            </g>
            <g transform="matrix(1,0,0,1,123.613,0)">
                <path d="M1395.73,1286.63C1394.5,1308.37 1391.7,1328.44 1387.34,1346.82C1382.97,1365.2 1377.73,1377.75 1371.6,1384.48C1359.8,1396.91 1347.16,1403.12 1333.68,1403.12C1316.53,1403.12 1301.28,1392.77 1287.96,1372.06C1283.67,1362.74 1280.22,1351.48 1277.62,1338.27C1275.01,1325.07 1273.71,1310.44 1273.71,1294.39C1273.71,1290.77 1273.86,1285.85 1274.17,1279.64C1274.17,1264.11 1275.89,1249.22 1279.34,1234.98C1282.79,1220.75 1286.81,1210.26 1291.4,1203.53C1294.31,1200.42 1296.99,1198.22 1299.44,1196.93C1301.9,1195.63 1304.65,1194.99 1307.72,1194.99C1311.09,1194.99 1314.19,1196.67 1317.02,1200.04C1319.86,1203.4 1322.19,1208.71 1324.03,1215.96C1324.03,1223.2 1322.19,1229.42 1318.52,1234.6C1314.84,1239.77 1312.62,1244.17 1311.85,1247.8C1310.47,1251.94 1309.4,1259.71 1308.64,1271.1C1307.87,1282.49 1307.41,1288.7 1307.26,1289.74C1307.26,1315.1 1311.32,1333.48 1319.44,1344.87C1320.97,1346.43 1322.81,1347.98 1324.95,1349.53C1327.1,1351.09 1328.78,1351.86 1330.01,1351.86C1332,1351.86 1333.8,1350.96 1335.41,1349.15C1337.02,1347.33 1338.74,1344.1 1340.58,1339.44C1344.1,1331.67 1346.74,1321.45 1348.5,1308.76C1350.27,1296.08 1351.15,1282.75 1351.15,1268.77C1351.15,1262.55 1351.07,1257.89 1350.92,1254.79C1348.62,1223.2 1342.34,1195.25 1332.07,1170.91C1323.04,1151.24 1314,1131.31 1304.96,1111.11C1296.84,1094.55 1290.25,1076.68 1285.2,1057.53C1278.76,1033.71 1275.09,1009.12 1274.17,983.749C1274.02,981.161 1273.94,977.278 1273.94,972.1C1273.94,937.411 1278.23,909.712 1286.81,889.002C1291.25,878.648 1296.23,871.399 1301.74,867.257C1307.26,863.115 1313.38,861.044 1320.12,861.044C1323.95,861.044 1330.01,861.95 1338.28,863.763C1346.55,865.575 1352.14,866.481 1355.05,866.481C1360.11,866.481 1363.52,866.092 1365.28,865.316C1367.04,864.539 1369.26,863.245 1371.94,861.433C1374.62,859.621 1376.35,858.715 1377.11,858.715C1378.8,858.715 1380.14,860.138 1381.13,862.986C1382.13,865.834 1382.93,871.788 1383.55,880.848C1384.16,889.909 1384.69,897.545 1385.15,903.758C1386.53,922.915 1387.22,937.411 1387.22,947.248C1387.07,950.873 1386.99,953.72 1386.99,955.791C1386.69,964.593 1385.54,970.547 1383.55,973.653C1380.48,975.724 1377.57,970.806 1374.81,958.898C1371.14,942.848 1368.61,933.528 1367.23,930.94C1364.17,922.138 1360.76,915.666 1357.01,911.524C1353.25,907.382 1349.15,905.311 1344.71,905.311C1339.35,905.311 1334.45,909.194 1330.01,916.961C1327.56,923.691 1325.95,929.516 1325.18,934.434C1324.41,939.353 1324.03,944.66 1324.03,950.355C1324.49,968.476 1327.02,983.749 1331.62,996.175C1345.56,1031.38 1359.57,1066.33 1373.66,1101.02C1389.14,1148.65 1396.87,1198.35 1396.87,1250.13C1396.87,1257.38 1396.8,1262.94 1396.64,1266.83C1396.49,1270.71 1396.18,1277.31 1395.73,1286.63Z" style="fill-rule:nonzero;"/>
            </g>
            <g transform="matrix(1,0,0,1,123.613,0)">
                <path d="M1546.23,976.76L1546.23,986.856C1546.23,996.175 1545.93,1004.07 1545.32,1010.54C1544.7,1017.01 1543.48,1020.25 1541.64,1020.25C1537.04,995.916 1532.22,974.948 1527.16,957.344C1521.65,937.67 1514.83,927.833 1506.71,927.833C1503.95,927.833 1501.88,931.587 1500.51,939.094C1499.13,946.601 1498.44,956.05 1498.44,967.44L1498.44,1285.85C1498.44,1306.04 1499.59,1323.91 1501.88,1339.44C1504.18,1354.97 1506.63,1370.24 1509.24,1385.26C1509.24,1390.44 1508.24,1394.58 1506.25,1397.68C1504.26,1400.79 1502.73,1402.34 1501.66,1402.34L1454.55,1402.34C1449.95,1402.34 1447.66,1398.46 1447.66,1390.69C1447.66,1383.96 1449.27,1372.57 1452.48,1356.52C1455.7,1340.47 1457.31,1316.4 1457.31,1284.3L1457.08,967.44C1457.08,958.121 1455.74,949.449 1453.06,941.424C1450.38,933.399 1448.19,929.386 1446.51,929.386C1437.01,929.386 1429.46,944.53 1423.87,974.818C1418.28,1005.11 1414.18,1020.25 1411.58,1020.25C1409.43,1020.25 1408.1,1016.5 1407.56,1008.99C1407.02,1001.48 1406.75,990.739 1406.75,976.76C1406.75,954.497 1408.13,931.975 1410.89,909.194C1414.41,880.201 1418.93,865.704 1424.45,865.704L1531.3,865.704C1535.43,865.704 1538.96,878 1541.87,902.593C1544.78,927.186 1546.23,951.908 1546.23,976.76Z" style="fill-rule:nonzero;"/>
            </g>
        </g>
    </g>
</svg>
